<?xml version="1.0" encoding="utf-8"?>
<!-- Generator: Adobe Illustrator 18.0.0, SVG Export Plug-In . SVG Version: 6.00 Build 0)  -->
<!DOCTYPE svg PUBLIC "-//W3C//DTD SVG 1.1//EN" "http://www.w3.org/Graphics/SVG/1.1/DTD/svg11.dtd">
<svg version="1.1" id="Layer_1" xmlns="http://www.w3.org/2000/svg" xmlns:xlink="http://www.w3.org/1999/xlink" x="0px" y="0px"
	 viewBox="0 0 350 612" enable-background="new 0 0 350 612" xml:space="preserve">
<g>
	<defs>
		<rect id="SVGID_12_" y="-0.8" width="350" height="612.8"/>
	</defs>
	<clipPath id="SVGID_1_">
		<use xlink:href="#SVGID_12_"  overflow="visible"/>
	</clipPath>
	<g clip-path="url(#SVGID_1_)">
		
			<linearGradient id="SVGID_2_" gradientUnits="userSpaceOnUse" x1="3580.7322" y1="291.6999" x2="3729.5149" y2="46.8345" gradientTransform="matrix(0.8289 -0.5594 0.5594 0.8289 -3157.2034 1899.5127)">
			<stop  offset="1.212120e-02" style="stop-color:#E6E6E6"/>
			<stop  offset="1" style="stop-color:#EAEAEA"/>
		</linearGradient>
		<path fill="url(#SVGID_2_)" d="M14.3,176.9c0-2-1.2-3.6-2.8-3.7c-0.5,0-0.9,0.1-1.3,0.4L-7.7,135c0.5-0.4,0.8-1.1,0.8-1.9
			c0-0.8-0.3-1.5-0.7-1.9c3.3-6.4,11.7-22.3,20.6-39.5l6.7,5.2c-0.1,0.3-0.2,0.5-0.2,0.8c0,1.2,0.7,2.1,1.6,2.2c0.9,0,1.7-0.9,1.7-2
			c0-0.5-0.1-1-0.4-1.4l19.1-24.1c0.4,0.4,0.8,0.6,1.3,0.6c1.2,0,2.2-1.1,2.2-2.6c0-1.5-0.9-2.7-2.1-2.7c-1.2,0-2.2,1.1-2.2,2.6
			c0,0.3,0,0.5,0.1,0.7l-22.3,10c10-19.3,19.5-38,22.4-44.3c0.2,0.1,0.4,0.2,0.6,0.2c1.1,0,2-1,2-2.3c0-1.3-0.8-2.4-1.9-2.5
			c-0.7,0-1.3,0.4-1.7,1L-12.1-3c0.1-0.2,0.2-0.5,0.2-0.7l30.5-0.4c0.1,1,0.8,1.8,1.6,1.8c0.9,0,1.7-0.9,1.7-2
			c0-0.4-0.1-0.8-0.2-1.1l41.8-37.7c0.4,0.5,0.9,0.9,1.5,0.9c1.1,0,2.1-1.1,2.1-2.5c0-1.4-0.9-2.6-2-2.7c-0.9,0-1.7,0.7-2,1.7
			L24.8-57.8c0-0.1,0-0.3,0-0.5c0-1.7-1.1-3.2-2.5-3.2c-1.4-0.1-2.6,1.3-2.6,3c0,0,0,0.1,0,0.1l-24.6,2.8c0-0.2-0.1-0.4-0.2-0.6
			l29.4-30.6c0.3,0.3,0.7,0.6,1.1,0.6c0.9,0,1.7-0.9,1.7-2c0-1.2-0.7-2.1-1.6-2.2c-0.9,0-1.7,0.9-1.7,2c0,0.1,0,0.2,0,0.3l-28.6,7.9
			l3.8-68.7c0.2,0.1,0.5,0.2,0.8,0.2c1.3,0,2.4-1.2,2.4-2.8c0-1.6-1-2.9-2.3-3c-1.3,0-2.4,1.2-2.4,2.8c0,0.4,0.1,0.8,0.2,1.2
			l-45.8,30l-22.9-25.5c0.3-0.5,0.5-1,0.5-1.7c0-1.6-1-2.9-2.3-3c-1.3,0-2.4,1.2-2.4,2.8c0,1.3,0.6,2.4,1.5,2.8l-31.7,62.6
			c-0.1-0.1-0.3-0.1-0.5-0.1c-0.7,0-1.3,0.7-1.3,1.6c0,0.9,0.5,1.6,1.3,1.7c0.1,0,0.2,0,0.3,0l13.9,49.1c-0.7,0.4-1.3,1.3-1.3,2.4
			c0,0.5,0.1,1,0.3,1.5l-36.4,52.6c-0.4-0.3-0.8-0.5-1.3-0.5c-1.3,0-2.4,1.2-2.4,2.8c0,1.6,1,2.9,2.3,3c0.3,0,0.5,0,0.8-0.1
			l31.3,22.2l0-0.1c0.4,0.5,0.9,0.8,1.5,0.8l-0.2,0.1l4.8,21.5l-13.9,5c-0.2-0.7-0.8-1.1-1.4-1.2c-0.9,0-1.6,0.8-1.6,1.9
			c0,1.1,0.7,2,1.5,2c0.3,0,0.7-0.1,0.9-0.3l21.9,31.1c-0.4,0.5-0.7,1.2-0.7,2c0,1.7,1,3.1,2.4,3.1c1.4,0,2.5-1.3,2.5-3
			c0-0.3,0-0.7-0.1-1l11-12.1l2.7,50.5c-1,0.2-1.7,1.2-1.7,2.5c0,1.4,0.9,2.6,2,2.6c1.1,0,2.1-1.1,2.1-2.5c0-0.2,0-0.5-0.1-0.7
			l38.8-16.3L9,174.8c-0.3,0.6-0.5,1.2-0.5,2c0,2,1.2,3.6,2.8,3.7C12.9,180.5,14.2,178.9,14.3,176.9z M-39.7,124.4
			c0-0.7-0.3-1.4-0.8-1.7l8.9-25.7l20.5,35.9l-15,6.3l-13.9-13.8C-39.8,125-39.7,124.7-39.7,124.4z M-7.9,130.9
			c-0.3-0.2-0.5-0.3-0.8-0.3c-1,0-1.8,0.8-2,2l-20.6-36.2l9.8-28.2c0.2,0.1,0.5,0.2,0.7,0.2c0.6,0,1.2-0.3,1.7-0.7L-2,89.3
			c-0.1,0.2-0.2,0.4-0.2,0.7c0,0.7,0.4,1.3,1,1.3c0.6,0,1.1-0.5,1.1-1.3c0-0.1,0-0.2,0-0.2l6.8-3l6,4.7C5.4,105.5-2,119.7-7.9,130.9
			z M-69.7,102.5l-1.7-31.3c1-0.2,1.7-1.2,1.7-2.5c0-1.4-0.9-2.6-2-2.6c-0.7,0-1.4,0.4-1.8,1.1l-21.7-14.5c0.1-0.3,0.2-0.6,0.2-0.9
			c0-0.9-0.3-1.7-0.8-2.1l10.4-21.5c0.2,0.1,0.4,0.2,0.6,0.2c0.8,0,1.5-0.7,1.6-1.6l36.4,1.2c0.1,0.9,0.7,1.5,1.4,1.6
			c0.3,0,0.6-0.1,0.8-0.3l22.2,33.9c-0.5,0.5-0.7,1.3-0.8,2.1c0,0.3,0,0.6,0.1,0.9l-18.8,8.7c-0.3-0.7-0.8-1.1-1.4-1.1
			c-0.9,0-1.7,0.9-1.7,2l-0.1-0.2L-69.7,102.5z M-83.7,25l26.9-45l0.1,0.5l0.1-0.9c0.2,0.1,0.4,0.2,0.6,0.2c0.4,0,0.8-0.2,1.1-0.5
			l10.8,9.9c-0.2,0.4-0.3,0.9-0.4,1.5c0,1.6,1,3,2.3,3.1c1.3,0,2.4-1.2,2.5-2.9c0-1.5-0.8-2.7-2-3l5-56.9c0.8,0,1.5-0.8,1.5-1.9
			c0-0.1,0-0.2,0-0.2l29.9-8.3L-6.4-57c-0.8,0.1-1.4,0.9-1.5,1.9c0,0.9,0.4,1.6,1.1,1.9L-15-3.9l0,0.3l0.3,0c0,0.3,0.1,0.6,0.3,0.9
			l-29.9,29.2c-0.2-0.3-0.6-0.5-0.9-0.5c-0.7,0-1.3,0.6-1.4,1.5l-36.4-1.2C-83.2,25.8-83.4,25.4-83.7,25z M-38.2-70.7
			c0.1,0.7,0.6,1.3,1.2,1.5l-5,56.9c-0.7,0-1.4,0.4-1.9,1l-10.8-9.9c0.1-0.2,0.2-0.5,0.2-0.8c0-1-0.6-1.8-1.4-1.8
			c-0.1,0-0.2,0-0.2,0l13-89.1c0,0,0,0,0,0l4.7,42.4L-38.2-70.7z M-45.5-115.9c0,0.9,0.2,1.6,0.7,2.2l-29.8,15.9L-75-100
			c0.6-0.3,1.1-1.1,1.1-2c0-0.3,0-0.6-0.1-0.9l25.9-16.9l2.8,3.1C-45.4-116.5-45.4-116.2-45.5-115.9z M-75.8-99.8c0.1,0,0.2,0,0.4,0
			l0.5,2.1l-27.8,14.8l25.5-17.8C-76.9-100.2-76.4-99.8-75.8-99.8z M-44.4-113.4c0.3,0.3,0.6,0.4,1,0.5l-13,89.3
			c-0.2,0.1-0.4,0.4-0.6,0.6l-17.3-74.5L-44.4-113.4z M-0.2,89.4c-0.2-0.4-0.5-0.6-0.9-0.6c-0.2,0-0.4,0.1-0.6,0.2l-17.1-21.6
			c0-0.1,0.1-0.1,0.1-0.2l25,19.3L-0.2,89.4z M17.6,81.9c-1.6,3-3.1,6.1-4.7,9.2l-5.8-4.5L17.6,81.9z M-41.7,75.8
			c0-0.2,0-0.4-0.1-0.6l18.8-8.7c0.2,0.6,0.6,1.1,1.1,1.4l-9.7,28l-10.6-18.6C-41.9,76.9-41.7,76.4-41.7,75.8z M41,71.4
			c0.1,0.2,0.2,0.4,0.3,0.6L22.2,96.1c-0.3-0.3-0.6-0.4-1-0.4c-0.6,0-1,0.3-1.4,0.8l-6.7-5.2c1.7-3.2,3.3-6.5,5-9.7L41,71.4z
			 M18,81.2l-11.3,5l-25.2-19.5c0.2-0.4,0.3-0.8,0.3-1.3c0-0.3,0-0.7-0.1-1L40,35.5c0.2,0.4,0.4,0.7,0.7,0.9
			C37.9,42.5,28.5,60.8,18,81.2z M39.9,33.4c-0.1,0.3-0.2,0.6-0.2,0.9c0,0.3,0,0.5,0.1,0.7L-18.5,64c-0.4-1-1.2-1.7-2.1-1.7
			c-0.5,0-1.1,0.2-1.5,0.5l-22.2-33.9c0.2-0.3,0.4-0.7,0.4-1.2c0-0.3-0.1-0.7-0.2-0.9l29.9-29.2c0.2,0.2,0.5,0.3,0.8,0.3
			c0.4,0,0.8-0.2,1-0.5L39.9,33.4z M21.5-5.8c-0.3-0.4-0.7-0.7-1.2-0.7c-0.9,0-1.6,0.8-1.7,1.9l-30.2,0.4l74.8-39.4c0,0,0,0.1,0,0.1
			L21.5-5.8z M63-45.2c0,0.1,0,0.2,0,0.3c0,0.3,0,0.6,0.1,0.9L-12-4.5c0-0.1-0.1-0.3-0.2-0.4l33.1-50.9c0.4,0.3,0.9,0.5,1.4,0.5
			c1.1,0,2.1-0.9,2.5-2.1L63-45.2z M20.6-56.1L-12.5-5.3c-0.2-0.2-0.5-0.3-0.8-0.4c-0.4,0-0.8,0.2-1.1,0.6l8-48.1c0,0,0,0,0.1,0
			c0.9,0,1.6-0.8,1.6-1.9l24.6-2.8C20-57.1,20.2-56.5,20.6-56.1z M24-87.6c0,0.2,0.1,0.3,0.2,0.5L-5.2-56.5C-5.5-56.8-5.7-56.9-6-57
			l1.2-22.6L24-87.6z M-5.1-80l-30,8.3c-0.2-0.7-0.8-1.3-1.4-1.3c-0.2,0-0.4,0-0.5,0.1l35.7-75.5L-5.1-80z M-2.1-149.9
			c0.2,0.3,0.4,0.6,0.6,0.8l-36.6,77.3l-4.6-41c1.2-0.2,2.1-1.4,2.1-2.9c0-1.7-1-3.1-2.4-3.1c-1,0-1.9,0.7-2.3,1.7l-2.6-2.9
			L-2.1-149.9z M-73.2-144.9c0.1,0,0.2,0,0.4,0.1c0.6,0,1.2-0.3,1.7-0.8l22.7,25.4l-25.7,16.8c-0.3-0.6-0.8-1-1.5-1
			c-1,0-1.8,0.9-1.9,2.2c0,0.3,0,0.7,0.2,1l-27.5,19.2c-0.1-0.1-0.1-0.2-0.2-0.2L-73.2-144.9z M-105.3-79.5c0.4-0.3,0.7-0.8,0.7-1.4
			c0-0.2,0-0.3,0-0.5l29.8-15.9l17.5,75.1c0,0,0,0.1,0,0.1c0,0.4,0.1,0.8,0.3,1.1l0.1,0.3l-27,45.3c-0.2-0.1-0.5-0.2-0.7-0.3
			c0,0,0,0-0.1,0l-5.6-49.6c1-0.3,1.7-1.3,1.7-2.6c0-1.5-0.9-2.8-2.1-2.8c-0.2,0-0.4,0-0.6,0.1L-105.3-79.5z M-90.9-25
			c0.1,0,0.1,0,0.2,0l5.6,49.6c-0.6,0.2-1.1,0.9-1.1,1.7l-10.2,0.5l4-52.6C-92.1-25.4-91.5-25-90.9-25z M-92.9-25.4l-4,52.2
			l-31.4,1.5c-0.1-0.6-0.3-1.2-0.7-1.7L-92.9-25.4z M-129.4,31.2c0.7-0.5,1.1-1.4,1.2-2.4l31.3-1.5l-1.8,23
			c-0.2,0.4-0.4,0.9-0.4,1.5c0,0.4,0.1,0.8,0.2,1.1L-129.4,31.2z M-96.6,27.2l10.3-0.5c0.1,0.5,0.3,0.9,0.6,1.2l-10.4,21.5
			c-0.3-0.2-0.5-0.2-0.8-0.3c-0.5,0-0.9,0.2-1.3,0.5L-96.6,27.2z M-96.9,54.3c0.7-0.1,1.2-0.5,1.6-1.1l21.7,14.5
			c-0.1,0.3-0.2,0.6-0.2,0.9c0,0.2,0,0.4,0,0.6l-18.4,6.6L-96.9,54.3z M-73.6,69.6c0.2,0.7,0.6,1.2,1.2,1.4l-10.1,42.5
			c-0.2-0.1-0.5-0.2-0.7-0.2c-0.2,0-0.4,0-0.5,0.1l-8.2-37.3L-73.6,69.6z M-92.4,76.4l8.2,37.3c-0.2,0.1-0.4,0.2-0.6,0.4l-21.9-31.1
			c0.2-0.3,0.4-0.8,0.4-1.2c0-0.1,0-0.2,0-0.4L-92.4,76.4z M-81.1,115.2c-0.2-0.6-0.6-1-1.1-1.3l10.1-42.6c0.1,0,0.2,0,0.3,0.1
			c0,0,0,0,0,0l1.7,31.7L-81.1,115.2z M-65.1,155.5c-0.3-0.9-1-1.5-1.8-1.5c0,0,0,0,0,0l-2.7-50.8L-45,76c0.1,1,0.8,1.8,1.6,1.8
			c0.3,0,0.6-0.1,0.9-0.3l10.8,18.9l-9,26c-0.1,0-0.2-0.1-0.4-0.1c-0.9,0-1.6,0.8-1.6,1.9c0,1.1,0.7,2,1.5,2c0.4,0,0.8-0.2,1.1-0.5
			l13.7,13.6L-65.1,155.5z M-25.7,139.5l15-6.3c0.1,1.2,0.9,2.2,1.9,2.2c0.3,0,0.6-0.1,0.8-0.2l17.8,38.6c-0.2,0.2-0.4,0.3-0.5,0.6
			L-25.7,139.5z"/>
		
			<linearGradient id="SVGID_3_" gradientUnits="userSpaceOnUse" x1="638.5358" y1="-114.5756" x2="760.9933" y2="-316.1151" gradientTransform="matrix(0.6538 0.7567 -0.7567 0.6538 -609.5828 -223.3215)">
			<stop  offset="1.212120e-02" style="stop-color:#E6E6E6"/>
			<stop  offset="1" style="stop-color:#EAEAEA"/>
		</linearGradient>
		<path fill="url(#SVGID_3_)" d="M-129.3,244.9c1.6-0.2,2.8-1.9,2.6-3.9c0-0.6-0.2-1.1-0.4-1.6l28.8-26.4c0.4,0.5,1,0.9,1.6,0.8
			c0.6-0.1,1.2-0.5,1.5-1.1c5.5,3.3,19.3,11.7,34.1,20.6l-3.3,8.8c-0.2-0.1-0.4-0.1-0.7-0.1c-0.9,0.1-1.6,1.1-1.5,2.3
			c0.1,1.2,0.9,2,1.8,1.9c0.4,0,0.8-0.3,1.1-0.6l21.6,20.6c-0.2,0.5-0.4,1.1-0.3,1.7c0.1,1.5,1.1,2.5,2.3,2.4
			c1.2-0.1,2.1-1.4,1.9-2.9c-0.1-1.5-1.1-2.5-2.3-2.4c-0.2,0-0.4,0.1-0.6,0.2l-10.7-26.3c16.7,10,32.8,19.5,38.2,22.3
			c-0.1,0.3-0.1,0.5-0.1,0.8c0.1,1.3,1,2.3,2.1,2.2c1.1-0.1,1.9-1.3,1.8-2.6c-0.1-0.8-0.5-1.5-1-1.9l22.7-68.4
			c0.2,0.1,0.4,0.2,0.6,0.1l4,37.4c-0.8,0.2-1.3,1.2-1.3,2.2c0.1,1.1,0.9,2,1.8,1.9c0.3,0,0.6-0.2,0.8-0.4L53,279.2
			c-0.4,0.5-0.6,1.2-0.5,1.9c0.1,1.4,1.1,2.5,2.3,2.3c1.1-0.1,2-1.4,1.9-2.8c-0.1-1.1-0.8-2-1.6-2.3l5.2-48.4c0.1,0,0.2,0,0.4,0
			c1.4-0.2,2.4-1.7,2.3-3.4c-0.1-1.7-1.4-3-2.7-2.8c0,0-0.1,0-0.1,0l-5.2-29.9c0.2-0.1,0.3-0.2,0.5-0.3l28,32.5
			c-0.2,0.4-0.4,0.9-0.3,1.4c0.1,1.2,0.9,2,1.8,1.9c0.9-0.1,1.6-1.1,1.5-2.3c-0.1-1.2-0.9-2-1.8-1.9c-0.1,0-0.1,0-0.2,0.1L74.6,191
			l55.6-3.5c-0.1,0.3-0.1,0.6-0.1,1c0.1,1.6,1.3,2.8,2.5,2.6c1.3-0.1,2.2-1.6,2.1-3.1c-0.1-1.6-1.3-2.8-2.5-2.6
			c-0.3,0-0.7,0.2-1,0.4L101.8,133l17.8-31.1c0.4,0.3,0.9,0.4,1.4,0.4c1.3-0.1,2.2-1.6,2.1-3.1c-0.1-1.6-1.3-2.8-2.5-2.6
			c-1,0.1-1.8,1-2.1,2.2l-54-31.6c0-0.2,0.1-0.4,0.1-0.6c-0.1-0.9-0.7-1.5-1.4-1.5c-0.7,0.1-1.2,0.9-1.2,1.7c0,0.1,0,0.2,0.1,0.3
			L24.3,90c-0.4-0.9-1.2-1.4-2.1-1.3c-0.4,0-0.8,0.2-1.1,0.6l-46.6-38.5c0.2-0.5,0.3-1.1,0.3-1.7c-0.1-1.6-1.3-2.8-2.5-2.6
			c-1.3,0.1-2.2,1.6-2.1,3.1c0,0.3,0.1,0.7,0.2,1l-14.1,41.1l0.1,0c-0.3,0.5-0.5,1.2-0.5,1.9l-0.1-0.2l-16.7,8.4l-5.6-16.5
			c0.5-0.4,0.8-1.1,0.8-1.8c-0.1-1.1-0.8-1.8-1.7-1.8c-0.9,0.1-1.5,1-1.4,2.1c0,0.4,0.2,0.8,0.4,1.1l-22.4,30.6
			c-0.5-0.5-1.1-0.7-1.7-0.6c-1.4,0.2-2.4,1.6-2.2,3.3c0.1,1.7,1.3,2.9,2.7,2.8c0.3,0,0.5-0.1,0.8-0.2l11,12l-40.2,9.3
			c-0.3-1.2-1.2-2-2.2-1.9c-1.1,0.1-2,1.4-1.9,2.8c0.1,1.4,1.1,2.5,2.3,2.3c0.2,0,0.4-0.1,0.5-0.2l17.7,45.8l-24,47.3
			c-0.5-0.3-1-0.5-1.6-0.4c-1.6,0.2-2.8,1.9-2.6,3.9C-132.3,243.6-130.9,245-129.3,244.9z M-93.5,172.3c0.6-0.1,1.1-0.5,1.3-1.1
			l21.7,7.9L-97,208.5l-6.8-17.7l9.5-18.7C-94.1,172.3-93.8,172.4-93.5,172.3z M-95,212.2c0.1-0.3,0.1-0.7,0.1-1.1
			c-0.1-1.2-0.9-2.1-1.8-2.2l26.6-29.6l23.8,8.7c0,0.3-0.1,0.6,0,0.9c0.1,0.8,0.3,1.5,0.8,2l-15.3,23.6c-0.2-0.1-0.4-0.2-0.6-0.1
			c-0.6,0.1-1,0.7-0.9,1.4c0.1,0.7,0.6,1.2,1.1,1.2c0.1,0,0.1,0,0.2,0l3.2,8l-3,7.9C-73.1,225.5-85.3,218-95,212.2z M-79.6,132.9
			l24.9-5.8c0.3,1.2,1.2,2,2.2,1.9c1.1-0.1,2-1.4,1.9-2.8c-0.1-0.9-0.5-1.7-1.1-2.1l9.1-28.4c0.2,0.1,0.5,0.1,0.8,0.1
			c0.7-0.1,1.3-0.6,1.6-1.3l18.5,10.3c-0.1,0.2-0.1,0.5-0.1,0.7c0.1,1,0.7,1.7,1.5,1.7l3.4,44.9c-0.7,0.2-1.2,1-1.1,1.9
			c0,0.4,0.1,0.7,0.3,0.9l-24.5,31.3c-0.5-0.5-1.1-0.8-1.8-0.7c-0.3,0-0.5,0.1-0.7,0.2l-9.2-22c0.5-0.4,0.8-1.1,0.7-1.9
			c-0.1-1.2-0.9-2-1.8-1.9l0.1-0.2L-79.6,132.9z M-19.1,106.5l39.3,27.7l-0.4,0.2l0.8,0.1c-0.1,0.2-0.1,0.5-0.1,0.8
			c0,0.5,0.3,0.9,0.6,1.2l-6.6,14.4c-0.4-0.2-0.8-0.3-1.2-0.3c-1.3,0.1-2.3,1.6-2.2,3.2c0.1,1.6,1.3,2.8,2.6,2.7
			c1.2-0.1,2.1-1.3,2.2-2.8l46.2-0.6c0.1,1,0.8,1.8,1.7,1.7c0.1,0,0.1,0,0.2,0l10.2,35.8l-18.2,1.2c-0.1-1-0.9-1.7-1.7-1.6
			c-0.7,0.1-1.2,0.7-1.4,1.5l-40.6-4.2l-0.2,0l0,0.3c-0.3,0.1-0.5,0.2-0.7,0.5l-27-33.2c0.2-0.3,0.3-0.8,0.3-1.2
			c-0.1-0.9-0.7-1.6-1.4-1.6l-3.4-44.9C-19.6,107.1-19.3,106.9-19.1,106.5z M63.1,151.1c-0.6,0.2-1,0.9-1.1,1.6l-46.2,0.6
			c-0.1-0.9-0.5-1.7-1-2.2l6.6-14.4c0.2,0.1,0.4,0.2,0.7,0.1c0.8-0.1,1.4-0.9,1.3-1.9c0-0.1,0-0.2,0-0.3l73,5.4c0,0,0,0,0,0
			l-33.5,10.9L63.1,151.1z M98.6,136.7c-0.7,0.1-1.3,0.5-1.7,1.1l-16.2-34.7l1.6-0.8c0.3,0.8,1,1.2,1.8,1.2c0.3,0,0.5-0.1,0.7-0.3
			l16.6,29.8l-2.2,3.8C99,136.7,98.8,136.7,98.6,136.7z M82,101.4c0,0.2,0,0.3,0.1,0.4l-1.7,0.9L65.3,70.3l17.3,29.2
			C82.2,100,82,100.7,82,101.4z M96.6,138.3c-0.2,0.4-0.3,0.8-0.3,1.3l-73.2-5.4c-0.1-0.3-0.3-0.5-0.6-0.7l57.7-30.2L96.6,138.3z
			 M-60.8,216.6c0.3-0.3,0.4-0.7,0.4-1.1c0-0.3-0.1-0.5-0.2-0.7l15.3-23.6c0.1,0,0.1,0.1,0.2,0.1l-12.5,33L-60.8,216.6z
			 M-52.7,237.7c-2.6-1.6-5.3-3.1-7.9-4.7l2.9-7.6L-52.7,237.7z M-54.8,164.1c0.2,0,0.3-0.1,0.4-0.1l9.2,22c-0.5,0.4-0.8,0.9-1,1.5
			l-23.6-8.6l13.7-15.3C-55.8,164-55.3,164.2-54.8,164.1z M-41.5,265.2c-0.2,0.1-0.3,0.3-0.4,0.4l-21.6-20.6
			c0.2-0.4,0.3-0.8,0.2-1.3c0-0.7-0.4-1.2-0.8-1.6l3.3-8.8c2.8,1.7,5.6,3.3,8.4,5L-41.5,265.2z M-52.1,238.1l-5.4-13.2l12.7-33.3
			c0.3,0.2,0.7,0.2,1.1,0.2c0.3,0,0.5-0.1,0.8-0.3l30.1,68.2c-0.3,0.2-0.5,0.6-0.7,1C-18.6,257.9-34.5,248.6-52.1,238.1z
			 M-11.2,259.3c-0.2-0.1-0.5-0.1-0.7-0.1c-0.2,0-0.4,0.1-0.6,0.2l-30.1-68.2c0.7-0.6,1.2-1.7,1.1-2.8c-0.1-0.7-0.3-1.3-0.6-1.7
			l24.6-31.3c0.3,0.2,0.6,0.4,1,0.3c0.3,0,0.5-0.2,0.7-0.4l27,33.3c-0.1,0.3-0.2,0.7-0.2,1c0,0.5,0.2,0.9,0.5,1.2L-11.2,259.3z
			 M18.1,232c0.3-0.4,0.4-1,0.4-1.5c-0.1-1.1-0.8-1.9-1.7-1.9l-3.9-37.1l40.5,87.3c0,0,0,0-0.1,0.1L18.1,232z M54.7,278.4
			c-0.1,0-0.2,0-0.3,0c-0.2,0-0.5,0.1-0.7,0.2L13.1,191c0.1-0.1,0.2-0.2,0.3-0.3l44.7,34.7c-0.2,0.5-0.3,1.1-0.3,1.7
			c0.1,1.4,0.9,2.5,2,2.8L54.7,278.4z M58.4,225l-44.7-34.7c0.1-0.3,0.2-0.7,0.2-1.1c0-0.5-0.3-1-0.6-1.3l39.6,4.1c0,0,0,0.1,0,0.1
			c0.1,1.1,0.8,1.8,1.7,1.7l5.2,29.9C59.1,224.1,58.7,224.5,58.4,225z M84,225.4c-0.1,0.1-0.2,0.2-0.3,0.3l-28-32.5
			c0.2-0.3,0.3-0.6,0.3-1l18.3-1.2L84,225.4z M74.5,190.5l-10.2-35.9c0.6-0.3,0.9-1.1,0.9-1.9c0-0.2-0.1-0.5-0.1-0.7l64.8,35
			L74.5,190.5z M131,186c-0.2,0.2-0.4,0.5-0.6,0.9L64,151l32.4-10.5c0.3,1.4,1.4,2.4,2.6,2.3c1.4-0.2,2.4-1.6,2.2-3.3
			c-0.1-1.2-0.8-2.2-1.7-2.6l2-3.5L131,186z M118.5,99.1c0,0.1,0,0.3,0,0.5c0.1,0.8,0.4,1.5,0.8,2l-17.7,31L85,102.9
			c0.4-0.5,0.7-1.2,0.6-1.9c-0.1-1.2-1-2.2-2-2c-0.3,0-0.5,0.1-0.7,0.3L64.2,67.8c0.1-0.1,0.1-0.2,0.2-0.2L118.5,99.1z M62.2,67.5
			c0.3,0.5,0.7,0.7,1.2,0.7c0.1,0,0.2-0.1,0.4-0.1l16.3,34.8l-58.2,30.4c0,0-0.1,0-0.1,0c-0.3,0-0.6,0.2-0.9,0.5l-0.2,0.1
			l-39.6-27.8c0.1-0.3,0.1-0.6,0.1-0.9c0,0,0-0.1,0-0.1l39.1-12.8c0.3,1.1,1.3,1.9,2.3,1.8c1.2-0.1,2.1-1.5,2-3
			c0-0.3-0.1-0.5-0.1-0.7L62.2,67.5z M20.2,91.6c0,0.1,0,0.1,0,0.2l-39.1,12.8c-0.2-0.7-0.8-1.2-1.5-1.2L-22,90.9l42.7-1.3
			C20.4,90.2,20.2,90.9,20.2,91.6z M20.3,89.2L-22,90.4L-27,52.1c0.5-0.2,1-0.5,1.3-1L20.3,89.2z M-29.4,51c0.5,0.8,1.2,1.2,2.1,1.2
			l4.9,38.3L-41.1,91c-0.4-0.3-0.8-0.4-1.2-0.3c-0.3,0-0.6,0.2-0.9,0.4L-29.4,51z M-22.4,90.9l1.6,12.6c-0.4,0.1-0.7,0.4-0.9,0.8
			l-18.5-10.3C-40,93.7-40,93.4-40,93c0-0.6-0.3-1.1-0.6-1.5L-22.4,90.9z M-44.1,93.7c0.1,0.8,0.5,1.5,1.1,1.8l-9.1,28.4
			c-0.2-0.1-0.5-0.1-0.8-0.1c-0.2,0-0.3,0.1-0.4,0.1l-7.5-21.9L-44.1,93.7z M-53.7,124.1c-0.5,0.3-0.9,0.9-1,1.6l-35.3-7.4
			c0-0.3,0.1-0.6,0-0.9c0-0.2-0.1-0.4-0.1-0.7l28.9-14.6L-53.7,124.1z M-61.3,101.8l-28.9,14.6c-0.1-0.3-0.2-0.5-0.4-0.7L-68.2,85
			c0.3,0.3,0.6,0.4,1,0.3c0.1,0,0.2,0,0.3-0.1L-61.3,101.8z M-91.1,120.3c0.4-0.4,0.8-0.9,1-1.5l35.4,7.4c0,0.1,0,0.3,0,0.4
			c0,0,0,0,0,0l-25.2,5.8L-91.1,120.3z M-121.5,144.8c0.7-0.5,1.1-1.4,1-2.4c0,0,0,0,0,0l40.5-9.4l24.7,27c-0.8,0.2-1.4,1.2-1.3,2.2
			c0,0.4,0.1,0.7,0.3,1l-13.9,15.5l-21.9-8c0-0.2,0-0.3,0-0.5c-0.1-1.1-0.8-1.8-1.7-1.8c-0.9,0.1-1.5,1-1.4,2.1c0,0.5,0.3,1,0.6,1.3
			l-9.3,18.4L-121.5,144.8z M-104,191.3l6.8,17.7c-1,0.2-1.7,1.3-1.6,2.6c0,0.4,0.1,0.7,0.3,1l-28.8,26.4c-0.1-0.2-0.3-0.4-0.5-0.6
			L-104,191.3z"/>
		
			<linearGradient id="SVGID_4_" gradientUnits="userSpaceOnUse" x1="-202.1902" y1="479.9222" x2="124.389" y2="479.9222" gradientTransform="matrix(0.3143 0.9493 -0.9493 0.3143 466.6777 -23.6089)">
			<stop  offset="1.212120e-02" style="stop-color:#D3D3D3"/>
			<stop  offset="1" style="stop-color:#C6C6C6"/>
		</linearGradient>
		<path fill="url(#SVGID_4_)" d="M89.1,228.5c-0.5-1.9-2.1-2.9-3.7-2.3c-0.5,0.2-0.9,0.5-1.2,0.9l-27.3-28.7
			c0.3-0.6,0.5-1.4,0.3-2.1c-0.2-0.7-0.7-1.3-1.2-1.5c1.4-7.4,4.8-25.9,8.4-45.8l7.7,2c0,0.3,0,0.6,0.1,0.9c0.3,1.1,1.2,1.7,2.1,1.3
			c0.9-0.4,1.4-1.5,1.1-2.6c-0.1-0.5-0.4-0.9-0.7-1.1l11.3-30.8c0.4,0.2,0.9,0.2,1.4,0c1.1-0.5,1.7-2,1.4-3.4s-1.6-2.1-2.7-1.7
			c-1.1,0.5-1.7,2-1.4,3.4c0.1,0.2,0.2,0.5,0.3,0.7l-18.2,18.8c4-22.4,7.8-43.9,8.8-51.1c0.2,0,0.4,0,0.7-0.1c1-0.4,1.6-1.8,1.2-3.1
			c-0.3-1.3-1.4-2-2.5-1.5c-0.6,0.3-1.1,0.9-1.3,1.7l-59-11.7c0-0.3,0-0.5,0-0.8l28.5-13.3c0.4,0.9,1.2,1.3,2,1
			c0.9-0.4,1.4-1.5,1.1-2.6c-0.1-0.4-0.3-0.7-0.5-0.9L74.5,0.9c0.5,0.3,1.1,0.4,1.6,0.2c1.1-0.4,1.7-1.9,1.3-3.3
			c-0.4-1.4-1.5-2.1-2.6-1.6c-0.9,0.4-1.4,1.4-1.4,2.5L34.2,3.4c0-0.1,0-0.3-0.1-0.4c-0.4-1.6-1.9-2.5-3.2-2c-1.3,0.5-2,2.3-1.6,4
			c0,0,0,0.1,0,0.1L7,18.1c-0.1-0.2-0.2-0.4-0.4-0.5l19.2-41.2c0.4,0.2,0.8,0.2,1.2,0.1c0.9-0.4,1.4-1.5,1.1-2.6
			c-0.3-1.1-1.2-1.7-2.1-1.3c-0.9,0.4-1.4,1.5-1.1,2.6c0,0.1,0.1,0.2,0.1,0.3L0.2-5l-15.4-66.2c0.3,0,0.5,0,0.8-0.1
			c1.2-0.5,1.9-2.1,1.5-3.7c-0.4-1.5-1.7-2.3-3-1.8c-1.2,0.5-1.9,2.1-1.5,3.7c0.1,0.4,0.3,0.8,0.5,1.1l-34.8,47.6l-28.5-14.3
			c0.1-0.6,0.1-1.2,0-1.8c-0.4-1.5-1.7-2.3-3-1.8c-1.2,0.5-1.9,2.1-1.5,3.7c0.3,1.2,1.2,2,2.2,2L-95,35.4c-0.2,0-0.3,0-0.5,0.1
			c-0.7,0.3-1.1,1.2-0.8,2c0.2,0.8,1,1.3,1.6,1c0.1,0,0.2-0.1,0.3-0.1l26.6,40.3c-0.6,0.7-0.8,1.8-0.6,2.8c0.1,0.5,0.4,0.9,0.7,1.3
			l-19.7,64.9c-0.4-0.2-0.9-0.2-1.4,0c-1.2,0.5-1.9,2.1-1.5,3.7c0.4,1.5,1.7,2.3,3,1.8c0.3-0.1,0.5-0.3,0.7-0.5l35.5,7.7l0-0.1
			c0.5,0.3,1.1,0.4,1.6,0.2l-0.2,0.1l10.4,18.2l-11.7,10.6c-0.4-0.5-1-0.8-1.6-0.5c-0.8,0.3-1.3,1.4-1,2.4c0.3,1,1.2,1.6,2,1.2
			c0.3-0.1,0.6-0.4,0.8-0.7l29.2,20c-0.2,0.7-0.3,1.5-0.1,2.2c0.4,1.6,1.8,2.5,3.1,1.9c1.3-0.5,2-2.3,1.6-3.9
			c-0.1-0.3-0.2-0.6-0.4-0.9l7-16l16.5,46.3c-0.9,0.6-1.3,1.9-1,3.1c0.4,1.4,1.5,2.1,2.6,1.6c1.1-0.4,1.7-1.9,1.3-3.3
			c-0.1-0.2-0.1-0.4-0.2-0.6l32-31.7l42.7,18.1c-0.1,0.7-0.1,1.4,0,2.1c0.5,1.9,2.1,2.9,3.7,2.3C88.8,232.4,89.6,230.4,89.1,228.5z
			 M23.9,201.9c-0.2-0.7-0.7-1.2-1.2-1.3l1.3-27.9l29.2,25.1l-12.4,12.3l-16.8-7.1C24,202.6,24,202.3,23.9,201.9z M55.5,194.6
			c-0.3,0-0.6,0-0.9,0.1c-0.9,0.4-1.5,1.5-1.3,2.7L24,172.1l1.4-30.7c0.2,0,0.5-0.1,0.7-0.2c0.6-0.2,1.1-0.7,1.4-1.4L49.6,153
			c-0.1,0.2,0,0.5,0,0.7c0.2,0.7,0.8,1,1.3,0.8c0.5-0.2,0.8-1,0.7-1.6c0-0.1,0-0.2-0.1-0.2L57,147l6.9,1.8
			C61,165.1,58,181.6,55.5,194.6z M-10.3,194.1l-10.2-28.7c0.9-0.6,1.3-1.9,1-3.1c-0.4-1.3-1.5-2.1-2.6-1.6c-0.7,0.3-1.2,1-1.4,1.8
			l-24.4-4.4c0-0.3,0-0.6-0.1-0.9c-0.2-0.8-0.8-1.4-1.4-1.7l3.9-24.6c0.2,0,0.4,0,0.6-0.1c0.8-0.3,1.2-1.3,1-2.2l34.6-14.3
			c0.3,0.8,1,1.2,1.7,0.9c0.3-0.1,0.5-0.3,0.7-0.6L23.2,137c-0.3,0.7-0.3,1.5-0.1,2.3c0.1,0.3,0.2,0.6,0.3,0.8L8.1,156.3
			c-0.4-0.5-1.1-0.7-1.7-0.5c-0.9,0.4-1.4,1.5-1.1,2.6l-0.2-0.1L-10.3,194.1z M-44.9,127.2l12.8-53.7l0.3,0.4L-32,73
			c0.2,0,0.4,0,0.7-0.1c0.4-0.2,0.7-0.5,0.9-1l12.8,4.7c-0.1,0.5-0.1,1,0.1,1.5c0.4,1.6,1.8,2.4,3,1.9c1.3-0.5,1.9-2.2,1.5-3.8
			c-0.4-1.4-1.5-2.2-2.7-2l-11-55.6c0.8-0.4,1.2-1.4,0.9-2.4c0-0.1-0.1-0.1-0.1-0.2L0-4.3l5.1,21.6c-0.7,0.4-1.1,1.4-0.9,2.4
			c0.2,0.8,0.8,1.3,1.5,1.3l5.9,49.8l0,0.3l0.2-0.1c0.1,0.3,0.3,0.5,0.5,0.7l-20,40.1c-0.3-0.2-0.7-0.2-1-0.1c-0.7,0.3-1.1,1.1-1,2
			l-34.6,14.3C-44.3,127.7-44.6,127.4-44.9,127.2z M-28.6,18c0.3,0.7,0.9,1,1.5,0.9l11,55.6c-0.7,0.3-1.2,1-1.5,1.7l-12.8-4.7
			c0-0.3,0-0.5-0.1-0.8c-0.2-0.9-1.1-1.4-1.8-1.1c-0.1,0-0.1,0.1-0.2,0.1l-12.4-89.2c0,0,0,0,0,0l16.2,37.9L-28.6,18z M-47.9-21.5
			c0.2,0.8,0.7,1.4,1.3,1.8L-70.3,7.8l-1-1.8c0.5-0.6,0.7-1.5,0.5-2.4c-0.1-0.3-0.2-0.6-0.4-0.8L-51.5-24l3.5,1.7
			C-48-22-48-21.7-47.9-21.5z M-72,6.5c0.1,0,0.2-0.1,0.3-0.2l1.1,1.8l-22,25.6l19-27.5C-73.1,6.6-72.5,6.7-72,6.5z M-46.3-19.5
			c0.3,0.1,0.7,0.2,1.1,0.1L-32.8,70c-0.2,0.2-0.3,0.5-0.4,0.9L-70,8.2L-46.3-19.5z M51.3,152.3c-0.3-0.3-0.6-0.4-1-0.2
			c-0.2,0.1-0.4,0.3-0.5,0.5l-22.1-13.1c0-0.1,0-0.2,0.1-0.2l28.8,7.6L51.3,152.3z M66,137.7c-0.6,3.5-1.3,7-1.9,10.6l-6.6-1.8
			L66,137.7z M8.6,157.1c0-0.2-0.1-0.3-0.2-0.5l15.2-16.1c0.4,0.5,0.9,0.8,1.4,0.9l-1.4,30.4l-15.1-13
			C8.7,158.3,8.8,157.7,8.6,157.1z M85.1,118c0.1,0.2,0.3,0.3,0.5,0.4l-11.3,30.7c-0.3-0.1-0.7-0.1-1,0c-0.5,0.2-0.9,0.7-1.1,1.3
			l-7.7-2c0.7-3.7,1.4-7.5,2-11.2L85.1,118z M66.1,137l-9.2,9.5l-29.1-7.7c0-0.4,0-0.9-0.1-1.4c-0.1-0.3-0.2-0.6-0.4-0.9l46.8-51.8
			c0.3,0.3,0.6,0.5,0.9,0.6C74.1,92.1,70.4,113.3,66.1,137z M73.5,82.8c0,0.3,0,0.6,0.1,0.9c0.1,0.2,0.2,0.5,0.3,0.7l-46.8,51.8
			c-0.6-0.8-1.6-1.1-2.5-0.7c-0.5,0.2-0.9,0.6-1.2,1.1l-30.2-22.5c0.1-0.4,0.2-0.8,0-1.2c-0.1-0.3-0.2-0.6-0.4-0.8l20-40.1
			c0.3,0.1,0.6,0.1,0.8,0c0.4-0.2,0.7-0.5,0.8-0.9L73.5,82.8z M45.4,53.7c-0.4-0.2-0.9-0.3-1.3-0.1c-0.8,0.3-1.3,1.4-1.1,2.5
			L14.7,69.3L74.2,0.6c0,0,0,0,0.1,0.1L45.4,53.7z M73.5-0.9c0,0.1,0,0.2,0.1,0.3c0.1,0.3,0.2,0.5,0.3,0.8L14.3,69.1
			c-0.1-0.1-0.2-0.2-0.3-0.3L31.1,7c0.5,0.1,0.9,0.1,1.4-0.1c1.1-0.4,1.8-1.7,1.7-3L73.5-0.9z M30.7,6.8L13.6,68.6
			c-0.3-0.1-0.6-0.1-0.9,0c-0.4,0.2-0.7,0.5-0.9,1L6.1,21c0,0,0,0,0.1,0c0.8-0.3,1.3-1.4,1-2.4l22.3-13C29.8,6.1,30.2,6.6,30.7,6.8z
			 M25.2-24.2c0.1,0.1,0.2,0.3,0.3,0.4L6.3,17.4c-0.3-0.1-0.5-0.2-0.8-0.1L0.3-4.5L25.2-24.2z M-0.1-4.7L-26,15.8
			c-0.4-0.6-1.1-0.9-1.7-0.6c-0.2,0.1-0.3,0.2-0.5,0.3l12.7-86.1L-0.1-4.7z M-16.6-71.8c0.2,0.2,0.5,0.4,0.8,0.5l-13,88.2
			l-15.6-36.6c1-0.7,1.6-2.2,1.2-3.7c-0.4-1.6-1.8-2.5-3.1-1.9c-1,0.4-1.6,1.4-1.7,2.6l-3.2-1.6L-16.6-71.8z M-82-36.9
			c0.1,0,0.2-0.1,0.4-0.1c0.6-0.3,1.1-0.8,1.4-1.4l28.4,14.3L-71.5,2.6c-0.5-0.4-1.1-0.6-1.6-0.3c-1,0.4-1.5,1.7-1.2,2.8
			c0.1,0.3,0.2,0.6,0.4,0.8l-20.5,29.7c-0.1-0.1-0.1-0.1-0.2-0.1L-82-36.9z M-94.1,38.1c0.3-0.4,0.4-1,0.3-1.6
			c0-0.1-0.1-0.3-0.2-0.4l23.6-27.6l37.2,63.2c0,0,0,0.1,0,0.1c0.1,0.4,0.3,0.7,0.6,0.9l0.2,0.3l-12.9,54c-0.2,0-0.5,0-0.7,0.1
			c0,0,0,0-0.1,0l-19-44.2c0.8-0.7,1.2-1.9,0.9-3.2c-0.4-1.4-1.6-2.2-2.8-1.7c-0.2,0.1-0.4,0.2-0.5,0.3L-94.1,38.1z M-65.5,83.2
			c0.1,0,0.1-0.1,0.2-0.1l19,44.2c-0.5,0.5-0.8,1.3-0.6,2.1l-9.5,4.8l-10.7-51.2C-66.7,83.4-66.1,83.5-65.5,83.2z M-67.5,83.7
			l10.7,50.7l-29,14.7c-0.2-0.6-0.6-1-1.1-1.3L-67.5,83.7z M-86.2,152.3c0.5-0.7,0.7-1.8,0.4-2.7l29-14.7l4.7,22.3
			c-0.1,0.5-0.1,1,0,1.6c0.1,0.4,0.3,0.7,0.5,1L-86.2,152.3z M-56.4,134.7l9.5-4.8c0.2,0.4,0.5,0.7,0.9,0.9l-3.9,24.6
			c-0.3,0-0.6,0-0.9,0.1c-0.5,0.2-0.8,0.6-1.1,1L-56.4,134.7z M-49.2,160.3c0.6-0.3,1-1,1.2-1.7l24.4,4.4c0,0.3,0,0.6,0.1,0.9
			c0,0.2,0.1,0.3,0.2,0.5l-15.5,14L-49.2,160.3z M-23.1,164.9c0.4,0.5,0.9,0.8,1.5,0.9l2.3,44.2c-0.2,0-0.5,0.1-0.7,0.2
			c-0.2,0.1-0.3,0.2-0.5,0.3l-18-31.5L-23.1,164.9z M-39,179.1l18,31.5c-0.2,0.2-0.3,0.4-0.5,0.7l-29.2-20c0.1-0.4,0.2-0.9,0-1.3
			c0-0.1-0.1-0.2-0.1-0.3L-39,179.1z M-17.6,210.8c-0.4-0.4-0.9-0.7-1.4-0.8l-2.3-44.3c0.1,0,0.2,0,0.3-0.1c0,0,0,0,0,0l10.3,29
			L-17.6,210.8z M8.6,241.9c-0.5-0.7-1.4-1-2.1-0.7c0,0,0,0,0,0l-16.6-46.6l15.6-35.9c0.4,0.9,1.2,1.4,2,1.1
			c0.3-0.1,0.5-0.3,0.7-0.6l15.3,13.2l-1.3,28.2c-0.1,0-0.3,0-0.4,0.1c-0.8,0.3-1.3,1.4-1,2.4c0.3,1,1.2,1.6,2,1.2
			c0.4-0.2,0.7-0.5,0.9-1l16.6,7L8.6,241.9z M41.2,210.2L53.5,198c0.4,1.1,1.4,1.7,2.4,1.3c0.3-0.1,0.5-0.3,0.7-0.6L84,227.5
			c-0.1,0.2-0.3,0.5-0.3,0.7L41.2,210.2z"/>
		
			<linearGradient id="SVGID_5_" gradientUnits="userSpaceOnUse" x1="3551.6021" y1="651.6608" x2="3680.946" y2="438.7875" gradientTransform="matrix(0.8496 0.5274 -0.5274 0.8496 -2670.5693 -2173.7358)">
			<stop  offset="2.424240e-02" style="stop-color:#D4D4D4"/>
			<stop  offset="1" style="stop-color:#D3D3D3"/>
		</linearGradient>
		<path fill="url(#SVGID_5_)" d="M-0.5,324.6c1.5-0.8,2.2-2.9,1.6-4.7c-0.2-0.6-0.5-1-0.8-1.4l21.2-35.8c0.5,0.4,1.1,0.5,1.7,0.2
			c0.6-0.3,1-0.9,1.1-1.6c6.1,1.2,21.2,4.1,37.5,7.1l-1.1,9.6c-0.2,0-0.5,0-0.7,0.2c-0.9,0.4-1.3,1.7-0.9,2.7
			c0.4,1.1,1.3,1.6,2.2,1.1c0.4-0.2,0.7-0.6,0.9-1l25.6,11.7c-0.1,0.5-0.1,1.1,0.1,1.7c0.5,1.4,1.7,2,2.8,1.4
			c1.1-0.6,1.6-2.1,1.2-3.5c-0.5-1.4-1.7-2-2.8-1.4c-0.2,0.1-0.4,0.2-0.5,0.4l-16.5-21.1c18.3,3.4,36,6.5,41.8,7.2
			c0,0.3,0.1,0.5,0.1,0.8c0.4,1.2,1.6,1.8,2.5,1.3c1-0.5,1.5-1.9,1.1-3.2c-0.3-0.8-0.8-1.3-1.4-1.4l5.2-73.7c0.2,0,0.4,0,0.6-0.1
			l12.8,34.3c-0.7,0.5-1,1.6-0.7,2.6c0.4,1.1,1.3,1.6,2.2,1.1c0.3-0.2,0.5-0.4,0.7-0.7l44.9,31.8c-0.2,0.6-0.3,1.4,0,2
			c0.4,1.3,1.7,1.9,2.7,1.4c1.1-0.5,1.6-2,1.1-3.4c-0.4-1.1-1.2-1.7-2.1-1.6l-6.7-48.2c0.1,0,0.2-0.1,0.3-0.1
			c1.3-0.7,1.9-2.5,1.4-4.1c-0.5-1.6-2-2.4-3.3-1.7c0,0-0.1,0-0.1,0.1l-12.1-26.6c0.2-0.1,0.3-0.3,0.4-0.5l34.6,20.7
			c-0.1,0.5-0.1,1,0,1.5c0.4,1.1,1.3,1.6,2.2,1.1c0.9-0.4,1.3-1.7,0.9-2.7c-0.4-1.1-1.3-1.6-2.2-1.1c-0.1,0-0.1,0.1-0.2,0.1
			l-17.6-29.1l52.2-23.9c0,0.3,0.1,0.7,0.2,1c0.5,1.5,1.9,2.2,3.1,1.6c1.2-0.6,1.8-2.3,1.3-3.8c-0.5-1.5-1.9-2.2-3.1-1.6
			c-0.3,0.2-0.6,0.4-0.8,0.7l-40.8-39.5l9.5-36.3c0.5,0.1,1,0.1,1.4-0.1c1.2-0.6,1.8-2.3,1.3-3.8c-0.5-1.5-1.9-2.2-3.1-1.6
			c-0.9,0.5-1.5,1.7-1.4,2.9l-59.1-10.2c0-0.2,0-0.4-0.1-0.6c-0.3-0.8-1-1.2-1.7-0.9c-0.7,0.3-1,1.3-0.7,2.1c0,0.1,0.1,0.2,0.1,0.3
			L108.9,120c-0.6-0.7-1.5-0.9-2.3-0.5c-0.4,0.2-0.7,0.5-1,0.9l-53.7-19.6c0.1-0.5,0.1-1.1-0.1-1.7c-0.5-1.5-1.9-2.2-3.1-1.6
			c-1.2,0.6-1.8,2.3-1.3,3.8c0.1,0.3,0.3,0.6,0.4,0.8l-3.6,44.4l0.1,0c-0.2,0.6-0.2,1.3,0,2l-0.1-0.2l-13.9,14.2L21,148.9
			c0.4-0.5,0.5-1.3,0.3-2c-0.3-1-1.2-1.5-2-1c-0.8,0.4-1.2,1.5-0.8,2.5c0.1,0.4,0.4,0.7,0.6,0.9L5,186.7c-0.6-0.3-1.2-0.3-1.8,0
			c-1.3,0.6-1.9,2.4-1.3,4c0.5,1.6,2,2.3,3.2,1.7c0.3-0.1,0.5-0.3,0.7-0.5l13.4,7.4L-16.9,223c-0.5-1-1.6-1.4-2.5-1
			c-1.1,0.5-1.6,2.1-1.1,3.4c0.4,1.3,1.7,1.9,2.7,1.4c0.2-0.1,0.3-0.2,0.5-0.3l27.9,37.2l-11.5,54c-0.5-0.1-1.1-0.1-1.7,0.2
			c-1.5,0.8-2.2,2.9-1.6,4.7C-3.6,324.4-1.9,325.3-0.5,324.6z M16.2,242.1c0.5-0.3,0.9-0.9,0.9-1.6l22.6-0.4l-18.1,37.8l-10.8-14.4
			l4.5-21.3C15.7,242.3,16,242.3,16.2,242.1z M24.4,280.7c0-0.3,0-0.7-0.1-1.1c-0.4-1.1-1.4-1.7-2.3-1.4l18.2-38.1l24.8-0.5
			c0,0.3,0.1,0.6,0.2,0.9c0.2,0.7,0.7,1.3,1.2,1.6l-8.9,28.2c-0.2,0-0.4,0-0.6,0.1c-0.5,0.3-0.8,1-0.6,1.7c0.2,0.7,0.8,1,1.4,0.7
			c0.1,0,0.1-0.1,0.2-0.1l5,6.4l-1,8.7C48.6,285.3,35.1,282.7,24.4,280.7z M20.1,199.3l22.4-14.7c0.5,1,1.6,1.4,2.5,1
			c1.1-0.5,1.6-2.1,1.1-3.4c-0.3-0.9-0.9-1.4-1.6-1.5l1.8-30.5c0.3,0,0.5-0.1,0.8-0.2c0.7-0.3,1.1-1,1.2-1.8l20.1,3
			c0,0.2,0,0.5,0.1,0.7c0.3,0.9,1.1,1.4,1.9,1.1l14,41.6c-0.6,0.4-0.9,1.4-0.6,2.2c0.1,0.3,0.3,0.6,0.5,0.8l-15.9,38.9
			c-0.6-0.3-1.3-0.3-1.9,0c-0.2,0.1-0.5,0.3-0.6,0.5l-14.1-17.6c0.4-0.6,0.5-1.4,0.2-2.1c-0.4-1.1-1.3-1.6-2.2-1.1l0.1-0.2
			L20.1,199.3z M71.5,151.8l44.2,11.9l-0.3,0.4l0.7-0.2c0,0.3,0,0.5,0.1,0.8c0.2,0.5,0.5,0.8,0.8,1l-2.9,16.2
			c-0.4-0.1-0.8,0-1.2,0.2c-1.2,0.6-1.8,2.4-1.3,3.9c0.5,1.5,1.9,2.2,3.1,1.6c1.1-0.6,1.7-2,1.4-3.4l44-17.6c0.4,0.9,1.2,1.4,2,1
			c0.1,0,0.1-0.1,0.2-0.1l18.4,30.4l-17.1,7.8c-0.4-0.9-1.2-1.3-2-0.9c-0.6,0.3-1,1.1-0.9,2l-39.7,10.9l-0.2,0.1l0.1,0.3
			c-0.2,0.2-0.4,0.4-0.5,0.7l-33.7-21.8c0.1-0.4,0.1-0.8,0-1.3c-0.3-0.8-1-1.3-1.7-1l-14-41.6C71.1,152.6,71.3,152.2,71.5,151.8z
			 M160.6,164c-0.5,0.4-0.8,1.2-0.6,1.9l-44,17.6c-0.3-0.9-0.9-1.5-1.5-1.7l2.9-16.2c0.2,0,0.4,0,0.7-0.1c0.7-0.4,1.1-1.4,0.8-2.3
			c0-0.1-0.1-0.2-0.1-0.3l71-21.8c0,0,0,0,0,0L160.3,164L160.6,164z M191,137.3c-0.6,0.3-1.1,0.9-1.3,1.7l-23.9-27.1l1.3-1.4
			c0.5,0.6,1.3,0.8,2,0.5c0.2-0.1,0.4-0.3,0.6-0.5l23.1,22.3l-1.2,4.4C191.4,137.1,191.2,137.2,191,137.3z M166.7,109.6
			c0,0.1,0.1,0.3,0.2,0.4l-1.4,1.4l-22.3-25.3l23.6,21.5C166.6,108.2,166.5,109,166.7,109.6z M189.6,139.5c-0.1,0.4-0.1,0.9,0,1.3
			l-71.2,21.8c-0.2-0.2-0.5-0.4-0.7-0.4l47.8-50.1L189.6,139.5z M58.2,272.3c0.2-0.3,0.3-0.8,0.1-1.2c-0.1-0.3-0.2-0.5-0.4-0.6
			l8.9-28.2c0.1,0,0.1,0,0.2,0.1l-4,36.1L58.2,272.3z M71,289.5c-2.9-0.5-5.8-1.1-8.7-1.6l0.9-8.3L71,289.5z M51.2,220
			c0.1-0.1,0.3-0.2,0.4-0.3l14.1,17.6c-0.4,0.5-0.6,1.1-0.6,1.8l-24.6,0.5l9.4-19.6C50.3,220.2,50.8,220.3,51.2,220z M88.3,311.6
			c-0.1,0.2-0.2,0.4-0.3,0.6l-25.6-11.7c0.1-0.4,0.1-0.9-0.1-1.3c-0.2-0.6-0.6-1.1-1.1-1.2l1.1-9.6c3,0.6,6.1,1.1,9.2,1.7
			L88.3,311.6z M71.6,289.6l-8.3-10.7l4.1-36.5c0.4,0,0.7,0,1.1-0.2c0.3-0.1,0.5-0.3,0.7-0.5l45.2,54c-0.2,0.3-0.4,0.7-0.4,1.2
			C108.3,296.2,91,293.1,71.6,289.6z M115.8,294.8c-0.2,0-0.5,0.1-0.7,0.2c-0.2,0.1-0.4,0.2-0.5,0.4l-45.2-54c0.6-0.8,0.7-2,0.4-3.1
			c-0.2-0.6-0.6-1.1-1-1.4l15.9-38.9c0.3,0.1,0.7,0.1,1,0c0.3-0.1,0.5-0.4,0.6-0.6l33.8,21.8c-0.1,0.3,0,0.7,0.1,1
			c0.2,0.5,0.4,0.8,0.8,1L115.8,294.8z M137.2,257.9c0.2-0.5,0.2-1.1,0-1.6c-0.3-1-1.2-1.5-2.1-1.2l-12.7-33.9l59.7,68.4
			c0,0,0,0.1-0.1,0.1L137.2,257.9z M183.2,288.7c-0.1,0-0.2,0.1-0.3,0.1c-0.2,0.1-0.4,0.3-0.6,0.5l-59.9-68.6
			c0.1-0.1,0.2-0.2,0.2-0.4l51.1,16.6c-0.1,0.6,0,1.2,0.1,1.8c0.4,1.3,1.5,2,2.6,1.9L183.2,288.7z M173.9,236.4l-51-16.6
			c0.1-0.3,0-0.7-0.1-1.1c-0.2-0.5-0.5-0.8-0.9-1l38.8-10.7c0,0,0,0.1,0,0.1c0.3,1,1.2,1.4,2,1l12.1,26.6
			C174.4,235.2,174.1,235.8,173.9,236.4z M198.5,227.3c-0.1,0.1-0.2,0.3-0.3,0.4L163.7,207c0.1-0.3,0.1-0.7,0-1l17.2-7.9
			L198.5,227.3z M181,197.5L162.6,167c0.4-0.5,0.6-1.4,0.4-2.1c-0.1-0.2-0.2-0.4-0.3-0.6l70.3,9.5L181,197.5z M233.8,172.3
			c-0.2,0.3-0.3,0.7-0.3,1l-72-9.7l28.4-22c0.6,1.2,1.9,1.8,3,1.2c1.3-0.6,1.9-2.4,1.3-4c-0.4-1.2-1.3-1.9-2.2-1.9l1.1-4.1
			L233.8,172.3z M201,94.1c0,0.1,0.1,0.3,0.1,0.4c0.2,0.7,0.7,1.3,1.3,1.6l-9.4,36.1L170,110c0.3-0.6,0.4-1.4,0.1-2
			c-0.4-1.2-1.4-1.7-2.4-1.2c-0.3,0.1-0.5,0.3-0.6,0.6l-25.4-23.2c0-0.1,0.1-0.2,0.1-0.3L201,94.1z M139.7,84.6
			c0.4,0.3,0.8,0.5,1.3,0.2c0.1-0.1,0.2-0.1,0.3-0.2l23.9,27.2L117,162.3c0,0-0.1,0-0.1,0c-0.3,0.2-0.6,0.4-0.7,0.8l-0.2,0.2
			l-44.5-12c0-0.3,0-0.6-0.1-0.9c0,0,0,0,0-0.1l34.3-26.6c0.6,1,1.7,1.4,2.6,0.9c1.1-0.6,1.7-2.2,1.2-3.6c-0.1-0.2-0.2-0.5-0.3-0.7
			L139.7,84.6z M105.4,123.1c0,0.1,0,0.1,0.1,0.2L71.2,150c-0.4-0.6-1.1-0.9-1.7-0.6L64.9,138l40.4-17
			C105.2,121.7,105.1,122.4,105.4,123.1z M104.9,120.7l-40.1,16.8l-13.9-34.8c0.5-0.3,0.8-0.8,1-1.4L104.9,120.7z M48.2,102.6
			c0.6,0.6,1.5,0.7,2.2,0.4l13.9,34.7l-17.6,7.4c-0.4-0.1-0.8-0.1-1.2,0.1c-0.3,0.2-0.6,0.4-0.8,0.7L48.2,102.6z M64.6,138.2
			l4.6,11.4c-0.3,0.3-0.6,0.7-0.6,1.1l-20.1-3c0-0.3,0-0.7-0.2-1.1c-0.2-0.6-0.5-1-0.9-1.3L64.6,138.2z M44.5,148.8
			c0.3,0.7,0.9,1.2,1.5,1.3l-1.8,30.5c-0.3,0-0.5,0.1-0.8,0.2c-0.1,0.1-0.3,0.2-0.4,0.3L30.6,163L44.5,148.8z M42.7,181.4
			c-0.4,0.5-0.6,1.2-0.6,1.9l-35.5,6c0-0.3-0.1-0.6-0.2-0.9c-0.1-0.2-0.2-0.4-0.3-0.6l24.1-24.6L42.7,181.4z M30,162.9L5.9,187.5
			c-0.2-0.2-0.4-0.4-0.6-0.5l14-37.5c0.3,0.1,0.7,0.1,1.1,0c0.1,0,0.2-0.1,0.3-0.2L30,162.9z M6.1,191.5c0.3-0.5,0.5-1.1,0.6-1.7
			l35.5-6c0,0.1,0.1,0.3,0.1,0.4c0,0,0,0,0,0l-22.7,14.9L6.1,191.5z M-17.1,226.2c0.5-0.7,0.7-1.8,0.4-2.7c0,0,0,0,0,0l36.4-23.9
			l30.1,16.7c-0.7,0.5-1,1.6-0.7,2.6c0.1,0.4,0.3,0.6,0.5,0.9L40,239.6l-22.8,0.4c0-0.2,0-0.3-0.1-0.5c-0.3-1-1.2-1.5-2-1
			c-0.8,0.4-1.2,1.5-0.8,2.5c0.2,0.5,0.5,0.9,0.9,1.1l-4.5,21L-17.1,226.2z M10.8,264.1l10.8,14.4c-0.9,0.6-1.3,1.9-0.9,3
			c0.1,0.3,0.3,0.6,0.5,0.9L0,318.2c-0.2-0.2-0.4-0.3-0.6-0.4L10.8,264.1z"/>
		
			<linearGradient id="SVGID_6_" gradientUnits="userSpaceOnUse" x1="1050.1754" y1="-80.0769" x2="1190.2876" y2="-310.6724" gradientTransform="matrix(-0.4229 0.9062 -0.9062 -0.4229 308.919 -717.8985)">
			<stop  offset="1.212120e-02" style="stop-color:#E6E6E6"/>
			<stop  offset="1" style="stop-color:#EAEAEA"/>
		</linearGradient>
		<path fill="url(#SVGID_6_)" d="M-105.5,250.7c0.8,1.7,2.6,2.3,4,1.4c0.4-0.3,0.8-0.7,1-1.2l31.3,21.8c-0.2,0.7-0.2,1.5,0.1,2.1
			c0.3,0.7,0.9,1.1,1.4,1.2c-0.2,7.6-0.7,26.6-1.2,47l-7.9-0.2c0-0.3-0.1-0.6-0.2-0.8c-0.5-1-1.5-1.4-2.3-0.8
			c-0.8,0.6-1.1,1.8-0.6,2.8c0.2,0.5,0.5,0.8,0.9,0.9l-6.4,32.9c-0.5-0.1-0.9,0-1.4,0.3c-1,0.7-1.4,2.3-0.8,3.6
			c0.6,1.3,1.9,1.7,2.9,1c1-0.7,1.4-2.3,0.8-3.6c-0.1-0.2-0.2-0.4-0.4-0.6l15-22.8c-0.5,22.9-0.9,45-0.8,52.3
			c-0.2,0-0.4,0.1-0.6,0.3c-0.9,0.7-1.3,2.1-0.7,3.3c0.5,1.2,1.7,1.6,2.7,0.9c0.6-0.4,0.9-1.2,1-1.9l59.7-2.4c0,0.3,0,0.5,0.1,0.8
			l-26,19.8c-0.5-0.8-1.4-1-2.1-0.5c-0.8,0.6-1.1,1.8-0.6,2.8c0.2,0.3,0.4,0.6,0.6,0.8l-20.2,58.9c-0.5-0.2-1.1-0.2-1.6,0.2
			c-1,0.7-1.4,2.3-0.8,3.5c0.6,1.2,1.8,1.7,2.8,1c0.8-0.6,1.2-1.7,1-2.7l37.8-13.9c0,0.1,0.1,0.3,0.2,0.4c0.7,1.5,2.2,2,3.4,1.2
			c1.2-0.8,1.7-2.8,1-4.3c0,0,0-0.1-0.1-0.1l19.9-18.1c0.1,0.2,0.3,0.3,0.4,0.4l-12.5,45c-0.4-0.1-0.8,0-1.2,0.2
			c-0.8,0.6-1.1,1.8-0.6,2.8c0.5,1,1.5,1.4,2.3,0.8c0.8-0.6,1.1-1.8,0.6-2.8c0-0.1-0.1-0.2-0.1-0.2l21.3-25L43,520.3
			c-0.3,0.1-0.5,0.2-0.8,0.3c-1.1,0.8-1.5,2.6-0.9,3.9c0.6,1.4,2.1,1.9,3.2,1.1c1.1-0.8,1.5-2.5,0.9-3.9c-0.2-0.4-0.4-0.7-0.7-0.9
			L71.6,466l30.2,7.3c-0.1,0.6,0,1.2,0.3,1.7c0.6,1.4,2.1,1.9,3.2,1.1c1.1-0.8,1.5-2.5,0.9-3.9c-0.5-1.1-1.5-1.6-2.5-1.4l1.2-73.9
			c0.2,0,0.3-0.1,0.5-0.2c0.6-0.4,0.8-1.4,0.5-2.2c-0.4-0.8-1.1-1.1-1.8-0.6c-0.1,0.1-0.2,0.1-0.2,0.2l-32.3-33.3
			c0.5-0.8,0.5-2,0.1-2.9c-0.2-0.5-0.5-0.8-0.9-1.1l9.4-68.3c0.5,0,0.9-0.1,1.3-0.4c1.1-0.8,1.5-2.5,0.9-3.9
			c-0.6-1.4-2.1-1.9-3.2-1.1c-0.2,0.2-0.4,0.4-0.6,0.6l-36.1,0.9l0,0.1c-0.5-0.2-1.1-0.1-1.6,0.2l0.1-0.2l-13-15.4l9.9-13.1
			c0.5,0.4,1.1,0.5,1.7,0.1c0.8-0.5,1-1.7,0.6-2.6c-0.4-0.9-1.4-1.3-2.1-0.7c-0.3,0.2-0.5,0.5-0.6,0.9L5.7,241.1
			c0.1-0.7,0.1-1.5-0.2-2.2c-0.7-1.5-2.2-2-3.4-1.2c-1.2,0.8-1.6,2.7-0.9,4.2c0.1,0.3,0.3,0.5,0.5,0.8L-2.7,260L-26,218.4
			c0.7-0.8,1-2.1,0.5-3.2c-0.6-1.2-1.8-1.7-2.8-1c-1,0.7-1.4,2.3-0.8,3.5c0.1,0.2,0.2,0.4,0.3,0.5l-26.5,38.7l-44.7-7.7
			c0-0.7-0.1-1.4-0.4-2c-0.8-1.7-2.6-2.3-4-1.4C-105.8,246.8-106.3,249-105.5,250.7z M-37.4,261.4c0.3,0.6,0.8,1,1.4,1l3,27.7
			l-32.5-17.8l10.3-15l17.6,3C-37.6,260.8-37.5,261.1-37.4,261.4z M-67.4,276.1c0.3,0,0.6-0.1,0.8-0.3c0.9-0.6,1.2-1.9,0.9-3
			l32.7,17.9l3.3,30.5c-0.2,0.1-0.5,0.2-0.7,0.3c-0.5,0.4-0.9,1-1.1,1.7l-23.7-7.6c0-0.2,0-0.5-0.1-0.7c-0.3-0.6-0.9-0.8-1.4-0.5
			c-0.5,0.3-0.7,1.1-0.4,1.8c0,0.1,0.1,0.1,0.1,0.2l-4.5,6.9l-7.1-0.2C-68.2,306.3-67.7,289.4-67.4,276.1z M-2.6,261.1l14.4,25.8
			c-0.7,0.8-1,2.1-0.5,3.2c0.6,1.2,1.8,1.7,2.8,1c0.6-0.4,1-1.3,1.1-2.1l24.7-1.4c0,0.3,0.1,0.6,0.2,0.9c0.3,0.8,1,1.2,1.6,1.3
			l0,25.1c-0.2,0-0.4,0.1-0.6,0.2c-0.7,0.5-1,1.5-0.7,2.4L8.8,339.7c-0.4-0.7-1.2-0.9-1.8-0.5c-0.2,0.2-0.4,0.4-0.6,0.7L-26.7,325
			c0.2-0.8,0.1-1.6-0.2-2.3c-0.1-0.3-0.3-0.5-0.5-0.7l12.5-19.4c0.5,0.4,1.2,0.4,1.7,0.1c0.8-0.6,1.1-1.8,0.6-2.8l0.2,0.1
			L-2.6,261.1z M41.6,318.6l-4.3,55.7L37,374l0.3,0.9c-0.2,0-0.4,0.1-0.6,0.2c-0.4,0.3-0.6,0.7-0.7,1.1l-13.3-1.6
			c0-0.5-0.1-1-0.3-1.5c-0.7-1.4-2.1-1.9-3.3-1.1c-1.2,0.8-1.6,2.6-0.9,4.1c0.6,1.3,1.8,1.8,2.9,1.3l19.4,52
			c-0.7,0.5-0.9,1.7-0.5,2.6c0,0.1,0.1,0.1,0.1,0.2l-22.2,26.2l-8.3-20c0.7-0.6,0.9-1.7,0.5-2.5c-0.3-0.8-1-1.1-1.7-0.9l-13.5-47.5
			l-0.1-0.3l-0.2,0.2c-0.2-0.3-0.4-0.5-0.6-0.6l13.5-44c0.3,0.1,0.7,0,1-0.2c0.6-0.4,0.9-1.4,0.6-2.2l31.7-22.2
			C40.9,318.2,41.3,318.5,41.6,318.6z M42.4,429.6c-0.4-0.6-1-0.8-1.6-0.6l-19.4-51.9c0.6-0.5,1.1-1.2,1.2-2.1l13.3,1.6
			c0,0.3,0.1,0.5,0.2,0.8c0.4,0.9,1.3,1.2,1.9,0.7c0.1,0,0.1-0.1,0.2-0.2l25.9,84.7c0,0,0,0,0,0l-21.7-33.4L42.4,429.6z M67.5,463.8
			c-0.3-0.7-0.9-1.2-1.5-1.5l18.9-32.5l1.3,1.5c-0.4,0.7-0.5,1.6-0.1,2.5c0.1,0.3,0.3,0.5,0.5,0.7l-15.1,31l-3.7-0.9
			C67.7,464.3,67.6,464,67.5,463.8z M86.8,430.7c-0.1,0.1-0.2,0.2-0.3,0.3l-1.3-1.5l17.7-30.4l-14.4,31.5
			C87.9,430.3,87.3,430.3,86.8,430.7z M65.6,462.3c-0.4,0-0.7,0-1.1,0.2l-26-84.9c0.1-0.3,0.2-0.6,0.2-0.9l45.9,52.8L65.6,462.3z
			 M-56.6,316.6c0.3,0.2,0.7,0.2,1,0c0.2-0.1,0.3-0.3,0.4-0.6l23.7,7.6c0,0.1,0,0.2,0,0.2l-29.4-0.7L-56.6,316.6z M-68.8,334.4
			c0.1-3.6,0.2-7.2,0.3-10.9l6.8,0.2L-68.8,334.4z M-15.5,301.8c0.1,0.2,0.2,0.3,0.3,0.4l-12.5,19.4c-0.4-0.4-1-0.6-1.5-0.5
			l-3.3-30.2l16.9,9.2C-15.8,300.7-15.7,301.3-15.5,301.8z M-84.6,358.3c-0.2-0.1-0.3-0.2-0.5-0.3l6.4-32.9c0.3,0.1,0.7,0,1-0.2
			c0.5-0.3,0.8-0.9,0.8-1.5l7.9,0.2c-0.1,3.8-0.2,7.7-0.3,11.5L-84.6,358.3z M-68.9,335.2l7.6-11.5l29.8,0.7c0,0.4,0.1,0.9,0.3,1.3
			c0.1,0.3,0.3,0.6,0.5,0.8l-38,61.9c-0.3-0.2-0.6-0.3-1-0.4C-69.8,381.1-69.4,359.4-68.9,335.2z M-67.8,390.1
			c0-0.3-0.1-0.6-0.2-0.9c-0.1-0.2-0.2-0.4-0.4-0.6l38-61.9c0.7,0.6,1.7,0.7,2.5,0.1c0.5-0.3,0.8-0.8,1-1.4l33.1,14.9
			c-0.1,0.4,0,0.8,0.1,1.2c0.1,0.3,0.3,0.5,0.6,0.7l-13.5,44.1c-0.3,0-0.6,0-0.8,0.2c-0.3,0.2-0.6,0.6-0.7,1.1L-67.8,390.1z
			 M-35.7,412c0.4,0.2,0.9,0.1,1.3-0.2c0.8-0.5,1.1-1.7,0.7-2.7L-8,389.5L-55.8,471c0,0,0,0-0.1-0.1L-35.7,412z M-54.9,472.2
			c0-0.1-0.1-0.2-0.1-0.3c-0.1-0.3-0.3-0.5-0.4-0.7l47.9-81.7c0.1,0.1,0.2,0.2,0.3,0.2l-7.3,64.7c-0.5,0-1,0.1-1.4,0.4
			c-1,0.7-1.5,2.1-1.2,3.4L-54.9,472.2z M-14.1,454.6l7.3-64.7c0.3,0,0.6,0,0.9-0.2c0.4-0.3,0.6-0.7,0.7-1.2l13.2,46.4
			c0,0,0,0-0.1,0c-0.7,0.5-1,1.7-0.6,2.6l-19.9,18.1C-13,455.1-13.5,454.7-14.1,454.6z M-3.9,483.7c-0.1-0.1-0.2-0.2-0.3-0.3
			l12.5-45c0.3,0.1,0.6,0.1,0.8-0.1l8.3,20.2L-3.9,483.7z M18,458.7l22.3-26.3c0.5,0.5,1.2,0.6,1.7,0.2c0.2-0.1,0.3-0.3,0.4-0.4
			l0.7,87.5L18,458.7z M44.4,520.6c-0.3-0.2-0.6-0.3-0.9-0.3l-0.8-89.6l21,32.3c-0.9,0.9-1.2,2.6-0.6,3.9c0.7,1.5,2.2,2,3.4,1.2
			c0.9-0.6,1.3-1.8,1.3-2.9l3.4,0.8L44.4,520.6z M103.3,470.9c-0.1,0.1-0.2,0.1-0.3,0.2c-0.6,0.4-0.9,1-1.1,1.7l-30.1-7.3l15.1-30.8
			c0.5,0.3,1.1,0.3,1.7-0.1c0.9-0.6,1.2-2,0.7-3.1c-0.1-0.3-0.3-0.5-0.5-0.7l15.6-34c0.1,0,0.2,0.1,0.2,0.1L103.3,470.9z
			 M103.6,394.5c-0.2,0.5-0.3,1.1,0,1.6c0.1,0.1,0.1,0.3,0.2,0.4l-19,32.6l-46.2-53.3c0,0,0-0.1,0-0.1c-0.2-0.4-0.4-0.6-0.7-0.8
			l-0.2-0.2l4.3-56.1c0.2,0,0.5-0.1,0.7-0.2c0,0,0,0,0.1,0l25.4,38.9c-0.7,0.8-0.9,2.2-0.4,3.3c0.6,1.3,1.9,1.8,3,1
			c0.2-0.1,0.3-0.3,0.5-0.5L103.6,394.5z M68.7,356.9c-0.1,0-0.1,0.1-0.1,0.1l-25.4-38.9c0.4-0.6,0.6-1.4,0.3-2.2l8.6-6.9l18.4,47.7
			C69.8,356.4,69.2,356.5,68.7,356.9z M70.5,356l-18.3-47.3l26.3-21.3c0.3,0.5,0.8,0.9,1.3,1L70.5,356z M78.3,284.2
			c-0.4,0.8-0.4,1.9,0,2.8l-26.2,21.2l-8-20.8c0-0.5,0-1-0.3-1.5c-0.2-0.4-0.4-0.6-0.6-0.9L78.3,284.2z M51.8,308.5l-8.6,7
			c-0.3-0.4-0.6-0.6-1-0.7l0-25.1c0.3,0,0.6-0.1,0.8-0.3c0.4-0.3,0.7-0.7,0.9-1.3L51.8,308.5z M40.8,285.1c-0.5,0.5-0.9,1.2-0.9,2
			l-24.7,1.4c0-0.3-0.1-0.6-0.2-0.9c-0.1-0.2-0.2-0.3-0.3-0.5l13.1-17.4L40.8,285.1z M14.5,286.8c-0.5-0.4-1-0.6-1.6-0.5l-9-42.9
			c0.2-0.1,0.5-0.2,0.7-0.3c0.2-0.1,0.3-0.2,0.4-0.4l22.6,26.7L14.5,286.8z M27.8,269L5.2,242.3c0.2-0.2,0.3-0.5,0.4-0.8l31.7,12.7
			c-0.1,0.4,0,0.9,0.2,1.3c0,0.1,0.1,0.2,0.2,0.3L27.8,269z M2,242.9c0.4,0.3,1,0.5,1.5,0.5l9,43c-0.1,0-0.2,0.1-0.3,0.2l0,0
			l-14.6-26.1L2,242.9z M-28.5,218.6c0.6,0.5,1.5,0.6,2.2,0.1c0,0,0,0,0,0l23.5,41.9l-9.8,38.9c-0.5-0.8-1.4-1.1-2.2-0.6
			c-0.3,0.2-0.5,0.5-0.6,0.8l-17.1-9.3l-3.1-28c0.1,0,0.2-0.1,0.4-0.2c0.8-0.5,1-1.7,0.6-2.6c-0.4-0.9-1.4-1.3-2.1-0.7
			c-0.4,0.3-0.6,0.7-0.7,1.2l-17.4-3L-28.5,218.6z M-55.7,257.4l-10.2,14.9c-0.6-1-1.7-1.3-2.5-0.7c-0.3,0.2-0.5,0.4-0.6,0.7
			l-31.3-21.8c0.1-0.3,0.2-0.5,0.2-0.8L-55.7,257.4z"/>
		
			<linearGradient id="SVGID_7_" gradientUnits="userSpaceOnUse" x1="823.5379" y1="-52.2385" x2="973.0711" y2="-298.3389" gradientTransform="matrix(-0.9227 0.3854 -0.3854 -0.9227 932.9404 -416.9972)">
			<stop  offset="1.212120e-02" style="stop-color:#E6E6E6"/>
			<stop  offset="1" style="stop-color:#EAEAEA"/>
		</linearGradient>
		<path fill="url(#SVGID_7_)" d="M154.2-98.6c-0.4,1.9,0.6,3.9,2.2,4.3c0.5,0.1,0.9,0.1,1.4,0l11.3,42.2c-0.5,0.3-1,0.9-1.1,1.7
			c-0.1,0.8,0,1.5,0.4,2.1c-4.3,5.4-15,19-26.5,33.7l-5.7-6.7c0.1-0.2,0.2-0.5,0.3-0.8c0.2-1.1-0.4-2.3-1.3-2.5
			c-0.9-0.3-1.8,0.4-2,1.6c-0.1,0.5,0,1,0.2,1.4l-22.6,19c-0.3-0.4-0.7-0.8-1.2-0.9c-1.2-0.3-2.3,0.6-2.6,2
			c-0.3,1.4,0.5,2.9,1.6,3.2c1.2,0.3,2.3-0.6,2.6-2c0-0.3,0.1-0.5,0.1-0.8l23.5-4.4c-12.9,16.5-25.2,32.5-29,38
			c-0.2-0.1-0.4-0.3-0.6-0.3c-1-0.3-2.1,0.5-2.3,1.8c-0.2,1.3,0.4,2.6,1.5,2.9c0.7,0.2,1.3-0.1,1.8-0.6l45.5,48
			c-0.1,0.2-0.2,0.4-0.3,0.7l-30-7c0.1-1-0.5-1.9-1.3-2.2c-0.9-0.3-1.8,0.4-2,1.6c-0.1,0.4,0,0.8,0,1.1l-47,26.8
			c-0.3-0.6-0.7-1.1-1.3-1.2c-1.1-0.3-2.2,0.5-2.5,1.9c-0.3,1.4,0.4,2.8,1.6,3.1c0.9,0.3,1.8-0.3,2.2-1.2l35.6,21.2
			c0,0.1-0.1,0.3-0.1,0.4c-0.3,1.7,0.5,3.4,1.9,3.8c1.4,0.4,2.7-0.7,3-2.3c0,0,0-0.1,0-0.1l24.6,3.3c0,0.2,0,0.5,0.1,0.7l-33.7,22.8
			c-0.2-0.4-0.6-0.7-1-0.8c-0.9-0.3-1.8,0.4-2,1.6c-0.2,1.1,0.4,2.2,1.3,2.5c0.9,0.3,1.8-0.4,2-1.6c0-0.1,0-0.2,0-0.3L132,158
			l-14.6,66.5c-0.2-0.2-0.5-0.3-0.7-0.4c-1.3-0.4-2.5,0.6-2.8,2.2c-0.3,1.6,0.5,3.1,1.8,3.5c1.3,0.4,2.5-0.6,2.8-2.2
			c0.1-0.4,0.1-0.8,0-1.2l49.7-18.2l18.4,30.6c-0.4,0.4-0.6,0.9-0.7,1.5c-0.3,1.6,0.5,3.1,1.8,3.5c1.3,0.4,2.5-0.6,2.8-2.2
			c0.2-1.2-0.2-2.5-1-3.1l41-53.6c0.1,0.1,0.3,0.2,0.4,0.2c0.7,0.2,1.4-0.3,1.6-1.2c0.2-0.9-0.3-1.7-1-1.9c-0.1,0-0.2,0-0.3,0
			l-5.8-51.5c0.8-0.2,1.5-1,1.7-2c0.1-0.5,0.1-1-0.1-1.5L271,84c0.3,0.4,0.7,0.7,1.2,0.9c1.3,0.4,2.5-0.6,2.8-2.2
			c0.3-1.6-0.5-3.1-1.8-3.5c-0.3-0.1-0.5-0.1-0.8-0.1l-27.1-29.4l0,0.1c-0.3-0.6-0.7-1-1.3-1.2l0.2,0l-1.2-22.2l14.5-1.5
			c0.1,0.7,0.6,1.3,1.2,1.5c0.8,0.2,1.7-0.4,1.9-1.4c0.2-1-0.3-2.1-1.2-2.3c-0.3-0.1-0.7,0-0.9,0.1l-16.5-35.9
			c0.5-0.4,0.9-1.1,1-1.8c0.3-1.6-0.5-3.3-1.9-3.7c-1.3-0.4-2.7,0.6-3,2.3c-0.1,0.3-0.1,0.7-0.1,1l-12.7,9.2l5.4-50.1
			c1,0,1.9-0.8,2.1-2c0.3-1.4-0.4-2.8-1.6-3.1c-1.1-0.3-2.2,0.5-2.5,1.9c0,0.2-0.1,0.4,0,0.7l-40.6,6.5l-28.9-42.9
			c0.4-0.5,0.7-1.1,0.8-1.8c0.4-1.9-0.6-3.9-2.2-4.3C156.2-101.8,154.6-100.6,154.2-98.6z M198.8-34c-0.1,0.7,0.1,1.4,0.5,1.9
			l-12.8,23l-14.4-40.2l15.7-2.5l11.4,16.9C199-34.6,198.8-34.3,198.8-34z M168.7-48.1c0.2,0.2,0.5,0.4,0.8,0.5
			c1,0.3,1.9-0.4,2.2-1.5l14.5,40.5L172,16.7c-0.2-0.1-0.4-0.3-0.7-0.3c-0.6-0.2-1.2,0-1.7,0.3L156.3-8.7c0.1-0.2,0.2-0.4,0.3-0.6
			c0.1-0.7-0.2-1.4-0.8-1.5c-0.6-0.2-1.1,0.3-1.2,1c0,0.1,0,0.2,0,0.2l-7.1,1.3l-5.2-6C151.6-26.4,161.1-38.6,168.7-48.1z
			 M224.7-5.2l-3.3,31.1c-1,0-1.9,0.8-2.1,2c-0.3,1.4,0.4,2.8,1.6,3.1c0.7,0.2,1.4-0.1,1.9-0.7l19,19.5c-0.1,0.3-0.3,0.5-0.3,0.9
			c-0.2,0.9,0,1.7,0.5,2.3l-13.7,18.5c-0.2-0.1-0.3-0.2-0.5-0.3c-0.8-0.2-1.5,0.3-1.8,1.2l-35.5-10c0.1-0.9-0.4-1.7-1.1-1.9
			c-0.3-0.1-0.6,0-0.8,0.1l-16.4-38.6c0.5-0.4,0.9-1.1,1.1-1.9c0.1-0.3,0.1-0.6,0.1-0.9l19.8-3.9c0.2,0.7,0.6,1.3,1.2,1.5
			c0.9,0.3,1.8-0.4,2-1.6l0.1,0.2L224.7-5.2z M226.1,74.1l-33.5,37.6l0-0.5l-0.3,0.9c-0.2-0.2-0.4-0.3-0.6-0.4
			c-0.4-0.1-0.8,0-1.1,0.3l-9-12.3c0.3-0.4,0.5-0.8,0.6-1.4c0.3-1.6-0.5-3.2-1.8-3.6c-1.3-0.4-2.6,0.6-2.9,2.2
			c-0.3,1.4,0.4,2.9,1.4,3.4L165,155c-0.8-0.2-1.6,0.4-1.8,1.5c0,0.1,0,0.2,0,0.2l-30.7,0.8l4.8-21.7c0.8,0.1,1.6-0.5,1.7-1.5
			c0.2-0.8-0.2-1.7-0.7-2.1l15.9-46.4l0.1-0.3l-0.2-0.1c0-0.3,0-0.7-0.1-1l33.9-21.3c0.2,0.3,0.5,0.6,0.8,0.7
			c0.7,0.2,1.4-0.3,1.7-1.1l35.5,10C225.8,73.3,225.9,73.8,226.1,74.1z M166.3,156.9c0-0.8-0.3-1.5-0.9-1.8l13.9-54.5
			c0.7,0.2,1.5,0,2-0.5l9,12.3c-0.1,0.2-0.3,0.5-0.3,0.7c-0.2,1,0.3,1.9,1.1,2.1c0.1,0,0.2,0,0.2,0l-26.9,84.2c0,0,0,0,0,0l2.1-42.8
			L166.3,156.9z M166.2,203.1c0.2-0.8,0-1.7-0.3-2.3l31.7-8.3l0.1,2.2c-0.7,0.2-1.3,0.8-1.4,1.7c-0.1,0.3-0.1,0.6,0,0.9l-28.1,10.3
			l-2.2-3.7C166.1,203.6,166.2,203.3,166.2,203.1z M198.5,194.6c-0.1,0-0.2-0.1-0.4-0.1l-0.1-2.2l29.6-7.7l-27.8,11.3
			C199.5,195.3,199.1,194.8,198.5,194.6z M165.7,200.3c-0.2-0.3-0.5-0.6-0.9-0.8l27-84.4c0.3-0.1,0.5-0.2,0.7-0.5l5.2,77.3
			L165.7,200.3z M154.6-9.2c0.1,0.4,0.4,0.7,0.7,0.8c0.2,0.1,0.4,0,0.6-0.1l13.4,25.4c-0.1,0-0.1,0.1-0.1,0.2L147.7-8L154.6-9.2z
			 M135.8-6.2c2-2.6,4.1-5.2,6.1-7.8l4.9,5.8L135.8-6.2z M193,14.1c0,0.2,0,0.4,0,0.6l-19.8,3.9c-0.1-0.6-0.4-1.2-0.8-1.6l14-25
			l7.5,20.9C193.4,13.1,193.1,13.5,193,14.1z M111.2-1.7c0-0.2-0.1-0.4-0.2-0.7l22.6-19c0.2,0.3,0.5,0.6,0.9,0.7
			c0.5,0.2,1.1,0,1.5-0.4l5.7,6.7c-2.1,2.7-4.3,5.5-6.5,8.3L111.2-1.7z M135.4-5.7l11.8-2.2l21.6,25.3c-0.2,0.3-0.4,0.8-0.5,1.2
			c-0.1,0.3-0.1,0.7,0,1l-61.8,14.1c-0.1-0.4-0.3-0.8-0.5-1.1C109.7,27.5,121.8,11.8,135.4-5.7z M106.3,35.8
			c0.1-0.2,0.2-0.5,0.3-0.8c0-0.2,0.1-0.5,0-0.7l61.8-14.1c0.2,1.1,0.9,1.9,1.8,2.2c0.5,0.2,1.1,0.1,1.5-0.2l16.4,38.6
			c-0.3,0.2-0.5,0.6-0.6,1c-0.1,0.3,0,0.7,0,1l-34,21.4c-0.2-0.3-0.4-0.4-0.7-0.5c-0.4-0.1-0.8,0-1.1,0.2L106.3,35.8z M118.1,78.8
			c0.2,0.5,0.6,0.8,1.1,0.9c0.9,0.2,1.7-0.4,2-1.4l29.7,6.9l-79.6,20.4c0,0,0-0.1,0-0.1L118.1,78.8z M71.2,107.3
			c0-0.1,0.1-0.2,0.1-0.3c0.1-0.3,0.1-0.6,0-0.9l79.9-20.5c0,0.2,0.1,0.3,0.1,0.4l-40.6,41.8c-0.3-0.4-0.7-0.7-1.2-0.9
			c-1.1-0.3-2.2,0.3-2.8,1.5L71.2,107.3z M111,128.3l40.5-41.8c0.2,0.3,0.4,0.5,0.7,0.6c0.4,0.1,0.8,0,1.1-0.3L137.9,132
			c0,0,0,0-0.1,0c-0.8-0.2-1.7,0.4-1.9,1.4l-24.6-3.3C111.5,129.5,111.3,128.8,111,128.3z M102.7,158.3c0-0.2-0.1-0.3-0.1-0.5
			l33.7-22.8c0.2,0.3,0.4,0.5,0.7,0.7l-4.8,21.9L102.7,158.3z M132.4,158l30.8-0.8c0.1,0.8,0.5,1.4,1.2,1.6c0.2,0.1,0.4,0.1,0.5,0
			l-47,65.3L132.4,158z M118.3,225.8c-0.1-0.4-0.3-0.7-0.5-0.9L166,158l-2,41.3c-1.2-0.1-2.3,0.9-2.6,2.4c-0.3,1.6,0.5,3.3,1.9,3.7
			c1,0.3,2-0.2,2.5-1.1l2.1,3.4L118.3,225.8z M188.9,238.2c-0.1-0.1-0.2-0.1-0.3-0.1c-0.6-0.2-1.3,0-1.8,0.4l-18.3-30.5l27.9-10.2
			c0.2,0.6,0.7,1.2,1.3,1.3c1,0.3,2-0.5,2.2-1.7c0.1-0.3,0.1-0.7,0-1l30-12.2c0,0.1,0.1,0.2,0.1,0.3L188.9,238.2z M230.7,181.9
			c-0.4,0.2-0.8,0.6-0.9,1.2c0,0.2,0,0.3,0,0.5l-31.8,8.3l-5.2-77.9c0,0,0-0.1,0-0.1c0.1-0.4,0-0.8-0.1-1.2l0-0.3l33.7-37.9
			c0.2,0.2,0.4,0.3,0.7,0.4c0,0,0,0,0.1,0l-2.4,50c-1,0-1.9,0.9-2.1,2.1c-0.3,1.5,0.5,2.9,1.7,3.3c0.2,0.1,0.4,0.1,0.6,0.1
			L230.7,181.9z M225.3,125c-0.1,0-0.1,0-0.2,0l2.4-50c0.6-0.1,1.2-0.6,1.4-1.4l10.1,2l-12.3,50.6
			C226.4,125.6,225.9,125.1,225.3,125z M227.2,125.8l12.2-50.2l31,6.2c0,0.7,0.1,1.3,0.4,1.8L227.2,125.8z M272,79.3
			c-0.7,0.3-1.3,1.1-1.5,2l-30.9-6.1l5.4-22.1c0.3-0.3,0.5-0.8,0.6-1.3c0.1-0.4,0.1-0.8,0-1.2L272,79.3z M239.1,75.1l-10.2-2
			c0-0.5-0.1-1-0.4-1.3l13.7-18.5c0.2,0.2,0.5,0.4,0.8,0.5c0.5,0.1,0.9,0.1,1.3-0.2L239.1,75.1z M243.7,48.7
			c-0.7-0.1-1.3,0.2-1.7,0.7l-19-19.5c0.1-0.3,0.3-0.5,0.3-0.9c0-0.2,0-0.4,0.1-0.6l19.1-2L243.7,48.7z M223.4,28
			c-0.1-0.7-0.4-1.3-0.9-1.7L239.1-13c0.2,0.1,0.4,0.3,0.7,0.3c0.2,0.1,0.4,0.1,0.5,0.1l2.2,38.6L223.4,28z M242.9,26l-2.2-38.5
			c0.2,0,0.5-0.1,0.7-0.3L257.9,23c-0.3,0.3-0.5,0.6-0.6,1.1c0,0.1,0,0.2,0,0.4L242.9,26z M238-14.8c0.1,0.6,0.4,1.2,0.8,1.6
			L222.1,26c-0.1-0.1-0.2-0.1-0.3-0.1c0,0,0,0,0,0l3.4-31.5L238-14.8z M228.6-58.3c0.2,0.9,0.7,1.7,1.6,1.9c0,0,0,0,0,0l-5.4,50.5
			l-28.5,20.6c0.1-1-0.5-2-1.3-2.2c-0.3-0.1-0.6-0.1-0.9,0l-7.6-21.1l13-23.3c0.1,0.1,0.2,0.1,0.4,0.2c0.8,0.2,1.7-0.4,1.9-1.4
			c0.2-1-0.3-2.1-1.2-2.3c-0.4-0.1-0.8,0-1.2,0.3l-11.2-16.7L228.6-58.3z M187.5-52.2l-15.7,2.5c0.1-1.2-0.5-2.4-1.5-2.6
			c-0.3-0.1-0.6-0.1-0.9,0l-11.3-42.2c0.2-0.1,0.4-0.2,0.6-0.4L187.5-52.2z"/>
		
			<linearGradient id="SVGID_8_" gradientUnits="userSpaceOnUse" x1="123.6628" y1="416.3503" x2="228.8716" y2="321.3519" gradientTransform="matrix(0.3143 0.9493 -0.9493 0.3143 466.6777 -23.6089)">
			<stop  offset="1.212120e-02" style="stop-color:#E6E6E6"/>
			<stop  offset="1" style="stop-color:#D5D5D5"/>
		</linearGradient>
		<path fill="url(#SVGID_8_)" d="M35,49.8c0.1,2,1.5,3.5,3.1,3.3c0.5,0,0.9-0.2,1.3-0.5l20.9,36.1c-0.4,0.5-0.7,1.2-0.7,2
			c0,0.8,0.4,1.4,0.9,1.8c-2.8,6.8-9.7,23.7-17.1,41.9l-7.1-4.3c0.1-0.3,0.1-0.6,0.1-0.9c-0.1-1.2-0.9-2-1.8-1.9
			c-0.9,0.1-1.6,1.1-1.6,2.2c0,0.5,0.2,1,0.5,1.3l-17,26.5c-0.4-0.3-0.8-0.5-1.3-0.4c-1.2,0.1-2.1,1.4-2,2.8
			c0.1,1.5,1.1,2.6,2.3,2.4c1.2-0.1,2.1-1.4,2-2.8c0-0.3-0.1-0.5-0.1-0.7l21.4-12.8c-8.3,20.5-16.2,40.3-18.5,47
			c-0.2-0.1-0.4-0.1-0.7-0.1c-1.1,0.1-1.9,1.3-1.8,2.6c0.1,1.3,1,2.3,2.1,2.2c0.7-0.1,1.3-0.6,1.6-1.2l55,29
			c-0.1,0.2-0.1,0.5-0.1,0.8L46,230.4c-0.2-1-0.9-1.7-1.8-1.6c-0.9,0.1-1.6,1.1-1.6,2.2c0,0.4,0.1,0.7,0.3,1L4.6,275
			c-0.4-0.5-1-0.7-1.6-0.7c-1.1,0.1-2,1.3-1.9,2.8c0.1,1.4,1.1,2.5,2.2,2.4c0.9-0.1,1.6-0.9,1.9-2l39.1,7.1c0,0.1,0,0.3,0,0.5
			c0.1,1.7,1.3,3,2.7,2.9c1.4-0.1,2.4-1.6,2.3-3.4c0,0,0-0.1,0-0.1l24.2-6c0.1,0.2,0.1,0.4,0.3,0.6l-26.7,34.2
			c-0.3-0.3-0.7-0.5-1.1-0.4c-0.9,0.1-1.6,1.1-1.6,2.2c0.1,1.2,0.9,2,1.8,1.9c0.9-0.1,1.6-1.1,1.6-2.2c0-0.1,0-0.2,0-0.3L75.6,303
			l2.1,68.8c-0.3-0.1-0.5-0.1-0.8-0.1c-1.3,0.1-2.3,1.5-2.2,3.1c0.1,1.6,1.2,2.8,2.5,2.7c1.3-0.1,2.3-1.5,2.2-3.1
			c0-0.4-0.1-0.8-0.3-1.2l43-35.7l24.9,22.4c-0.2,0.5-0.4,1.1-0.3,1.7c0.1,1.6,1.2,2.8,2.5,2.7c1.3-0.1,2.3-1.5,2.2-3.1
			c-0.1-1.3-0.8-2.3-1.7-2.6l26.3-66.3c0.2,0.1,0.3,0.1,0.5,0.1c0.7-0.1,1.3-0.8,1.2-1.7c-0.1-0.9-0.7-1.6-1.4-1.5
			c-0.1,0-0.2,0-0.3,0.1l-17.9-47.1c0.7-0.5,1.2-1.5,1.1-2.6c0-0.5-0.2-1-0.4-1.4l31.8-57.1c0.4,0.3,0.9,0.4,1.3,0.4
			c1.3-0.1,2.3-1.5,2.2-3.1c-0.1-1.6-1.2-2.8-2.5-2.7c-0.3,0-0.5,0.1-0.8,0.2l-33-18.1l0,0.1c-0.4-0.4-0.9-0.7-1.5-0.6l0.2-0.1
			l-6.5-20.8l13.4-6.8c0.3,0.6,0.9,1,1.5,1c0.9-0.1,1.5-1,1.4-2.1c-0.1-1.1-0.8-1.9-1.7-1.8c-0.3,0-0.6,0.2-0.9,0.4l-24.4-28.1
			c0.4-0.6,0.6-1.3,0.5-2.1c-0.1-1.7-1.3-2.9-2.7-2.8c-1.4,0.1-2.4,1.6-2.3,3.3c0,0.3,0.1,0.7,0.2,0.9l-9.9,13.4L118.1,62
			c0.9-0.3,1.6-1.4,1.5-2.7c-0.1-1.4-1.1-2.5-2.2-2.4c-1.1,0.1-2,1.3-1.9,2.8c0,0.2,0.1,0.4,0.1,0.7L78.3,81.6L40.4,51.3
			c0.3-0.6,0.4-1.3,0.4-2c-0.1-2-1.5-3.5-3.1-3.3C36.1,46.1,34.9,47.8,35,49.8z M93.1,95.1c0,0.7,0.4,1.3,0.9,1.6l-6.7,26.7
			L63.9,90.4l14.4-8.2l14.9,12C93.1,94.4,93.1,94.7,93.1,95.1z M60.9,92.7c0.3,0.1,0.5,0.2,0.9,0.2c1-0.1,1.7-1.1,1.8-2.2L87.1,124
			l-7.4,29.3c-0.2-0.1-0.5-0.1-0.7-0.1c-0.6,0.1-1.2,0.4-1.6,0.9l-18.9-19.3c0.1-0.2,0.1-0.5,0.1-0.7c0-0.7-0.5-1.2-1.1-1.2
			c-0.6,0.1-1,0.7-1,1.4c0,0.1,0,0.2,0,0.2l-6.5,3.9l-6.4-3.9C49.9,119.7,56,104.6,60.9,92.7z M124.7,112.9l4.3,30.9
			c-0.9,0.3-1.6,1.4-1.5,2.7c0.1,1.4,1.1,2.5,2.2,2.4c0.7-0.1,1.4-0.6,1.7-1.4l22.8,11.6c-0.1,0.3-0.1,0.6-0.1,0.9
			c0.1,0.9,0.5,1.6,1,2l-8.6,22.7c-0.2-0.1-0.4-0.1-0.6-0.1c-0.8,0.1-1.4,0.9-1.4,1.8l-36.3,3.5c-0.1-0.8-0.8-1.5-1.5-1.4
			c-0.3,0-0.5,0.2-0.8,0.4l-24.9-30.8c0.4-0.6,0.6-1.4,0.6-2.2c0-0.3-0.1-0.6-0.2-0.9l17.9-11c0.3,0.6,0.9,1,1.5,0.9
			c0.9-0.1,1.6-1.1,1.6-2.2l0.1,0.2L124.7,112.9z M145.2,188.2l-22.9,48.3l-0.2-0.5l-0.1,0.9c-0.2-0.1-0.4-0.2-0.6-0.1
			c-0.4,0-0.8,0.3-1,0.7l-11.5-8.4c0.2-0.5,0.3-1,0.2-1.5c-0.1-1.6-1.3-2.9-2.6-2.7c-1.3,0.1-2.3,1.6-2.2,3.2c0.1,1.5,1,2.6,2.2,2.7
			l-0.2,57.2c-0.8,0.1-1.4,1-1.4,2.1c0,0.1,0,0.2,0,0.2l-29.1,12.1l-0.7-22.5c0.8-0.2,1.4-1,1.3-2c-0.1-0.9-0.6-1.5-1.2-1.7l4-50.1
			l0-0.3l-0.3,0c-0.1-0.3-0.2-0.6-0.4-0.9l27.2-32.9c0.3,0.3,0.6,0.4,1,0.4c0.7-0.1,1.3-0.8,1.3-1.7l36.3-3.5
			C144.7,187.5,144.9,187.9,145.2,188.2z M108,289.3c-0.2-0.7-0.7-1.3-1.3-1.4l0.2-57.2c0.7-0.1,1.4-0.6,1.8-1.3l11.5,8.4
			c-0.1,0.2-0.1,0.5-0.1,0.8c0.1,1,0.7,1.7,1.5,1.6c0.1,0,0.2,0,0.2,0l-5.4,90.3c0,0,0,0,0,0l-8.3-41.6L108,289.3z M119.1,333.3
			c-0.1-0.9-0.4-1.6-0.9-2.1l28.3-19.6l0.7,2c-0.6,0.4-1,1.2-1,2.2c0,0.3,0.1,0.6,0.2,0.9l-24.3,20.2l-3-2.7
			C119.1,333.9,119.1,333.6,119.1,333.3z M147.9,313.4c-0.1,0-0.2,0-0.4,0.1l-0.7-2.1l26.4-18.3l-23.8,21
			C149,313.6,148.5,313.3,147.9,313.4z M117.9,330.9c-0.3-0.2-0.7-0.4-1-0.4l5.4-90.5c0.2-0.2,0.4-0.4,0.5-0.7l23.5,71.9
			L117.9,330.9z M56.8,135c0.2,0.3,0.5,0.6,0.9,0.5c0.2,0,0.4-0.1,0.6-0.3l18.9,19.3c0,0.1-0.1,0.1-0.1,0.2l-26.5-16L56.8,135z
			 M39.7,144.8c1.3-3.2,2.6-6.5,3.9-9.7l6.1,3.7L39.7,144.8z M99.1,143.1c0,0.2,0,0.4,0.1,0.5l-17.9,11c-0.3-0.6-0.7-1-1.2-1.3
			l7.3-29.1l12.1,17.2C99.3,142,99.1,142.5,99.1,143.1z M17.3,158.2c-0.1-0.2-0.2-0.4-0.4-0.5l17-26.4c0.3,0.2,0.6,0.3,1,0.3
			c0.6-0.1,1-0.4,1.3-1l7.1,4.3c-1.4,3.4-2.8,6.8-4.2,10.3L17.3,158.2z M39.4,145.5l10.8-6.5l26.7,16.2c-0.1,0.4-0.2,0.9-0.2,1.3
			c0,0.3,0.1,0.7,0.2,1l-55.6,36.3c-0.2-0.4-0.5-0.6-0.8-0.8C22.9,186.6,30.6,167.1,39.4,145.5z M21.6,195.8
			c0.1-0.3,0.1-0.6,0.1-0.9c0-0.3-0.1-0.5-0.1-0.7l55.6-36.3c0.5,0.9,1.3,1.5,2.3,1.4c0.5-0.1,1-0.3,1.4-0.7l24.9,30.8
			c-0.2,0.3-0.3,0.7-0.3,1.2c0,0.3,0.1,0.7,0.3,0.9l-27.3,32.9c-0.2-0.2-0.5-0.3-0.8-0.2c-0.4,0-0.7,0.3-1,0.6L21.6,195.8z
			 M43.3,232.5c0.3,0.4,0.8,0.6,1.2,0.5c0.9-0.1,1.5-1,1.5-2.1l30-4.3L4.9,275.4c0,0,0-0.1,0-0.1L43.3,232.5z M5.3,277
			c0-0.1,0-0.2,0-0.3c0-0.3-0.1-0.6-0.2-0.8l71.3-49c0.1,0.1,0.1,0.3,0.2,0.4L48,282.1c-0.4-0.3-0.9-0.4-1.4-0.4
			c-1.1,0.1-2,1.1-2.3,2.4L5.3,277z M48.3,282.3L77,227.5c0.2,0.2,0.5,0.3,0.8,0.3c0.4,0,0.8-0.3,1-0.7L75,276c0,0,0,0-0.1,0
			c-0.9,0.1-1.5,1-1.4,2.1L49.2,284C49.1,283.3,48.8,282.8,48.3,282.3z M47.6,314.1c-0.1-0.2-0.1-0.3-0.2-0.4l26.7-34.2
			c0.2,0.2,0.5,0.3,0.8,0.4l0.7,22.6L47.6,314.1z M76,302.8l29.2-12.2c0.3,0.7,0.9,1.1,1.5,1.1c0.2,0,0.4-0.1,0.5-0.2L78,371.3
			L76,302.8z M78.8,372.8c-0.2-0.3-0.4-0.5-0.7-0.7l29.9-81.6l8,40.2c-1.1,0.4-2,1.7-1.9,3.2c0.1,1.7,1.3,2.9,2.7,2.8
			c1-0.1,1.8-0.9,2.1-2l2.8,2.5L78.8,372.8z M149.2,358.5c-0.1,0-0.2,0-0.4,0c-0.6,0.1-1.2,0.4-1.6,1l-24.8-22.3l24.2-20.1
			c0.4,0.5,0.9,0.9,1.5,0.8c1-0.1,1.8-1.2,1.7-2.4c0-0.3-0.1-0.7-0.2-0.9l25.7-22.7c0.1,0.1,0.1,0.1,0.2,0.2L149.2,358.5z
			 M175.5,289.4c-0.4,0.3-0.6,0.9-0.6,1.5c0,0.2,0,0.3,0.1,0.4l-28.3,19.7L123,238.5c0,0,0-0.1,0-0.1c0-0.4-0.2-0.8-0.4-1.1
			l-0.1-0.3l23.1-48.6c0.2,0.1,0.5,0.2,0.7,0.2c0,0,0,0,0.1,0l9.8,48.6c-0.9,0.4-1.6,1.5-1.5,2.8c0.1,1.5,1.2,2.6,2.4,2.5
			c0.2,0,0.4-0.1,0.6-0.2L175.5,289.4z M156.6,237c-0.1,0-0.1,0-0.2,0l-9.8-48.6c0.6-0.3,1-1,1-1.8l10.1-1.8l0.4,52.9
			C157.8,237.2,157.3,237,156.6,237z M158.7,237.2l-0.4-52.4l31.1-5.6c0.1,0.6,0.4,1.2,0.8,1.6L158.7,237.2z M190.2,176.2
			c-0.6,0.6-1,1.5-1,2.5l-31,5.5l-0.2-23.1c0.2-0.4,0.3-1,0.3-1.5c0-0.4-0.1-0.8-0.3-1.1L190.2,176.2z M157.8,184.3l-10.2,1.8
			c-0.1-0.5-0.4-0.9-0.7-1.1l8.6-22.7c0.3,0.1,0.6,0.2,0.9,0.1c0.5,0,0.9-0.3,1.2-0.7L157.8,184.3z M155.9,157.4
			c-0.7,0.1-1.2,0.6-1.5,1.3l-22.8-11.6c0.1-0.3,0.1-0.6,0.1-0.9c0-0.2,0-0.4-0.1-0.5l17.8-8.9L155.9,157.4z M131.4,145.1
			c-0.3-0.6-0.7-1.1-1.3-1.3l6.5-43.6c0.2,0.1,0.5,0.1,0.7,0.1c0.2,0,0.4-0.1,0.5-0.1l11.3,36L131.4,145.1z M149.6,136l-11.3-36
			c0.2-0.1,0.4-0.3,0.6-0.5l24.4,28.1c-0.2,0.4-0.3,0.8-0.3,1.3c0,0.1,0,0.2,0.1,0.4L149.6,136z M135.1,98.9c0.3,0.5,0.7,1,1.2,1.2
			l-6.5,43.7c-0.1,0-0.2,0-0.3,0c0,0,0,0,0,0l-4.4-31.3L135.1,98.9z M115.7,60.8c0.4,0.8,1.1,1.4,2,1.3c0,0,0,0,0,0l7,50.2
			l-22.2,30.2c-0.2-1-0.9-1.7-1.8-1.6c-0.3,0-0.6,0.2-0.8,0.4l-12.3-17.4l6.8-27c0.1,0,0.3,0,0.4,0c0.9-0.1,1.5-1,1.4-2.1
			c-0.1-1.1-0.8-1.9-1.7-1.8c-0.4,0-0.8,0.3-1.1,0.7L78.7,81.9L115.7,60.8z M77.9,81.8L63.5,90c-0.2-1.2-1.1-2.1-2.1-2
			c-0.3,0-0.6,0.1-0.8,0.3L39.7,52.3c0.2-0.2,0.3-0.4,0.5-0.6L77.9,81.8z"/>
		
			<linearGradient id="SVGID_9_" gradientUnits="userSpaceOnUse" x1="1115.6807" y1="-201.9586" x2="1240.1237" y2="-406.7657" gradientTransform="matrix(-0.7293 -0.6842 0.6842 -0.7293 1116.6345 609.8959)">
			<stop  offset="1.212120e-02" style="stop-color:#E6E6E6"/>
			<stop  offset="1" style="stop-color:#EAEAEA"/>
		</linearGradient>
		<path fill="url(#SVGID_9_)" d="M182.1-71.3c-1.6,0.4-2.6,2.3-2.3,4.2c0.1,0.6,0.3,1.1,0.6,1.5l-26.5,30c-0.4-0.5-1-0.7-1.7-0.6
			c-0.6,0.2-1.1,0.7-1.4,1.3c-5.8-2.6-20.2-9.1-35.7-16.1l2.6-9.2c0.2,0.1,0.5,0.1,0.7,0c0.9-0.2,1.5-1.3,1.3-2.5
			c-0.2-1.1-1.1-1.9-2-1.7c-0.4,0.1-0.8,0.4-1,0.8L93.6-81.2c0.2-0.5,0.3-1.1,0.2-1.7c-0.2-1.4-1.4-2.4-2.5-2.1
			c-1.2,0.3-1.9,1.7-1.7,3.1c0.2,1.4,1.4,2.4,2.5,2.1c0.2-0.1,0.4-0.1,0.6-0.3l12.8,24.7C88.1-63,71.3-70.4,65.7-72.5
			c0-0.3,0-0.5,0-0.8c-0.2-1.3-1.2-2.2-2.3-1.9c-1.1,0.3-1.7,1.5-1.5,2.8c0.1,0.8,0.6,1.5,1.2,1.8l-16.8,71
			c-0.2-0.1-0.4-0.1-0.6-0.1l-7.1-36.7c0.8-0.3,1.2-1.3,1.1-2.3c-0.2-1.1-1.1-1.9-2-1.6c-0.3,0.1-0.6,0.3-0.8,0.5L-2.1-81.9
			c0.3-0.6,0.5-1.3,0.4-2c-0.2-1.4-1.3-2.3-2.4-2c-1.1,0.3-1.9,1.6-1.6,3c0.2,1.1,0.9,1.9,1.8,2l-1.1,48.8c-0.1,0-0.2,0-0.4,0.1
			c-1.4,0.3-2.3,2-2,3.7c0.3,1.7,1.6,2.8,3,2.5c0,0,0.1,0,0.1,0L3.2,3.2C3,3.3,2.9,3.4,2.8,3.6l-30.6-28.7c0.2-0.4,0.3-0.9,0.2-1.5
			c-0.2-1.1-1.1-1.9-2-1.6c-0.9,0.2-1.5,1.3-1.3,2.5c0.2,1.1,1.1,1.9,2,1.6c0.1,0,0.1,0,0.2-0.1l12.6,32.8l-55,10.7c0-0.3,0-0.7,0-1
			c-0.2-1.6-1.5-2.6-2.8-2.3c-1.3,0.3-2.1,1.8-1.8,3.4c0.2,1.6,1.5,2.6,2.7,2.3c0.3-0.1,0.7-0.3,0.9-0.5l33.8,48.7l-15.1,33.2
			c-0.4-0.2-0.9-0.3-1.4-0.2c-1.3,0.3-2.1,1.8-1.8,3.4c0.2,1.6,1.5,2.6,2.7,2.3c1-0.2,1.7-1.3,1.9-2.4l56.3,24.4c0,0.2,0,0.4,0,0.6
			c0.1,0.9,0.8,1.4,1.5,1.3c0.7-0.2,1.2-1,1-1.9c0-0.1,0-0.2-0.1-0.3l35.6-27.6c0.5,0.8,1.3,1.2,2.2,1c0.4-0.1,0.8-0.4,1.1-0.7
			l49.5,32.3c-0.2,0.5-0.2,1.1-0.1,1.7c0.3,1.6,1.5,2.6,2.7,2.3c1.3-0.3,2.1-1.8,1.8-3.4c-0.1-0.3-0.2-0.6-0.3-0.9L110,92.2l-0.1,0
			c0.3-0.5,0.4-1.2,0.3-1.9l0.1,0.2l15.9-10.5l7,15.7c-0.5,0.4-0.7,1.2-0.6,1.9c0.2,1,1,1.7,1.8,1.5c0.8-0.2,1.4-1.2,1.2-2.3
			c-0.1-0.4-0.2-0.8-0.5-1l19.7-33.4c0.5,0.4,1.1,0.6,1.8,0.4c1.3-0.3,2.2-1.9,1.9-3.6c-0.3-1.7-1.6-2.7-2.9-2.4
			c-0.3,0.1-0.5,0.2-0.7,0.3l-12-10.6l39.2-14.4c0.4,1.1,1.3,1.8,2.3,1.6c1.1-0.3,1.9-1.6,1.6-3c-0.2-1.4-1.3-2.3-2.4-2
			c-0.2,0-0.4,0.1-0.5,0.2l-21.4-43.2l19.8-50.2c0.5,0.3,1.1,0.3,1.7,0.2c1.6-0.4,2.6-2.3,2.3-4.2C185.2-70.5,183.7-71.7,182.1-71.3
			z M152.7,5.4c-0.6,0.1-1,0.7-1.2,1.3l-22.2-5.1L153-31l8.3,16.7l-7.8,19.8C153.2,5.4,153,5.3,152.7,5.4z M150.8-34.4
			c-0.1,0.3-0.1,0.7,0,1.1c0.2,1.2,1.1,2,2,1.9L128.8,1.5l-24.4-5.6c0-0.3,0-0.6,0-0.9c-0.1-0.8-0.5-1.4-0.9-1.8l13.2-25.5
			c0.2,0.1,0.4,0.1,0.6,0.1c0.6-0.1,0.9-0.8,0.8-1.5c-0.1-0.7-0.7-1.2-1.2-1c-0.1,0-0.1,0-0.2,0.1l-3.9-7.5l2.3-8.3
			C127.8-44.8,140.7-39,150.8-34.4z M142.1,46.5l-24.3,9c-0.4-1.1-1.3-1.8-2.3-1.6c-1.1,0.3-1.9,1.6-1.6,3c0.1,0.9,0.7,1.6,1.3,1.9
			l-6.6,29.4c-0.2-0.1-0.5-0.1-0.8,0c-0.7,0.2-1.2,0.7-1.5,1.5L87,81.9c0-0.2,0-0.5,0-0.7c-0.2-1-0.9-1.6-1.6-1.5l-7.2-44.2
			c0.7-0.3,1.1-1.1,0.9-2c-0.1-0.3-0.2-0.6-0.4-0.9l21.8-34.3c0.5,0.4,1.2,0.6,1.8,0.5c0.3-0.1,0.5-0.2,0.7-0.3l11,20.7
			c-0.5,0.5-0.7,1.2-0.6,2c0.2,1.1,1.1,1.9,2,1.6l-0.1,0.2L142.1,46.5z M84.2,80.5L42.7,58.1l0.4-0.3l-0.8,0c0.1-0.3,0.1-0.5,0-0.8
			c-0.1-0.5-0.3-0.9-0.7-1.2l5.4-15.2c0.4,0.2,0.8,0.2,1.2,0.1c1.3-0.3,2.2-1.9,1.9-3.5c-0.3-1.6-1.5-2.7-2.8-2.3
			c-1.2,0.3-2,1.6-1.9,3l-45.9,6.6c-0.2-1-1-1.6-1.8-1.4c-0.1,0-0.1,0-0.2,0.1L-15.6,8.9l18-3.5c0.2,1,1,1.6,1.8,1.4
			c0.7-0.2,1.2-0.9,1.2-1.7l40.7-1.1l0.2,0l-0.1-0.3c0.3-0.1,0.5-0.3,0.6-0.6l29.6,29.6c-0.2,0.4-0.3,0.8-0.2,1.3
			c0.1,0.9,0.8,1.5,1.5,1.4L85,79.7C84.6,79.8,84.4,80.1,84.2,80.5z M-1.3,46.8c0.6-0.3,0.9-1,0.9-1.7l45.9-6.6
			c0.1,0.9,0.6,1.6,1.2,2l-5.4,15.2c-0.2-0.1-0.4-0.1-0.7,0c-0.8,0.2-1.3,1.1-1.1,2.1c0,0.1,0,0.2,0.1,0.3l-73.1,4.1c0,0,0,0,0,0
			L-1,46.9L-1.3,46.8z M-35.4,65.7c0.7-0.2,1.2-0.7,1.6-1.3l19.1,32.4l-1.5,1.1c-0.4-0.7-1.1-1.1-1.8-0.9c-0.3,0.1-0.5,0.2-0.7,0.4
			l-19.1-27.5l1.8-4.1C-35.8,65.7-35.6,65.7-35.4,65.7z M-16,98.7c0-0.2-0.1-0.3-0.1-0.4l1.6-1.1l17.8,30.2l-19.7-26.8
			C-16,100.1-15.8,99.4-16,98.7z M-33.6,63.9c0.1-0.4,0.2-0.9,0.2-1.3l73.2-4.1c0.2,0.3,0.4,0.5,0.6,0.6l-54.9,37.5L-33.6,63.9z
			 M116.3-34.4c-0.2,0.3-0.4,0.7-0.3,1.2c0,0.3,0.2,0.5,0.3,0.7L103.1-7.1c-0.1,0-0.1-0.1-0.2-0.1l9.7-34.4L116.3-34.4z M106.5-54.3
			c2.7,1.2,5.5,2.5,8.3,3.7l-2.2,7.9L106.5-54.3z M114.9,18.6c-0.2,0-0.3,0.1-0.4,0.2L103.5-2c0.4-0.4,0.7-1,0.9-1.6L128.5,2
			l-12.3,17C115.8,18.6,115.3,18.4,114.9,18.6z M93-80.3c0.2-0.1,0.3-0.3,0.4-0.5L116.7-63c-0.1,0.4-0.2,0.8-0.1,1.3
			c0.1,0.7,0.5,1.2,0.9,1.5l-2.6,9.2c-2.9-1.3-5.8-2.6-8.7-3.9L93-80.3z M105.9-54.6l6.5,12.5l-9.8,34.8c-0.3-0.1-0.7-0.1-1.1,0
			c-0.3,0.1-0.5,0.2-0.8,0.4L65-71c0.3-0.3,0.5-0.6,0.6-1C71-70,87.5-62.8,105.9-54.6z M63.4-70.5c0.2,0.1,0.5,0.1,0.7,0
			c0.2,0,0.4-0.1,0.6-0.3l35.7,64c-0.7,0.7-1,1.8-0.9,3c0.1,0.7,0.4,1.2,0.8,1.7L78.5,32.1c-0.3-0.2-0.6-0.3-1-0.2
			c-0.3,0.1-0.5,0.2-0.7,0.4L47.1,2.8c0.1-0.3,0.1-0.7,0.1-1c-0.1-0.5-0.3-0.9-0.6-1.1L63.4-70.5z M36.6-39.5
			c-0.2,0.4-0.4,1-0.3,1.6c0.2,1.1,1,1.8,1.8,1.7l7,36.4L-2.5-81.5c0,0,0,0,0.1-0.1L36.6-39.5z M-3.7-80.9c0.1,0,0.2,0,0.3,0
			c0.2-0.1,0.5-0.2,0.6-0.3L45,0.6c-0.1,0.1-0.2,0.2-0.3,0.3L-2.7-27.8c0.2-0.5,0.2-1.1,0.1-1.8c-0.2-1.4-1.1-2.4-2.2-2.5L-3.7-80.9
			z M-2.9-27.3L44.5,1.4c-0.1,0.3-0.2,0.7-0.1,1.1c0.1,0.5,0.3,0.9,0.7,1.2l-39.7,1c0,0,0-0.1,0-0.1c-0.2-1-1-1.7-1.8-1.5L-4.1-26
			C-3.6-26.3-3.1-26.8-2.9-27.3z M-28.4-24.4c0.1-0.1,0.2-0.2,0.3-0.3L2.5,4C2.4,4.3,2.3,4.6,2.3,5l-18.1,3.5L-28.4-24.4z M-16,9
			l13.2,34.4c-0.5,0.4-0.8,1.2-0.7,2c0,0.2,0.1,0.4,0.2,0.6l-67.4-26.4L-16,9z M-71.8,20.9c0.2-0.3,0.4-0.6,0.5-0.9l69,27
			l-31.3,14.6c-0.4-1.4-1.6-2.2-2.8-1.9c-1.3,0.3-2.2,1.9-1.9,3.6c0.2,1.2,1,2.1,1.9,2.4l-1.7,3.7L-71.8,20.9z M-52,105.6
			c0-0.1,0-0.3,0-0.5c-0.1-0.8-0.5-1.4-1-1.8l15-33.1l19,27.3c-0.4,0.5-0.6,1.2-0.5,2c0.2,1.2,1.2,2,2.1,1.8
			c0.3-0.1,0.5-0.2,0.7-0.4l21.3,28.9c-0.1,0.1-0.1,0.2-0.1,0.3L-52,105.6z M6.6,129.8c-0.3-0.4-0.8-0.6-1.2-0.5
			c-0.1,0-0.2,0.1-0.3,0.2l-19.1-32.5l55.3-37.8c0,0,0.1,0,0.1,0c0.3-0.1,0.6-0.3,0.8-0.6l0.2-0.2L84,81c-0.1,0.3-0.1,0.6,0,0.9
			c0,0,0,0.1,0,0.1L46.2,99.7c-0.4-1.1-1.4-1.7-2.4-1.5c-1.2,0.3-2,1.7-1.7,3.2c0,0.3,0.1,0.5,0.2,0.7L6.6,129.8z M46.4,100.4
			c0-0.1,0-0.1,0-0.2l37.8-17.8c0.3,0.7,0.9,1.1,1.6,1l2.7,12.2L46,102.4C46.3,101.9,46.5,101.1,46.4,100.4z M46.5,102.9l42-6.7
			l8.1,37.5c-0.5,0.2-0.9,0.6-1.2,1.2L46.5,102.9z M99.1,134.4c-0.5-0.7-1.3-1.1-2.1-0.9l-8.1-37.4l18.5-3c0.4,0.2,0.8,0.3,1.2,0.2
			c0.3-0.1,0.6-0.3,0.9-0.5L99.1,134.4z M88.8,95.6l-2.7-12.3c0.4-0.2,0.7-0.5,0.8-1l19.2,7.8c-0.1,0.3-0.1,0.7,0,1.1
			c0.1,0.6,0.3,1.1,0.7,1.4L88.8,95.6z M110.2,90c-0.2-0.8-0.7-1.4-1.2-1.7l6.6-29.4c0.2,0.1,0.5,0.1,0.8,0c0.1,0,0.3-0.1,0.4-0.2
			l9.3,20.8L110.2,90z M117.1,58.5c0.5-0.4,0.8-1,0.9-1.7l35.7,2.8c0,0.3,0,0.6,0,0.9c0,0.2,0.1,0.4,0.2,0.6l-27.5,18.2L117.1,58.5z
			 M126.5,79.7l27.5-18.2c0.1,0.3,0.3,0.5,0.5,0.7l-19.7,33.4c-0.3-0.2-0.7-0.3-1.1-0.2c-0.1,0-0.2,0.1-0.3,0.1L126.5,79.7z
			 M154.6,57.5c-0.4,0.4-0.7,1-0.8,1.6L118,56.3c0-0.1,0-0.3,0-0.4c0,0,0,0,0,0l24.6-9.1L154.6,57.5z M182.8,29.2
			c-0.6,0.6-1,1.5-0.8,2.5c0,0,0,0,0,0l-39.5,14.5l-26.8-23.7c0.8-0.3,1.3-1.3,1.1-2.4c-0.1-0.4-0.2-0.7-0.4-1L129,2.1l22.5,5.1
			c0,0.2,0,0.3,0,0.5c0.2,1,1,1.7,1.8,1.5c0.8-0.2,1.4-1.2,1.2-2.3c-0.1-0.5-0.3-1-0.7-1.2l7.7-19.5L182.8,29.2z M161.5-14.8
			l-8.3-16.7c0.9-0.4,1.5-1.5,1.3-2.8c-0.1-0.4-0.2-0.7-0.4-1l26.5-30c0.2,0.2,0.4,0.4,0.6,0.5L161.5-14.8z"/>
		<g>
			
				<linearGradient id="SVGID_10_" gradientUnits="userSpaceOnUse" x1="84.1709" y1="395.8004" x2="-67.9574" y2="580.8384" gradientTransform="matrix(0.3143 0.9493 -0.9493 0.3143 466.6777 -23.6089)">
				<stop  offset="1.212120e-02" style="stop-color:#C8C8C8"/>
				<stop  offset="1" style="stop-color:#ABABAB"/>
			</linearGradient>
			<path fill="url(#SVGID_10_)" d="M63.4,354.2c0.3-1,0-2.1-0.8-2.5c-0.2-0.1-0.5-0.2-0.7-0.1l-10.5-71.2c0.3-0.1,0.5-0.4,0.7-0.8
				c0.1-0.2,0.1-0.5,0.1-0.7l27.5-9.1l8.1,42.7c-0.3,0.1-0.5,0.4-0.6,0.8c-0.3,0.7,0,1.6,0.6,1.9c0.2,0.1,0.4,0.1,0.5,0.1l0.1,0.7
				l0-0.7c0.4-0.1,0.7-0.4,0.9-0.9c0.3-0.7,0-1.6-0.6-1.9c-0.1,0-0.2-0.1-0.3-0.1l-0.4-45.4l6.3-2.1c0.1,0.4,0.4,0.7,0.7,0.8
				c0.6,0.3,1.4,0,1.7-0.8c0.3-0.8,0-1.7-0.7-2.1c-0.6-0.3-1.4,0-1.7,0.8c0,0,0,0,0,0l-6.4-1.8l-0.1-9.4l34.9-24.4
				c0.1,0.2,0.3,0.4,0.6,0.6c0.7,0.4,1.6,0,1.9-1c0.3-0.9,0-2-0.8-2.4c-0.7-0.4-1.6,0-1.9,1c-0.1,0.2-0.1,0.3-0.1,0.5l-34.8,0.8
				l-0.2-25.4c0.8-0.1,1.4-0.7,1.8-1.6c0.4-1.2,0.1-2.5-0.7-3.2l12.8-27.2l25,8.4c0,0.2,0,0.4,0,0.6c0.2,0.8,0.9,1.3,1.6,1.1
				c0.7-0.2,1.1-1.1,0.9-1.9c-0.2-0.8-0.9-1.3-1.6-1.1c-0.1,0-0.1,0.1-0.2,0.1l-16.1-27.7l6.3-13.3c0.7,0.4,1.6,0,1.9-1
				c0.3-0.9,0-2-0.8-2.4c-0.7-0.4-1.6,0-1.9,1c-0.2,0.4-0.1,0.9,0,1.3l-10,6.6l-1.9-3.3l7.7-10.4c0.5,0.5,1.2,0.7,1.8,0.4
				c0.7-0.3,1.2-0.9,1.4-1.7l29.9,7.4c0,0.3,0,0.5,0.1,0.8c0.3,1.2,1.2,1.8,2.2,1.5c0.9-0.3,1.5-1.5,1.2-2.7
				c-0.3-1.2-1.2-1.8-2.2-1.5c-0.3,0.1-0.5,0.3-0.7,0.5l-30-33l1.2-14.3l18.7-6.3c0.3,1,1.2,1.5,2,1.2c0.9-0.3,1.4-1.5,1.1-2.5
				c-0.3-1.1-1.2-1.7-2.1-1.4c-0.1,0-0.2,0.1-0.3,0.2l-15.1-25.8c0.6-0.7,0.9-1.7,0.7-2.7c-0.3-1.4-1.5-2.2-2.7-1.8
				c-1.1,0.4-1.8,1.9-1.5,3.3c0.2,1,0.9,1.7,1.6,1.9l-2.9,33.7l-10.1,3.4c-0.1-0.3-0.4-0.6-0.6-0.7l4.1-63.1c0.1,0,0.2,0,0.4-0.1
				c0.5-0.2,0.9-0.7,1-1.2l27.2,7.1c0,0.1,0,0.2,0,0.2c0.1,0.5,0.6,0.8,1,0.7c0.2-0.1,0.4-0.3,0.5-0.5l0.1,0l-0.1-0.1
				c0.1-0.2,0.1-0.4,0-0.7c-0.1-0.5-0.6-0.8-1-0.7c-0.1,0-0.2,0.1-0.3,0.2L82-25.1c0.1-0.3,0.2-0.5,0.2-0.8l24.7,0.7
				c0,0.1,0,0.1,0,0.2c0.2,0.8,0.8,1.2,1.5,1c0.6-0.2,1-1,0.8-1.8c-0.2-0.8-0.8-1.2-1.5-1c-0.4,0.2-0.7,0.6-0.8,1.1l-24.7-0.7
				c0-0.1,0-0.3-0.1-0.4C81.9-28,81-28.7,80-28.3c-0.9,0.3-1.5,1.5-1.2,2.7c0.2,0.7,0.6,1.3,1.2,1.5L77.4-5.9L37-40.8
				c0.2-0.4,0.2-0.9,0.1-1.3c-0.2-1-1-1.5-1.8-1.2c-0.8,0.3-1.2,1.3-1,2.2c0.2,1,1,1.5,1.8,1.2L59,24.9c-0.9,0.6-1.3,1.9-1,3.1
				c0.2,1,0.9,1.6,1.6,1.8L57,55l-24.3-4l3.7-13.1c0.2,0.1,0.5,0.1,0.8,0c0.8-0.3,1.2-1.3,0.9-2.3c-0.3-0.9-1.1-1.5-1.8-1.1
				c-0.8,0.3-1.2,1.3-0.9,2.3c0,0.2,0.1,0.3,0.2,0.5L24.4,49.6l-1.9-0.3c0-0.2,0-0.3-0.1-0.5c-0.2-1-1-1.5-1.8-1.2
				c-0.8,0.3-1.2,1.3-1,2.2c0.2,1,1,1.5,1.8,1.2c0.3-0.1,0.5-0.3,0.6-0.5l0.8,0.8L9.8,66.1L-3.9,47.2c0.5-0.7,0.7-1.7,0.5-2.6
				c-0.3-1.2-1.3-1.9-2.3-1.8l-10.9-69.4c0.8-0.3,1.2-1.3,0.9-2.3c-0.3-0.9-1.1-1.5-1.8-1.1c-0.8,0.3-1.2,1.3-0.9,2.3
				c0.1,0.5,0.4,0.8,0.7,1l-17.2,57.1l-10.6-13.2c0.4-0.6,0.5-1.3,0.3-2c-0.3-1.1-1.3-1.8-2.2-1.4c-0.9,0.4-1.4,1.6-1.1,2.7
				c0,0.1,0.1,0.3,0.1,0.4l-20,18c-0.3-0.4-0.8-0.5-1.2-0.3c-0.6,0.3-0.9,1.1-0.7,1.8c0.2,0.8,0.9,1.2,1.5,0.9
				c0.6-0.3,0.9-1.1,0.7-1.8c0-0.1,0-0.1-0.1-0.2l20-18c0.2,0.2,0.4,0.4,0.6,0.5l-21.8,85.4c-0.1,0-0.2,0-0.3,0
				c-0.4,0.2-0.6,0.7-0.5,1.2c0.1,0.2,0.2,0.4,0.3,0.5l0,0.1l0.1-0.1c0.2,0.1,0.4,0.2,0.6,0.1c0.4-0.2,0.6-0.7,0.5-1.2
				c0-0.1,0-0.1-0.1-0.2l19.1-25c0.4,0.4,0.9,0.5,1.4,0.3c0.1,0,0.2-0.1,0.3-0.2l32.4,49.1c-0.2,0.3-0.3,0.6-0.2,1l-9.8,4.3
				l-17.9-25.7c0.5-0.7,0.8-1.7,0.5-2.7c-0.4-1.4-1.6-2.1-2.7-1.7c-1.1,0.5-1.7,2-1.4,3.4c0.3,1,1,1.7,1.8,1.8l-0.5,31.8
				c-0.1,0-0.2,0-0.4,0.1c-0.9,0.4-1.3,1.5-1.1,2.6c0.3,1.1,1.2,1.7,2.1,1.3c0.8-0.3,1.3-1.4,1.1-2.4l18.3-8l7.6,10.9l-9.5,48.2
				c-0.3,0-0.5,0-0.8,0.1c-0.9,0.4-1.4,1.6-1.1,2.7c0.3,1.1,1.3,1.8,2.2,1.4c0.9-0.4,1.4-1.6,1.1-2.7c-0.1-0.3-0.2-0.5-0.3-0.7
				l21.2-27.1c0.5,0.5,1.2,0.7,1.9,0.4c0.6-0.3,1.1-0.9,1.3-1.6l11.1,3.1l-0.3,22.1l-0.1,0.1c-0.1-0.1-0.1-0.2-0.2-0.2
				c-0.4-0.2-0.9,0-1,0.5c-0.1,0.2-0.1,0.4,0,0.7l-0.1,0.1l0.1,0c0.1,0.2,0.2,0.5,0.4,0.6c0.4,0.2,0.8,0,1-0.4L8.2,216
				c-0.1,0-0.2,0-0.2,0.1c-0.7,0.3-1,1.2-0.8,2c0.2,0.8,0.9,1.3,1.6,1c0.7-0.3,1-1.2,0.8-2c-0.1-0.2-0.1-0.4-0.2-0.5L28,189.3l8.4-1
				c0.1,0.6,0.4,1.1,0.9,1.4c0.1,0.1,0.2,0.1,0.4,0.1l-1.9,63.3c-0.3,0.1-0.5,0.3-0.7,0.6l-9.7-4.8l0.3-33.9
				c0.8-0.1,1.5-0.7,1.8-1.6c0.5-1.4,0-2.9-1.1-3.5c-1.1-0.6-2.4,0.1-2.8,1.4c-0.3,1-0.2,2.1,0.4,2.8L6.6,237.6
				c-0.1-0.1-0.2-0.2-0.3-0.2c-0.8-0.4-1.8,0-2.2,1.1c-0.4,1,0,2.2,0.9,2.7c0.8,0.4,1.7,0,2.1-0.9l18,8.9l-0.1,14.4L-8,292
				c-0.2-0.2-0.4-0.4-0.6-0.6c-0.9-0.5-1.9,0-2.3,1.2c-0.4,1.1,0,2.4,0.9,2.8c0.9,0.5,1.9,0,2.3-1.2c0.1-0.3,0.1-0.5,0.1-0.8
				l30.4-3.1c0.1,0.8,0.6,1.5,1.2,1.9c0.6,0.3,1.3,0.2,1.8-0.2l6.7,11.4L6.7,338.9c-0.1-0.1-0.1-0.1-0.2-0.1c-0.6-0.3-1.4,0-1.7,0.8
				c-0.3,0.8,0,1.7,0.7,2.1c0.6,0.3,1.4,0,1.7-0.8c0.1-0.2,0.1-0.4,0.1-0.6l29.9-5.5c0.1,0.3,0.3,0.6,0.5,0.7
				c0.4,0.2,0.8,0.1,1.1-0.3l21.7,17.5c0,0,0,0.1,0,0.1c-0.3,1,0,2.1,0.8,2.5C62.1,355.6,63,355.1,63.4,354.2z M7.2,239.8
				c0.1-0.7,0-1.4-0.3-1.9l17.4-23.5c0.1,0.1,0.3,0.2,0.5,0.3c0.2,0.1,0.4,0.2,0.6,0.2L25,248.7L7.2,239.8z M52.3,278.3l24-17.6
				c0.2,0.3,0.5,0.6,0.8,0.8c0.3,0.2,0.7,0.2,1,0.2l1.4,7.6L52.3,278.3z M47.7,255.3l11.7-17.4c0.1,0.1,0.2,0.2,0.3,0.3
				c0.4,0.2,0.9,0.1,1.2-0.2l15.4,19.7c-0.1,0.2-0.2,0.4-0.3,0.6c-0.2,0.7-0.2,1.4,0,2L51.9,278c-0.1-0.2-0.3-0.3-0.4-0.4
				c-0.2-0.1-0.3-0.1-0.5-0.1L47.7,255.3z M50.5,277.7L42,263.8l5.4-8l3.2,21.8C50.6,277.6,50.5,277.6,50.5,277.7z M76.7,257.3
				l-15.4-19.7c0.1-0.1,0.1-0.2,0.2-0.3c0.3-0.8,0-1.7-0.7-2.1c-0.3-0.2-0.6-0.2-0.9,0l-3-6.6l19.3-0.4l1.5,28.6
				C77.2,256.9,76.9,257.1,76.7,257.3z M56.6,228.1l-2.8-6l21.3-14.2l1,19.8L56.6,228.1z M56.1,228.2l-10.7,0.2c0-0.2,0-0.4-0.1-0.5
				l8.2-5.5L56.1,228.2z M56.3,228.6l3.1,6.9c-0.2,0.2-0.3,0.4-0.4,0.6c-0.2,0.5-0.1,1,0.1,1.4l-11.5,17.2l-3.5-23.9
				c0.5-0.2,0.9-0.6,1.1-1.2c0.1-0.2,0.1-0.4,0.1-0.6L56.3,228.6z M88,311.5l-8-42l7.6-2.5L88,311.5z M94.3,264.1c0,0.1,0,0.2,0,0.3
				l-6.2,2.1l0-4.1L94.3,264.1z M87.7,262.2l0,4.3l-7.7,2.6l-1.4-7.6c0.5-0.2,0.9-0.7,1.2-1.3c0-0.1,0-0.1,0-0.2L87.7,262.2z
				 M87.6,261.7l-7.8-2.2c0-0.4,0-0.9-0.1-1.3l7.9-5.5L87.6,261.7z M122.6,227.2c0,0.1,0,0.3,0.1,0.4L88,251.9L87.8,228L122.6,227.2
				z M87.4,228l0.2,24.2l-8.1,5.7c-0.2-0.4-0.5-0.7-0.8-0.8c-0.2-0.1-0.5-0.2-0.7-0.2l-1.4-28.6L87.4,228z M86.5,201.9
				c0.2,0.1,0.4,0.2,0.7,0.2l0.2,25.4l-10.9,0.2l-1-20.1l10.1-6.8C85.8,201.3,86.1,201.7,86.5,201.9z M85.4,200.5l-9.9,6.7
				l-0.5-10.4l10.3,2.4C85.2,199.6,85.2,200.1,85.4,200.5z M88.3,197C88.2,197,88.2,197,88.3,197c-1.2-0.6-2.4,0-2.9,1.4
				c0,0.1-0.1,0.2-0.1,0.3l-10.4-2.4l-0.7-14.2l21.4-13.2c0.2,0.4,0.7,0.6,1.1,0.4c0.3-0.1,0.5-0.3,0.6-0.6l3.8,1.3L88.3,197z
				 M72.2,182.7c0-0.1-0.1-0.1-0.1-0.2l1.6-2.2l0.1,1.4L72.2,182.7z M28.4,187.3c0,0.1,0.1,0.3,0.2,0.4l-0.8,1.2L9,190.9l0-0.2
				l21.7-16.2l14.1,4l-4.8,6.2l-9.8,1.8c-0.2-0.6-0.7-1-1.2-0.7C28.5,185.9,28.3,186.6,28.4,187.3z M73.6,144.2
				c0.4-1.1,0-2.4-0.9-2.8c-0.9-0.5-1.9,0-2.3,1.2c0,0.1-0.1,0.3-0.1,0.4l-20.7-2.4c0-0.1,0-0.2,0-0.4c-0.1-0.4-0.3-0.7-0.5-0.9
				l3.4-11.7l2.6,2.3c-0.1,0.3-0.2,0.7-0.1,1.1c0.2,0.8,0.9,1.2,1.5,0.9c0.2-0.1,0.3-0.2,0.5-0.4l0.5,0.4l-0.4-0.6
				c0.2-0.4,0.3-0.9,0.2-1.4c-0.2-0.8-0.9-1.2-1.5-0.9c-0.1,0-0.2,0.1-0.3,0.2l-2.5-3.4l8.1-27.7l26.5,13c0,0.2,0,0.5,0,0.7
				c0.1,0.4,0.3,0.7,0.6,0.9L76,162.2l-2.7,1.8l-0.9-18.5C72.9,145.4,73.4,144.9,73.6,144.2z M-7.1,94.8l-5.8-2.5L1.4,76.2
				l16.4,20.3c-0.2,0.3-0.3,0.7-0.4,1.1l-22.1-2.2c0-0.1,0-0.3-0.1-0.4c-0.2-0.8-0.9-1.3-1.6-1C-6.7,94.2-6.9,94.5-7.1,94.8z
				 M20.1,95.9l3-10.6l4.9,6.7l-7.1,4.8C20.7,96.3,20.4,96.1,20.1,95.9z M34.2,88.3c0,0.1,0.1,0.1,0.1,0.2l-3.6,6.7l-2.2-3.1
				L34.2,88.3z M28.2,92.3l2.3,3.2l-4.4,8.2L21,99.2c0.3-0.6,0.3-1.3,0.2-2c0-0.1,0-0.1-0.1-0.2L28.2,92.3z M20.7,99.6l5.2,4.5
				l-15.7,29.1l8.6-32.8c0.3,0.1,0.7,0.1,1-0.1C20.2,100.2,20.5,100,20.7,99.6z M30.8,95.9l19.3,26.7l-0.2,2.2l-23.5-20.7L30.8,95.9
				z M50.5,123.1l2.1,2.9l-0.3,0.9l-2-1.8L50.5,123.1z M82.3,68.6c0,0.1,0.1,0.2,0.1,0.3L65.2,86.3c-0.2-0.3-0.5-0.5-0.8-0.6
				l4.1-28.2l19.2,3.2L84,66.8c-0.3-0.2-0.6-0.2-0.9-0.1C82.4,66.9,82.1,67.8,82.3,68.6z M62.2,86.7c-0.2,0.4-0.3,0.8-0.3,1.2
				l-8,1.1l0.9-8.9L62.2,86.7z M53.5,89.6l-0.4,4.1l-6-3c0-0.1,0-0.2,0-0.3L53.5,89.6z M53.9,89.5l8.1-1.1c0,0.1,0,0.1,0,0.2
				c0.2,0.7,0.5,1.2,1,1.5l-2.1,7.3l-7.4-3.6L53.9,89.5z M65.3,89.6l22.2,20.9L61.2,97.7l2.2-7.4c0.3,0.1,0.7,0.1,1,0
				C64.8,90.2,65.1,89.9,65.3,89.6z M60.7,97.9l-8,27.5l-2.2-3l2.9-28.1L60.7,97.9z M52.8,126.4l2,2.7l-2.2-1.9L52.8,126.4z
				 M52.1,127.3l-3.3,11.2l1.3-12.9L52.1,127.3z M89.2,110.1l5.2-21.2l4.6,8.8l-9.7,12.5C89.3,110.2,89.3,110.1,89.2,110.1z
				 M88.9,110c-0.2,0-0.3,0-0.5,0c-0.2,0.1-0.3,0.2-0.5,0.3L65.5,89.2c0.3-0.6,0.4-1.3,0.2-1.9c-0.1-0.2-0.1-0.4-0.3-0.6l17.1-17.3
				c0.3,0.3,0.8,0.5,1.2,0.3c0.1,0,0.3-0.1,0.4-0.2l10,19L88.9,110z M84.5,69.1c0.2-0.4,0.3-0.9,0.2-1.4c-0.1-0.3-0.2-0.5-0.3-0.7
				l3.8-6.4L99,62.5c0,0.2,0,0.4,0.1,0.7c0.2,0.6,0.5,1.1,1,1.4l-5.7,23.3L84.5,69.1z M88.4,60.2l3.2-5.4l7.6,6.6
				c-0.1,0.2-0.1,0.3-0.2,0.5L88.4,60.2z M88,60.2l-19.4-3.2l2.9-19.5l19.8,17.2L88,60.2z M68.1,57.3L64,85.6c-0.2,0-0.5,0-0.7,0.1
				c-0.4,0.1-0.7,0.4-0.9,0.7l-7.5-6.8l2.5-24L68.1,57.3z M54.5,79.8l-1,9.3L47.1,90c0,0,0,0,0,0c-0.2-0.8-0.9-1.3-1.6-1.1
				c-0.7,0.2-1.1,1.1-0.9,1.9c0.2,0.8,0.9,1.3,1.6,1.1c0.3-0.1,0.6-0.4,0.7-0.7l6.1,3L50.2,122L31,95.5l3.6-6.8
				c0.3,0.2,0.6,0.2,0.9,0.1c0.7-0.3,1-1.2,0.8-2c-0.2-0.8-0.9-1.3-1.6-1c-0.7,0.3-1,1.2-0.8,2c0,0,0,0,0,0l-5.7,3.9l-5.1-7
				l7.4-26.5L54.5,79.8z M19.7,95.7c-0.3-0.1-0.7-0.1-1.1,0.1c-0.2,0.1-0.4,0.2-0.6,0.4L1.7,75.9l8-9.1l13,18L19.7,95.7z
				 M-13.3,92.1l-5.3-2.3l8.4-28.1L1.1,75.8L-13.3,92.1z M-13.6,92.5l-7.9,8.9c-0.1-0.1-0.2-0.2-0.4-0.3l3.2-10.8L-13.6,92.5z
				 M-13.2,92.7l6,2.6c0,0.3,0,0.5,0,0.8c0.1,0.5,0.4,0.8,0.8,1l0.5,22.3l-15.4-15.1c0.3-0.5,0.4-1.2,0.2-1.8
				c-0.1-0.2-0.1-0.4-0.3-0.6L-13.2,92.7z M-6,97.1c0.1,0,0.3,0,0.4-0.1c0.4-0.2,0.7-0.6,0.8-1.1l22.1,2.2c0,0.2,0,0.5,0.1,0.7
				c0.2,0.7,0.6,1.2,1.1,1.4l-8.7,33.1c-0.2,0-0.4,0-0.5,0.1c-0.2,0.1-0.3,0.2-0.4,0.3l-14.3-14L-6,97.1z M8.6,134.1
				c0,0.1,0,0.1-0.1,0.2l-13.7-3.5l-0.2-10.5L8.6,134.1z M26.2,104.5l23.6,20.8l-1.4,13.9c-0.1,0-0.2,0-0.3,0.1
				c-0.4,0.2-0.7,0.6-0.8,1.1l-1.7-0.2c0-0.5-0.3-1-0.7-1.2c-0.6-0.3-1.3,0-1.5,0.8c-0.3,0.7,0,1.6,0.6,1.9c0.6,0.3,1.3,0,1.5-0.8
				c0-0.1,0-0.1,0-0.2l1.7,0.2c0,0.1,0,0.2,0,0.2c0.1,0.5,0.4,0.8,0.8,1l-0.1,0.7l0.2-0.7c0.2,0,0.4,0,0.5,0c0.4-0.1,0.7-0.5,0.8-1
				l20.7,2.4c0,0.3,0.1,0.6,0.2,0.9l-28.9,21.6l-30.9-30.3c0.2-0.3,0.2-0.8,0.1-1.2c-0.1-0.2-0.2-0.4-0.3-0.6L26.2,104.5z
				 M70.6,144.7C70.6,144.7,70.7,144.7,70.6,144.7L49,173.1l-7.1-6.9L70.6,144.7z M48.7,173.5l-3.5,4.6l-13.9-3.9l10.3-7.7
				L48.7,173.5z M45.3,178.6l4.3,1.2l-6.5,4.3l-2.4,0.4L45.3,178.6z M50.1,180l5.8,1.6c0,0.1,0,0.1,0,0.2L44.2,184L50.1,180z
				 M50.7,179.7l2.6-1.7l2.9,2.9c-0.1,0.1-0.1,0.2-0.1,0.3L50.7,179.7z M50.1,179.5l-4.5-1.3l3.4-4.4l3.9,3.8L50.1,179.5z
				 M49.3,173.4L71,145.1c0.1,0.1,0.2,0.2,0.4,0.3c0.2,0.1,0.4,0.2,0.6,0.2l1,18.8l-19.6,13.1L49.3,173.4z M75.8,162.9l-2.2,8.9
				l-0.4-7.2L75.8,162.9z M76.3,162.6l19.9-13.2L74,179.2l-0.3-6.1L76.3,162.6z M73.7,179.7l-1.9,2.5c-0.1-0.1-0.2-0.1-0.3-0.2
				l1.9-7.6L73.7,179.7z M74.1,179.9l23.2-31.2l9.3-6.2l4.1,7.1l-9.4,19.9l-3.9-1.3c0-0.1,0-0.3,0-0.4c-0.2-0.6-0.7-1-1.2-0.8
				c-0.5,0.2-0.8,0.8-0.7,1.5l-21.3,13.1L74.1,179.9z M126.8,177.5c-0.1,0.1-0.2,0.3-0.3,0.5l-24.9-8.4l9.3-19.6L126.8,177.5z
				 M116.8,135.6c0.1,0.1,0.2,0.3,0.3,0.4l-6.2,13.2l-4-6.9L116.8,135.6z M106.3,142.1l-8.2,5.5l6.4-8.6L106.3,142.1z M97,148.2
				l-20.5,13.7l12.1-49.1c0.2,0,0.3,0,0.5,0c0.1,0,0.1-0.1,0.2-0.1l15,25.8L97,148.2z M104.5,138.2l-14.9-25.7
				c0.3-0.4,0.4-0.9,0.3-1.4c0-0.2-0.1-0.3-0.2-0.5l9.6-12.4l13.6,25.7c-0.9,0.5-1.4,1.8-1.2,3c0.1,0.4,0.2,0.7,0.4,1L104.5,138.2z
				 M145.8,133.2c-0.1,0.2-0.2,0.4-0.2,0.6l-29.9-7.4c0-0.3,0-0.6-0.1-1c-0.2-1-0.9-1.6-1.6-1.8l2-23.2L145.8,133.2z M115.7,100.1
				l-2,23.5c-0.1,0-0.3,0-0.4,0.1L99.6,97.7l5.8-7.6c0.2,0.2,0.5,0.3,0.8,0.2c0.1,0,0.2-0.1,0.3-0.2L115.7,100.1z M120.2,51.6
				c0.2,0,0.4,0,0.6-0.1c0.2-0.1,0.3-0.2,0.5-0.3L136.4,77c-0.4,0.5-0.6,1.1-0.5,1.8L117.3,85L120.2,51.6z M116.9,85.7l-1.2,13.8
				l-8.9-9.7c0.1-0.2,0.2-0.5,0.1-0.7L116.9,85.7z M109.9,24.7l-4.1,63.1c-0.1,0-0.1,0-0.2,0c-0.5,0.2-0.9,0.9-0.7,1.6
				c0,0.1,0.1,0.3,0.1,0.4l-5.8,7.5l-4.7-9l5.8-23.7c0.3,0.1,0.5,0.1,0.8,0c0.9-0.3,1.5-1.5,1.2-2.7c-0.3-1.2-1.2-1.8-2.2-1.5
				c-0.3,0.1-0.6,0.4-0.8,0.6l-7.6-6.6l17.7-29.9C109.6,24.6,109.8,24.7,109.9,24.7z M91.5,54.2l-20-17.3l1.5-10.5l35.7-3.1
				c0,0.1,0,0.1,0,0.2c0.1,0.3,0.2,0.6,0.4,0.9L91.5,54.2z M73.1,25.8l4.5-30.9l31.2,27c-0.1,0.2-0.2,0.5-0.2,0.8L73.1,25.8z
				 M81.8-24.8l57.1,54.8L111.8,23c0-0.2,0-0.5-0.1-0.7c-0.2-1-1.1-1.6-1.9-1.3c-0.1,0-0.2,0.1-0.3,0.2L81.8-24.8
				C81.7-24.7,81.8-24.7,81.8-24.8z M80.4-24.1c0.2,0,0.4,0,0.6-0.1c0.1-0.1,0.3-0.1,0.4-0.2l27.7,45.9c0,0,0,0.1-0.1,0.1L77.7-5.6
				L80.4-24.1z M62.1,26.5c-0.3-1.4-1.5-2.2-2.7-1.8c0,0,0,0-0.1,0L36.5-40.1c0.1-0.1,0.2-0.2,0.3-0.3l40.5,35l-4.6,31.2l-10.6,0.9
				C62.2,26.7,62.1,26.6,62.1,26.5z M62.2,27.3l10.5-0.9l-1.5,10.2l-9.3-8C62.1,28.1,62.2,27.7,62.2,27.3z M60,29.9
				c0.2,0,0.5,0,0.7-0.1c0.4-0.2,0.8-0.4,1-0.8l9.4,8.2l-2.9,19.8l-10.8-1.8L60,29.9z M57,55.5l-2.4,23.8L30.8,57.8l1.8-6.4L57,55.5
				z M30.5,57.5l-6.9-6.3l1-1.1l7.6,1.3L30.5,57.5z M35.8,37.5c0.1,0.1,0.2,0.2,0.3,0.2l-3.7,13.2l-7.4-1.2L35.8,37.5z M22.3,50.1
				c0.1-0.1,0.1-0.3,0.1-0.4l1.6,0.3l-0.8,0.9L22.3,50.1z M23.3,51.6l7.1,6.4l-7.4,26.3L10,66.5L23.3,51.6z M-4.8,47.9
				c0.2-0.1,0.4-0.2,0.6-0.4L9.5,66.4l-8.1,9.1L-10,61.3l4-13.3C-5.7,48.1-5.2,48.1-4.8,47.9z M-6.4,47.8l-3.9,13.1l-5.9-7.3l9-6.6
				C-7,47.3-6.7,47.6-6.4,47.8z M-47.6,75.9c-0.1-0.2-0.3-0.4-0.5-0.5l13.3-44.2l17.9,22.2L-47.6,75.9z M-17.4-26.6
				c0.1,0,0.3,0.1,0.4,0l10.9,69.4c0,0-0.1,0-0.1,0c-1.1,0.5-1.7,2-1.4,3.4c0,0.1,0.1,0.2,0.1,0.3l-9.1,6.7l-18.1-22.5L-17.4-26.6z
				 M-35.1,30.8l-13.3,44.4c0,0-0.1,0-0.1,0l1.8-57.2c0.1,0,0.3,0,0.4-0.1c0.2-0.1,0.4-0.2,0.5-0.4L-35.1,30.8z M-69.1,103.2
				l21.8-85.3c0,0,0.1,0,0.1,0l-1.8,57.2c-0.1,0-0.2,0-0.4,0.1c-0.8,0.3-1.3,1.4-1,2.4c0.1,0.2,0.2,0.4,0.3,0.6L-69.1,103.2z
				 M-47.3,77.5c0.1-0.3,0.1-0.7,0-1c0-0.1,0-0.1-0.1-0.2l30.8-22.5l6.1,7.6L-19,89.7L-47.3,77.5z M-13.9,128.2
				c-0.2-0.7-0.8-1-1.3-0.8c-0.1,0-0.1,0.1-0.2,0.1l-32.4-49.1c0.1-0.1,0.2-0.3,0.3-0.5l28.3,12.2l-3.2,10.8c-0.3-0.1-0.6-0.1-1,0
				c-0.9,0.4-1.4,1.6-1.1,2.7c0.3,1.1,1.3,1.8,2.2,1.4c0.3-0.1,0.5-0.3,0.7-0.5L-5.9,120l0.2,10.7l-8.2-2.1
				C-13.8,128.5-13.8,128.4-13.9,128.2z M-45.5,140.1l0.5-31.8c0.2,0,0.3-0.1,0.5-0.1c0.2-0.1,0.4-0.2,0.6-0.4l17.8,25.5l-18.1,7.9
				C-44.5,140.6-44.9,140.2-45.5,140.1z M-25.4,133.5l9.7-4.2c0.1,0.2,0.3,0.4,0.5,0.5l-2.8,14.2L-25.4,133.5z M-14.9,129.9
				c0.1,0,0.2,0,0.4-0.1c0.3-0.1,0.5-0.4,0.6-0.7l8.3,2.1l0.7,31c-0.1,0.1-0.2,0.1-0.3,0.2l-12.5-17.9L-14.9,129.9z M-26.9,193.3
				c-0.1-0.1-0.3-0.2-0.5-0.3l9.5-47.9l12.3,17.7c-0.5,0.7-0.8,1.7-0.5,2.6c0.1,0.3,0.2,0.6,0.4,0.8L-26.9,193.3z M-2.1,164.8
				c0-0.4,0-0.7-0.1-1.1c-0.3-1.2-1.3-1.9-2.3-1.7l-0.7-30.7l13.6,3.5c0,0.2,0,0.3,0.1,0.5c0.1,0.5,0.5,0.9,0.9,1l-0.5,31.7
				L-2.1,164.8z M9.3,168l0.5-31.8c0.1,0,0.1,0,0.2-0.1c0.2-0.1,0.3-0.2,0.4-0.3l30.8,30.2L30.6,174L9.3,168z M9.3,168.5l20.9,5.9
				L9,190.2L9.3,168.5z M9.1,216.3c-0.1-0.1-0.3-0.2-0.4-0.2L9,191.4l18.5-2.1L9.1,216.3z M28.4,188.7l0.5-0.8
				c0.2,0.2,0.5,0.2,0.8,0.1c0.4-0.2,0.6-0.6,0.7-1.1l9.3-1.7l-0.8,1.1c-0.1-0.1-0.2-0.2-0.3-0.2c-0.8-0.4-1.7,0-2,1
				c-0.1,0.2-0.1,0.5-0.1,0.7L28.4,188.7z M39.1,186.7l1.2-1.5l1.8-0.3l-2.9,1.9C39.2,186.7,39.1,186.7,39.1,186.7z M39.4,187.2
				l3.8-2.6l12.8-2.3c0,0,0,0.1,0,0.1c0.3,1,1.2,1.6,2,1.2c0.8-0.3,1.3-1.4,1-2.4c-0.3-1-1.2-1.6-2-1.2c-0.2,0.1-0.4,0.3-0.6,0.5
				l-2.8-2.8l19.3-12.9l0.4,8.2l-2.2,8.8c-0.2,0-0.5,0-0.7,0c-0.8,0.3-1.3,1.4-1.1,2.4c0.2,1,1.1,1.6,1.9,1.3
				c0.8-0.3,1.3-1.4,1.1-2.4c0,0,0-0.1,0-0.1l1.4-0.9l0.7,13.9l-35-8.2C39.5,187.7,39.4,187.5,39.4,187.2z M39.3,188.6
				c0-0.1,0-0.1,0-0.2l35.1,8.2l0.5,10.7l-21.4,14.3l-14.8-32.3C39.1,189.2,39.2,189,39.3,188.6z M36.2,253.1l1.9-63.3
				c0.2,0,0.3-0.1,0.5-0.1L53.3,222l-8.2,5.5c-0.2-0.3-0.4-0.6-0.8-0.8c-0.9-0.5-1.9,0-2.3,1.2c-0.4,1.1,0,2.4,0.9,2.8
				c0.3,0.1,0.5,0.2,0.8,0.2l3.6,24.3l-5.6,8.3l-5-8.3c0.1-0.1,0.1-0.2,0.2-0.3c0.2-0.6,0-1.4-0.5-1.7
				C36.3,253.1,36.3,253.1,36.2,253.1z M25.4,249.4l9.5,4.7c0,0.3,0,0.5,0.1,0.8l-9.7,8.4L25.4,249.4z M35.3,255.2
				c0.1,0.1,0.2,0.2,0.3,0.3c0.3,0.1,0.6,0.1,0.8,0l5.1,8.3l-16,23.8c-0.1-0.1-0.3-0.1-0.4-0.1l0.2-23.7L35.3,255.2z M-7.6,293.1
				c0-0.2-0.1-0.4-0.2-0.6l32.7-28.3l-0.2,23.3c-0.8,0.1-1.5,0.6-1.8,1.5c-0.1,0.3-0.2,0.6-0.2,1L-7.6,293.1z M26.2,291.9
				c0.2-0.2,0.4-0.5,0.5-0.9c0.4-1.2,0-2.5-0.9-3.2l15.9-23.6l8.4,13.7c-0.1,0.1-0.2,0.3-0.2,0.4c-0.2,0.5-0.1,1.1,0.2,1.5
				l-17.2,23.4L26.2,291.9z M50.4,280.2c0.1,0,0.1,0.1,0.2,0.1c0.2,0.1,0.3,0.1,0.5,0.1l10.5,71.2c-0.1,0-0.2,0.1-0.3,0.1
				l-28.1-48.1L50.4,280.2z M39,334.7c0.2-0.6,0-1.3-0.5-1.6c-0.5-0.3-1.1,0-1.3,0.6c0,0.1-0.1,0.3-0.1,0.4l-29.9,5.6
				c0-0.2-0.1-0.4-0.2-0.5L32.8,304l28.1,48c0,0.1-0.1,0.1-0.1,0.2L39,334.7z"/>
		</g>
	</g>
</g>
</svg>
