<?xml version="1.0" encoding="utf-8"?>
<!-- Generator: Adobe Illustrator 18.0.0, SVG Export Plug-In . SVG Version: 6.00 Build 0)  -->
<!DOCTYPE svg PUBLIC "-//W3C//DTD SVG 1.1//EN" "http://www.w3.org/Graphics/SVG/1.1/DTD/svg11.dtd">
<svg version="1.1" id="Layer_1" xmlns="http://www.w3.org/2000/svg" xmlns:xlink="http://www.w3.org/1999/xlink" x="0px" y="0px"
	 viewBox="0 0 350 612" enable-background="new 0 0 350 612" xml:space="preserve">
<g>
	<defs>
		<rect id="SVGID_12_" y="-0.8" width="350" height="612.8"/>
	</defs>
	<clipPath id="SVGID_1_">
		<use xlink:href="#SVGID_12_"  overflow="visible"/>
	</clipPath>
	<g clip-path="url(#SVGID_1_)">
		
			<linearGradient id="SVGID_2_" gradientUnits="userSpaceOnUse" x1="3580.7322" y1="291.6999" x2="3729.5149" y2="46.8345" gradientTransform="matrix(-0.8289 0.5594 -0.5594 -0.8289 3507.2034 -1288.3447)">
			<stop  offset="1.212120e-02" style="stop-color:#E6E6E6"/>
			<stop  offset="1" style="stop-color:#EAEAEA"/>
		</linearGradient>
		<path fill="url(#SVGID_2_)" d="M335.7,434.2c0,2,1.2,3.6,2.8,3.7c0.5,0,0.9-0.1,1.3-0.4l17.8,38.6c-0.5,0.4-0.8,1.1-0.8,1.9
			c0,0.8,0.3,1.5,0.7,1.9c-3.3,6.4-11.7,22.3-20.6,39.5l-6.7-5.2c0.1-0.3,0.2-0.5,0.2-0.8c0-1.2-0.7-2.1-1.6-2.2
			c-0.9,0-1.7,0.9-1.7,2c0,0.5,0.1,1,0.4,1.4l-19.1,24.1c-0.4-0.4-0.8-0.6-1.3-0.6c-1.2,0-2.2,1.1-2.2,2.6c0,1.5,0.9,2.7,2.1,2.7
			c1.2,0,2.2-1.1,2.2-2.6c0-0.3,0-0.5-0.1-0.7l22.3-10c-10,19.3-19.5,38-22.4,44.3c-0.2-0.1-0.4-0.2-0.6-0.2c-1.1,0-2,1-2,2.3
			c0,1.3,0.8,2.4,1.9,2.5c0.7,0,1.3-0.4,1.7-1l52.2,36c-0.1,0.2-0.2,0.5-0.2,0.7l-30.5,0.4c-0.1-1-0.8-1.8-1.6-1.8
			c-0.9,0-1.7,0.9-1.7,2c0,0.4,0.1,0.8,0.2,1.1l-41.8,37.7c-0.4-0.5-0.9-0.9-1.5-0.9c-1.1,0-2.1,1.1-2.1,2.5c0,1.4,0.9,2.6,2,2.7
			c0.9,0,1.7-0.7,2-1.7l38.2,12.1c0,0.1,0,0.3,0,0.5c0,1.7,1.1,3.2,2.5,3.2c1.4,0.1,2.6-1.3,2.6-3c0,0,0-0.1,0-0.1l24.6-2.8
			c0,0.2,0.1,0.4,0.2,0.6l-29.4,30.6c-0.3-0.3-0.7-0.6-1.1-0.6c-0.9,0-1.7,0.9-1.7,2c0,1.2,0.7,2.1,1.6,2.2c0.9,0,1.7-0.9,1.7-2
			c0-0.1,0-0.2,0-0.3l28.6-7.9L351,760c-0.2-0.1-0.5-0.2-0.8-0.2c-1.3,0-2.4,1.2-2.4,2.8c0,1.6,1,2.9,2.3,3c1.3,0,2.4-1.2,2.4-2.8
			c0-0.4-0.1-0.8-0.2-1.2l45.8-30l22.9,25.5c-0.3,0.5-0.5,1-0.5,1.7c0,1.6,1,2.9,2.3,3c1.3,0,2.4-1.2,2.4-2.8c0-1.3-0.6-2.4-1.5-2.8
			l31.7-62.6c0.1,0.1,0.3,0.1,0.5,0.1c0.7,0,1.3-0.7,1.3-1.6c0-0.9-0.5-1.6-1.3-1.7c-0.1,0-0.2,0-0.3,0l-13.9-49.1
			c0.7-0.4,1.3-1.3,1.3-2.4c0-0.5-0.1-1-0.3-1.5l36.4-52.6c0.4,0.3,0.8,0.5,1.3,0.5c1.3,0,2.4-1.2,2.4-2.8c0-1.6-1-2.9-2.3-3
			c-0.3,0-0.5,0-0.8,0.1l-31.3-22.2l0,0.1c-0.4-0.5-0.9-0.8-1.5-0.8l0.2-0.1l-4.8-21.5l13.9-5c0.2,0.7,0.8,1.1,1.4,1.2
			c0.9,0,1.6-0.8,1.6-1.9c0-1.1-0.7-2-1.5-2c-0.3,0-0.7,0.1-0.9,0.3l-21.9-31.1c0.4-0.5,0.7-1.2,0.7-2c0-1.7-1-3.1-2.4-3.1
			c-1.4,0-2.5,1.3-2.5,3c0,0.3,0,0.7,0.1,1l-11,12.1l-2.7-50.5c1-0.2,1.7-1.2,1.7-2.5c0-1.4-0.9-2.6-2-2.6c-1.1,0-2.1,1.1-2.1,2.5
			c0,0.2,0,0.5,0.1,0.7l-38.8,16.3L341,436.4c0.3-0.6,0.5-1.2,0.5-2c0-2-1.2-3.6-2.8-3.7C337.1,430.7,335.8,432.2,335.7,434.2z
			 M389.7,486.8c0,0.7,0.3,1.4,0.8,1.7l-8.9,25.7l-20.5-35.9l15-6.3l13.9,13.8C389.8,486.1,389.7,486.4,389.7,486.8z M357.9,480.3
			c0.3,0.2,0.5,0.3,0.8,0.3c1,0,1.8-0.8,2-2l20.6,36.2l-9.8,28.2c-0.2-0.1-0.5-0.2-0.7-0.2c-0.6,0-1.2,0.3-1.7,0.7L352,521.9
			c0.1-0.2,0.2-0.4,0.2-0.7c0-0.7-0.4-1.3-1-1.3c-0.6,0-1.1,0.5-1.1,1.3c0,0.1,0,0.2,0,0.2l-6.8,3l-6-4.7
			C344.6,505.7,352,491.5,357.9,480.3z M419.7,508.6l1.7,31.3c-1,0.2-1.7,1.2-1.7,2.5c0,1.4,0.9,2.6,2,2.6c0.7,0,1.4-0.4,1.8-1.1
			l21.7,14.5c-0.1,0.3-0.2,0.6-0.2,0.9c0,0.9,0.3,1.7,0.8,2.1L435.4,583c-0.2-0.1-0.4-0.2-0.6-0.2c-0.8,0-1.5,0.7-1.6,1.6l-36.4-1.2
			c-0.1-0.9-0.7-1.5-1.4-1.6c-0.3,0-0.6,0.1-0.8,0.3l-22.2-33.9c0.5-0.5,0.7-1.3,0.8-2.1c0-0.3,0-0.6-0.1-0.9l18.8-8.7
			c0.3,0.7,0.8,1.1,1.4,1.1c0.9,0,1.7-0.9,1.7-2l0.1,0.2L419.7,508.6z M433.7,586.1l-26.9,45l-0.1-0.5l-0.1,0.9
			c-0.2-0.1-0.4-0.2-0.6-0.2c-0.4,0-0.8,0.2-1.1,0.5l-10.8-9.9c0.2-0.4,0.3-0.9,0.4-1.5c0-1.6-1-3-2.3-3.1c-1.3,0-2.4,1.2-2.5,2.9
			c0,1.5,0.8,2.7,2,3l-5,56.9c-0.8,0-1.5,0.8-1.5,1.9c0,0.1,0,0.2,0,0.2l-29.9,8.3l1.2-22.5c0.8-0.1,1.4-0.9,1.5-1.9
			c0-0.9-0.4-1.6-1.1-1.9l8.2-49.3l0-0.3l-0.3,0c0-0.3-0.1-0.6-0.3-0.9l29.9-29.2c0.2,0.3,0.6,0.5,0.9,0.5c0.7,0,1.3-0.6,1.4-1.5
			l36.4,1.2C433.2,585.4,433.4,585.8,433.7,586.1z M388.2,681.8c-0.1-0.7-0.6-1.3-1.2-1.5l5-56.9c0.7,0,1.4-0.4,1.9-1l10.8,9.9
			c-0.1,0.2-0.2,0.5-0.2,0.8c0,1,0.6,1.8,1.4,1.8c0.1,0,0.2,0,0.2,0l-13,89.1c0,0,0,0,0,0l-4.7-42.4L388.2,681.8z M395.5,727.1
			c0-0.9-0.2-1.6-0.7-2.2l29.8-15.9l0.5,2.1c-0.6,0.3-1.1,1.1-1.1,2c0,0.3,0,0.6,0.1,0.9L398.1,731l-2.8-3.1
			C395.4,727.6,395.4,727.4,395.5,727.1z M425.8,711c-0.1,0-0.2,0-0.4,0l-0.5-2.1l27.8-14.8l-25.5,17.8
			C426.9,711.4,426.4,711,425.8,711z M394.4,724.6c-0.3-0.3-0.6-0.4-1-0.5l13-89.3c0.2-0.1,0.4-0.4,0.6-0.6l17.3,74.5L394.4,724.6z
			 M350.2,521.8c0.2,0.4,0.5,0.6,0.9,0.6c0.2,0,0.4-0.1,0.6-0.2l17.1,21.6c0,0.1-0.1,0.1-0.1,0.2l-25-19.3L350.2,521.8z
			 M332.4,529.3c1.6-3,3.1-6.1,4.7-9.2l5.8,4.5L332.4,529.3z M391.7,535.3c0,0.2,0,0.4,0.1,0.6l-18.8,8.7c-0.2-0.6-0.6-1.1-1.1-1.4
			l9.7-28l10.6,18.6C391.9,534.2,391.7,534.7,391.7,535.3z M309,539.8c-0.1-0.2-0.2-0.4-0.3-0.6l19.1-24.1c0.3,0.3,0.6,0.4,1,0.4
			c0.6,0,1-0.3,1.4-0.8l6.7,5.2c-1.7,3.2-3.3,6.5-5,9.7L309,539.8z M332,530l11.3-5l25.2,19.5c-0.2,0.4-0.3,0.8-0.3,1.3
			c0,0.3,0,0.7,0.1,1L310,575.7c-0.2-0.4-0.4-0.7-0.7-0.9C312.1,568.7,321.5,550.4,332,530z M310.1,577.7c0.1-0.3,0.2-0.6,0.2-0.9
			c0-0.3,0-0.5-0.1-0.7l58.3-28.9c0.4,1,1.2,1.7,2.1,1.7c0.5,0,1.1-0.2,1.5-0.5l22.2,33.9c-0.2,0.3-0.4,0.7-0.4,1.2
			c0,0.3,0.1,0.7,0.2,0.9l-29.9,29.2c-0.2-0.2-0.5-0.3-0.8-0.3c-0.4,0-0.8,0.2-1,0.5L310.1,577.7z M328.5,617
			c0.3,0.4,0.7,0.7,1.2,0.7c0.9,0,1.6-0.8,1.7-1.9l30.2-0.4l-74.8,39.4c0,0,0-0.1,0-0.1L328.5,617z M287,656.4c0-0.1,0-0.2,0-0.3
			c0-0.3,0-0.6-0.1-0.9l75.1-39.5c0,0.1,0.1,0.3,0.2,0.4l-33.1,50.9c-0.4-0.3-0.9-0.5-1.4-0.5c-1.1,0-2.1,0.9-2.5,2.1L287,656.4z
			 M329.4,667.2l33.1-50.8c0.2,0.2,0.5,0.3,0.8,0.4c0.4,0,0.8-0.2,1.1-0.6l-8,48.1c0,0,0,0-0.1,0c-0.9,0-1.6,0.8-1.6,1.9l-24.6,2.8
			C330,668.3,329.8,667.7,329.4,667.2z M326,698.7c0-0.2-0.1-0.3-0.2-0.5l29.4-30.6c0.2,0.2,0.5,0.4,0.8,0.5l-1.2,22.6L326,698.7z
			 M355.1,691.2l30-8.3c0.2,0.7,0.8,1.3,1.4,1.3c0.2,0,0.4,0,0.5-0.1l-35.7,75.5L355.1,691.2z M352.1,761.1
			c-0.2-0.3-0.4-0.6-0.6-0.8l36.6-77.3l4.6,41c-1.2,0.2-2.1,1.4-2.1,2.9c0,1.7,1,3.1,2.4,3.1c1,0,1.9-0.7,2.3-1.7l2.6,2.9
			L352.1,761.1z M423.2,756c-0.1,0-0.2,0-0.4-0.1c-0.6,0-1.2,0.3-1.7,0.8l-22.7-25.4l25.7-16.8c0.3,0.6,0.8,1,1.5,1
			c1,0,1.8-0.9,1.9-2.2c0-0.3,0-0.7-0.2-1l27.5-19.2c0.1,0.1,0.1,0.2,0.2,0.2L423.2,756z M455.3,690.7c-0.4,0.3-0.7,0.8-0.7,1.4
			c0,0.2,0,0.3,0,0.5l-29.8,15.9l-17.5-75.1c0,0,0-0.1,0-0.1c0-0.4-0.1-0.8-0.3-1.1l-0.1-0.3l27-45.3c0.2,0.1,0.5,0.2,0.7,0.3
			c0,0,0,0,0.1,0l5.6,49.6c-1,0.3-1.7,1.3-1.7,2.6c0,1.5,0.9,2.8,2.1,2.8c0.2,0,0.4,0,0.6-0.1L455.3,690.7z M440.9,636.2
			c-0.1,0-0.1,0-0.2,0l-5.6-49.6c0.6-0.2,1.1-0.9,1.1-1.7l10.2-0.5l-4,52.6C442.1,636.5,441.5,636.2,440.9,636.2z M442.9,636.6
			l4-52.2l31.4-1.5c0.1,0.6,0.3,1.2,0.7,1.7L442.9,636.6z M479.4,580c-0.7,0.5-1.1,1.4-1.2,2.4l-31.3,1.5l1.8-23
			c0.2-0.4,0.4-0.9,0.4-1.5c0-0.4-0.1-0.8-0.2-1.1L479.4,580z M446.6,583.9l-10.3,0.5c-0.1-0.5-0.3-0.9-0.6-1.2l10.4-21.5
			c0.3,0.2,0.5,0.2,0.8,0.3c0.5,0,0.9-0.2,1.3-0.5L446.6,583.9z M446.9,556.9c-0.7,0.1-1.2,0.5-1.6,1.1l-21.7-14.5
			c0.1-0.3,0.2-0.6,0.2-0.9c0-0.2,0-0.4,0-0.6l18.4-6.6L446.9,556.9z M423.6,541.5c-0.2-0.7-0.6-1.2-1.2-1.4l10.1-42.5
			c0.2,0.1,0.5,0.2,0.7,0.2c0.2,0,0.4,0,0.5-0.1l8.2,37.3L423.6,541.5z M442.4,534.8l-8.2-37.3c0.2-0.1,0.4-0.2,0.6-0.4l21.9,31.1
			c-0.2,0.3-0.4,0.8-0.4,1.2c0,0.1,0,0.2,0,0.4L442.4,534.8z M431.1,496c0.2,0.6,0.6,1,1.1,1.3L422.1,540c-0.1,0-0.2,0-0.3-0.1
			c0,0,0,0,0,0l-1.7-31.7L431.1,496z M415.1,455.7c0.3,0.9,1,1.5,1.8,1.5c0,0,0,0,0,0l2.7,50.8L395,535.2c-0.1-1-0.8-1.8-1.6-1.8
			c-0.3,0-0.6,0.1-0.9,0.3l-10.8-18.9l9-26c0.1,0,0.2,0.1,0.4,0.1c0.9,0,1.6-0.8,1.6-1.9c0-1.1-0.7-2-1.5-2c-0.4,0-0.8,0.2-1.1,0.5
			l-13.7-13.6L415.1,455.7z M375.7,471.7l-15,6.3c-0.1-1.2-0.9-2.2-1.9-2.2c-0.3,0-0.6,0.1-0.8,0.2l-17.8-38.6
			c0.2-0.2,0.4-0.3,0.5-0.6L375.7,471.7z"/>
		
			<linearGradient id="SVGID_3_" gradientUnits="userSpaceOnUse" x1="638.5358" y1="-114.5756" x2="760.9933" y2="-316.1151" gradientTransform="matrix(-0.6538 -0.7567 0.7567 -0.6538 959.5828 834.4894)">
			<stop  offset="1.212120e-02" style="stop-color:#E6E6E6"/>
			<stop  offset="1" style="stop-color:#EAEAEA"/>
		</linearGradient>
		<path fill="url(#SVGID_3_)" d="M479.3,366.3c-1.6,0.2-2.8,1.9-2.6,3.9c0,0.6,0.2,1.1,0.4,1.6l-28.8,26.4c-0.4-0.5-1-0.9-1.6-0.8
			c-0.6,0.1-1.2,0.5-1.5,1.1c-5.5-3.3-19.3-11.7-34.1-20.6l3.3-8.8c0.2,0.1,0.4,0.1,0.7,0.1c0.9-0.1,1.6-1.1,1.5-2.3
			c-0.1-1.2-0.9-2-1.8-1.9c-0.4,0-0.8,0.3-1.1,0.6l-21.6-20.6c0.2-0.5,0.4-1.1,0.3-1.7c-0.1-1.5-1.1-2.5-2.3-2.4
			c-1.2,0.1-2.1,1.4-1.9,2.9c0.1,1.5,1.1,2.5,2.3,2.4c0.2,0,0.4-0.1,0.6-0.2l10.7,26.3c-16.7-10-32.8-19.5-38.2-22.3
			c0.1-0.3,0.1-0.5,0.1-0.8c-0.1-1.3-1-2.3-2.1-2.2c-1.1,0.1-1.9,1.3-1.8,2.6c0.1,0.8,0.5,1.5,1,1.9l-22.7,68.4
			c-0.2-0.1-0.4-0.2-0.6-0.1l-4-37.4c0.8-0.2,1.3-1.2,1.3-2.2c-0.1-1.1-0.9-2-1.8-1.9c-0.3,0-0.6,0.2-0.8,0.4L297,331.9
			c0.4-0.5,0.6-1.2,0.5-1.9c-0.1-1.4-1.1-2.5-2.3-2.3c-1.1,0.1-2,1.4-1.9,2.8c0.1,1.1,0.8,2,1.6,2.3l-5.2,48.4c-0.1,0-0.2,0-0.4,0
			c-1.4,0.2-2.4,1.7-2.3,3.4c0.1,1.7,1.4,3,2.7,2.8c0,0,0.1,0,0.1,0l5.2,29.9c-0.2,0.1-0.3,0.2-0.5,0.3l-28-32.5
			c0.2-0.4,0.4-0.9,0.3-1.4c-0.1-1.2-0.9-2-1.8-1.9c-0.9,0.1-1.6,1.1-1.5,2.3c0.1,1.2,0.9,2,1.8,1.9c0.1,0,0.1,0,0.2-0.1l9.8,34.3
			l-55.6,3.5c0.1-0.3,0.1-0.6,0.1-1c-0.1-1.6-1.3-2.8-2.5-2.6c-1.3,0.1-2.2,1.6-2.1,3.1c0.1,1.6,1.3,2.8,2.5,2.6
			c0.3,0,0.7-0.2,1-0.4l29.5,52.8l-17.8,31.1c-0.4-0.3-0.9-0.4-1.4-0.4c-1.3,0.1-2.2,1.6-2.1,3.1c0.1,1.6,1.3,2.8,2.5,2.6
			c1-0.1,1.8-1,2.1-2.2l54,31.6c0,0.2-0.1,0.4-0.1,0.6c0.1,0.9,0.7,1.5,1.4,1.5c0.7-0.1,1.2-0.9,1.2-1.7c0-0.1,0-0.2-0.1-0.3
			l37.8-22.9c0.4,0.9,1.2,1.4,2.1,1.3c0.4,0,0.8-0.2,1.1-0.6l46.6,38.5c-0.2,0.5-0.3,1.1-0.3,1.7c0.1,1.6,1.3,2.8,2.5,2.6
			c1.3-0.1,2.2-1.6,2.1-3.1c0-0.3-0.1-0.7-0.2-1l14.1-41.1l-0.1,0c0.3-0.5,0.5-1.2,0.5-1.9l0.1,0.2l16.7-8.4l5.6,16.5
			c-0.5,0.4-0.8,1.1-0.8,1.8c0.1,1.1,0.8,1.8,1.7,1.8c0.9-0.1,1.5-1,1.4-2.1c0-0.4-0.2-0.8-0.4-1.1l22.4-30.6
			c0.5,0.5,1.1,0.7,1.7,0.6c1.4-0.2,2.4-1.6,2.2-3.3c-0.1-1.7-1.3-2.9-2.7-2.8c-0.3,0-0.5,0.1-0.8,0.2l-11-12l40.2-9.3
			c0.3,1.2,1.2,2,2.2,1.9c1.1-0.1,2-1.4,1.9-2.8c-0.1-1.4-1.1-2.5-2.3-2.3c-0.2,0-0.4,0.1-0.5,0.2l-17.7-45.8l24-47.3
			c0.5,0.3,1,0.5,1.6,0.4c1.6-0.2,2.8-1.9,2.6-3.9C482.3,367.6,480.9,366.1,479.3,366.3z M443.5,438.8c-0.6,0.1-1.1,0.5-1.3,1.1
			l-21.7-7.9l26.4-29.4l6.8,17.7l-9.5,18.7C444.1,438.9,443.8,438.8,443.5,438.8z M445,399c-0.1,0.3-0.1,0.7-0.1,1.1
			c0.1,1.2,0.9,2.1,1.8,2.2l-26.6,29.6l-23.8-8.7c0-0.3,0.1-0.6,0-0.9c-0.1-0.8-0.3-1.5-0.8-2l15.3-23.6c0.2,0.1,0.4,0.2,0.6,0.1
			c0.6-0.1,1-0.7,0.9-1.4c-0.1-0.7-0.6-1.2-1.1-1.2c-0.1,0-0.1,0-0.2,0l-3.2-8l3-7.9C423.1,385.7,435.3,393.1,445,399z M429.6,478.3
			l-24.9,5.8c-0.3-1.2-1.2-2-2.2-1.9c-1.1,0.1-2,1.4-1.9,2.8c0.1,0.9,0.5,1.7,1.1,2.1l-9.1,28.4c-0.2-0.1-0.5-0.1-0.8-0.1
			c-0.7,0.1-1.3,0.6-1.6,1.3l-18.5-10.3c0.1-0.2,0.1-0.5,0.1-0.7c-0.1-1-0.7-1.7-1.5-1.7L367,459c0.7-0.2,1.2-1,1.1-1.9
			c0-0.4-0.1-0.7-0.3-0.9l24.5-31.3c0.5,0.5,1.1,0.8,1.8,0.7c0.3,0,0.5-0.1,0.7-0.2l9.2,22c-0.5,0.4-0.8,1.1-0.7,1.9
			c0.1,1.2,0.9,2,1.8,1.9l-0.1,0.2L429.6,478.3z M369.1,504.7L329.8,477l0.4-0.2l-0.8-0.1c0.1-0.2,0.1-0.5,0.1-0.8
			c0-0.5-0.3-0.9-0.6-1.2l6.6-14.4c0.4,0.2,0.8,0.3,1.2,0.3c1.3-0.1,2.3-1.6,2.2-3.2c-0.1-1.6-1.3-2.8-2.6-2.7
			c-1.2,0.1-2.1,1.3-2.2,2.8L288,458c-0.1-1-0.8-1.8-1.7-1.7c-0.1,0-0.1,0-0.2,0l-10.2-35.8l18.2-1.2c0.1,1,0.9,1.7,1.7,1.6
			c0.7-0.1,1.2-0.7,1.4-1.5l40.6,4.2l0.2,0l0-0.3c0.3-0.1,0.5-0.2,0.7-0.5l27,33.2c-0.2,0.3-0.3,0.8-0.3,1.2
			c0.1,0.9,0.7,1.6,1.4,1.6l3.4,44.9C369.6,504,369.3,504.3,369.1,504.7z M286.9,460.1c0.6-0.2,1-0.9,1.1-1.6l46.2-0.6
			c0.1,0.9,0.5,1.7,1,2.2l-6.6,14.4c-0.2-0.1-0.4-0.2-0.7-0.1c-0.8,0.1-1.4,0.9-1.3,1.9c0,0.1,0,0.2,0,0.3l-73-5.4c0,0,0,0,0,0
			l33.5-10.9L286.9,460.1z M251.4,474.4c0.7-0.1,1.3-0.5,1.7-1.1l16.2,34.7l-1.6,0.8c-0.3-0.8-1-1.2-1.8-1.2c-0.3,0-0.5,0.1-0.7,0.3
			l-16.6-29.8l2.2-3.8C251,474.5,251.2,474.5,251.4,474.4z M268,509.8c0-0.2,0-0.3-0.1-0.4l1.7-0.9l15.2,32.4l-17.3-29.2
			C267.8,511.2,268,510.5,268,509.8z M253.4,472.9c0.2-0.4,0.3-0.8,0.3-1.3l73.2,5.4c0.1,0.3,0.3,0.5,0.6,0.7l-57.7,30.2
			L253.4,472.9z M410.8,394.5c-0.3,0.3-0.4,0.7-0.4,1.1c0,0.3,0.1,0.5,0.2,0.7L395.3,420c-0.1,0-0.1-0.1-0.2-0.1l12.5-33
			L410.8,394.5z M402.7,373.5c2.6,1.6,5.3,3.1,7.9,4.7l-2.9,7.6L402.7,373.5z M404.8,447c-0.2,0-0.3,0.1-0.4,0.1l-9.2-22
			c0.5-0.4,0.8-0.9,1-1.5l23.6,8.6l-13.7,15.3C405.8,447.2,405.3,447,404.8,447z M391.5,345.9c0.2-0.1,0.3-0.3,0.4-0.4l21.6,20.6
			c-0.2,0.4-0.3,0.8-0.2,1.3c0,0.7,0.4,1.2,0.8,1.6l-3.3,8.8c-2.8-1.7-5.6-3.3-8.4-5L391.5,345.9z M402.1,373.1l5.4,13.2l-12.7,33.3
			c-0.3-0.2-0.7-0.2-1.1-0.2c-0.3,0-0.5,0.1-0.8,0.3l-30.1-68.2c0.3-0.2,0.5-0.6,0.7-1C368.6,353.2,384.5,362.6,402.1,373.1z
			 M361.2,351.8c0.2,0.1,0.5,0.1,0.7,0.1c0.2,0,0.4-0.1,0.6-0.2l30.1,68.2c-0.7,0.6-1.2,1.7-1.1,2.8c0.1,0.7,0.3,1.3,0.6,1.7
			l-24.6,31.3c-0.3-0.2-0.6-0.4-1-0.3c-0.3,0-0.5,0.2-0.7,0.4l-27-33.3c0.1-0.3,0.2-0.7,0.2-1c0-0.5-0.2-0.9-0.5-1.2L361.2,351.8z
			 M331.9,379.1c-0.3,0.4-0.4,1-0.4,1.5c0.1,1.1,0.8,1.9,1.7,1.9l3.9,37.1l-40.5-87.3c0,0,0,0,0.1-0.1L331.9,379.1z M295.3,332.8
			c0.1,0,0.2,0,0.3,0c0.2,0,0.5-0.1,0.7-0.2l40.6,87.6c-0.1,0.1-0.2,0.2-0.3,0.3l-44.7-34.7c0.2-0.5,0.3-1.1,0.3-1.7
			c-0.1-1.4-0.9-2.5-2-2.8L295.3,332.8z M291.6,386.1l44.7,34.7c-0.1,0.3-0.2,0.7-0.2,1.1c0,0.5,0.3,1,0.6,1.3l-39.6-4.1
			c0,0,0-0.1,0-0.1c-0.1-1.1-0.8-1.8-1.7-1.7l-5.2-29.9C290.9,387.1,291.3,386.7,291.6,386.1z M266,385.7c0.1-0.1,0.2-0.2,0.3-0.3
			l28,32.5c-0.2,0.3-0.3,0.6-0.3,1l-18.3,1.2L266,385.7z M275.5,420.6l10.2,35.9c-0.6,0.3-0.9,1.1-0.9,1.9c0,0.2,0.1,0.5,0.1,0.7
			l-64.8-35L275.5,420.6z M219,425.2c0.2-0.2,0.4-0.5,0.6-0.9l66.4,35.8l-32.4,10.5c-0.3-1.4-1.4-2.4-2.6-2.3
			c-1.4,0.2-2.4,1.6-2.2,3.3c0.1,1.2,0.8,2.2,1.7,2.6l-2,3.5L219,425.2z M231.5,512c0-0.1,0-0.3,0-0.5c-0.1-0.8-0.4-1.5-0.8-2
			l17.7-31l16.6,29.6c-0.4,0.5-0.7,1.2-0.6,1.9c0.1,1.2,1,2.2,2,2c0.3,0,0.5-0.1,0.7-0.3l18.7,31.5c-0.1,0.1-0.1,0.2-0.2,0.2
			L231.5,512z M287.8,543.6c-0.3-0.5-0.7-0.7-1.2-0.7c-0.1,0-0.2,0.1-0.4,0.1l-16.3-34.8l58.2-30.4c0,0,0.1,0,0.1,0
			c0.3,0,0.6-0.2,0.9-0.5l0.2-0.1l39.6,27.8c-0.1,0.3-0.1,0.6-0.1,0.9c0,0,0,0.1,0,0.1l-39.1,12.8c-0.3-1.1-1.3-1.9-2.3-1.8
			c-1.2,0.1-2.1,1.5-2,3c0,0.3,0.1,0.5,0.1,0.7L287.8,543.6z M329.8,519.5c0-0.1,0-0.1,0-0.2l39.1-12.8c0.2,0.7,0.8,1.2,1.5,1.2
			l1.6,12.5l-42.7,1.3C329.6,521,329.8,520.3,329.8,519.5z M329.7,522l42.3-1.3l4.9,38.4c-0.5,0.2-1,0.5-1.3,1L329.7,522z
			 M379.4,560.2c-0.5-0.8-1.2-1.2-2.1-1.2l-4.9-38.3l18.6-0.6c0.4,0.3,0.8,0.4,1.2,0.3c0.3,0,0.6-0.2,0.9-0.4L379.4,560.2z
			 M372.4,520.2l-1.6-12.6c0.4-0.1,0.7-0.4,0.9-0.8l18.5,10.3c-0.1,0.3-0.1,0.7-0.1,1.1c0,0.6,0.3,1.1,0.6,1.5L372.4,520.2z
			 M394.1,517.5c-0.1-0.8-0.5-1.5-1.1-1.8l9.1-28.4c0.2,0.1,0.5,0.1,0.8,0.1c0.2,0,0.3-0.1,0.4-0.1l7.5,21.9L394.1,517.5z
			 M403.7,487c0.5-0.3,0.9-0.9,1-1.6l35.3,7.4c0,0.3-0.1,0.6,0,0.9c0,0.2,0.1,0.4,0.1,0.7l-28.9,14.6L403.7,487z M411.3,509.4
			l28.9-14.6c0.1,0.3,0.2,0.5,0.4,0.7l-22.4,30.6c-0.3-0.3-0.6-0.4-1-0.3c-0.1,0-0.2,0-0.3,0.1L411.3,509.4z M441.1,490.9
			c-0.4,0.4-0.8,0.9-1,1.5l-35.4-7.4c0-0.1,0-0.3,0-0.4c0,0,0,0,0,0l25.2-5.8L441.1,490.9z M471.5,466.4c-0.7,0.5-1.1,1.4-1,2.4
			c0,0,0,0,0,0l-40.5,9.4l-24.7-27c0.8-0.2,1.4-1.2,1.3-2.2c0-0.4-0.1-0.7-0.3-1l13.9-15.5l21.9,8c0,0.2,0,0.3,0,0.5
			c0.1,1.1,0.8,1.8,1.7,1.8c0.9-0.1,1.5-1,1.4-2.1c0-0.5-0.3-1-0.6-1.3l9.3-18.4L471.5,466.4z M454,419.9l-6.8-17.7
			c1-0.2,1.7-1.3,1.6-2.6c0-0.4-0.1-0.7-0.3-1l28.8-26.4c0.1,0.2,0.3,0.4,0.5,0.6L454,419.9z"/>
		
			<linearGradient id="SVGID_4_" gradientUnits="userSpaceOnUse" x1="-202.1902" y1="479.9222" x2="124.389" y2="479.9222" gradientTransform="matrix(-0.3143 -0.9493 0.9493 -0.3143 -116.6777 634.7769)">
			<stop  offset="1.212120e-02" style="stop-color:#D3D3D3"/>
			<stop  offset="1" style="stop-color:#C6C6C6"/>
		</linearGradient>
		<path fill="url(#SVGID_4_)" d="M260.9,382.7c0.5,1.9,2.1,2.9,3.7,2.3c0.5-0.2,0.9-0.5,1.2-0.9l27.3,28.7c-0.3,0.6-0.5,1.4-0.3,2.1
			c0.2,0.7,0.7,1.3,1.2,1.5c-1.4,7.4-4.8,25.9-8.4,45.8l-7.7-2c0-0.3,0-0.6-0.1-0.9c-0.3-1.1-1.2-1.7-2.1-1.3
			c-0.9,0.4-1.4,1.5-1.1,2.6c0.1,0.5,0.4,0.9,0.7,1.1l-11.3,30.8c-0.4-0.2-0.9-0.2-1.4,0c-1.1,0.5-1.7,2-1.4,3.4
			c0.4,1.4,1.6,2.1,2.7,1.7c1.1-0.5,1.7-2,1.4-3.4c-0.1-0.2-0.2-0.5-0.3-0.7l18.2-18.8c-4,22.4-7.8,43.9-8.8,51.1
			c-0.2,0-0.4,0-0.7,0.1c-1,0.4-1.6,1.8-1.2,3.1c0.3,1.3,1.4,2,2.5,1.5c0.6-0.3,1.1-0.9,1.3-1.7l59,11.7c0,0.3,0,0.5,0,0.8
			l-28.5,13.3c-0.4-0.9-1.2-1.3-2-1c-0.9,0.4-1.4,1.5-1.1,2.6c0.1,0.4,0.3,0.7,0.5,0.9l-28.9,53.1c-0.5-0.3-1.1-0.4-1.6-0.2
			c-1.1,0.4-1.7,1.9-1.3,3.3c0.4,1.4,1.5,2.1,2.6,1.6c0.9-0.4,1.4-1.4,1.4-2.5l39.3-4.8c0,0.1,0,0.3,0.1,0.4c0.4,1.6,1.9,2.5,3.2,2
			c1.3-0.5,2-2.3,1.6-4c0,0,0-0.1,0-0.1l22.4-13c0.1,0.2,0.2,0.4,0.4,0.5l-19.2,41.2c-0.4-0.2-0.8-0.2-1.2-0.1
			c-0.9,0.4-1.4,1.5-1.1,2.6c0.3,1.1,1.2,1.7,2.1,1.3c0.9-0.4,1.4-1.5,1.1-2.6c0-0.1-0.1-0.2-0.1-0.3l24.7-19.6l15.4,66.2
			c-0.3,0-0.5,0-0.8,0.1c-1.2,0.5-1.9,2.1-1.5,3.7c0.4,1.5,1.7,2.3,3,1.8c1.2-0.5,1.9-2.1,1.5-3.7c-0.1-0.4-0.3-0.8-0.5-1.1
			l34.8-47.6l28.5,14.3c-0.1,0.6-0.1,1.2,0,1.8c0.4,1.5,1.7,2.3,3,1.8c1.2-0.5,1.9-2.1,1.5-3.7c-0.3-1.2-1.2-2-2.2-2l12.5-72.2
			c0.2,0,0.3,0,0.5-0.1c0.7-0.3,1.1-1.2,0.8-2c-0.2-0.8-1-1.3-1.6-1c-0.1,0-0.2,0.1-0.3,0.1l-26.6-40.3c0.6-0.7,0.8-1.8,0.6-2.8
			c-0.1-0.5-0.4-0.9-0.7-1.3l19.7-64.9c0.4,0.2,0.9,0.2,1.4,0c1.2-0.5,1.9-2.1,1.5-3.7c-0.4-1.5-1.7-2.3-3-1.8
			c-0.3,0.1-0.5,0.3-0.7,0.5l-35.5-7.7l0,0.1c-0.5-0.3-1.1-0.4-1.6-0.2l0.2-0.1l-10.4-18.2l11.7-10.6c0.4,0.5,1,0.8,1.6,0.5
			c0.8-0.3,1.3-1.4,1-2.4c-0.3-1-1.2-1.6-2-1.2c-0.3,0.1-0.6,0.4-0.8,0.7l-29.2-20c0.2-0.7,0.3-1.5,0.1-2.2
			c-0.4-1.6-1.8-2.5-3.1-1.9c-1.3,0.5-2,2.3-1.6,3.9c0.1,0.3,0.2,0.6,0.4,0.9l-7,16l-16.5-46.3c0.9-0.6,1.3-1.9,1-3.1
			c-0.4-1.4-1.5-2.1-2.6-1.6c-1.1,0.4-1.7,1.9-1.3,3.3c0.1,0.2,0.1,0.4,0.2,0.6l-32,31.7l-42.7-18.1c0.1-0.7,0.1-1.4,0-2.1
			c-0.5-1.9-2.1-2.9-3.7-2.3C261.2,378.8,260.4,380.8,260.9,382.7z M326.1,409.2c0.2,0.7,0.7,1.2,1.2,1.3l-1.3,27.9l-29.2-25.1
			l12.4-12.3l16.8,7.1C326,408.6,326,408.9,326.1,409.2z M294.5,416.5c0.3,0,0.6,0,0.9-0.1c0.9-0.4,1.5-1.5,1.3-2.7L326,439
			l-1.4,30.7c-0.2,0-0.5,0.1-0.7,0.2c-0.6,0.2-1.1,0.7-1.4,1.4l-22.1-13.1c0.1-0.2,0-0.5,0-0.7c-0.2-0.7-0.8-1-1.3-0.8
			c-0.5,0.2-0.8,1-0.7,1.6c0,0.1,0,0.2,0.1,0.2l-5.5,5.7l-6.9-1.8C289,446,292,429.6,294.5,416.5z M360.3,417.1l10.2,28.7
			c-0.9,0.6-1.3,1.9-1,3.1c0.4,1.3,1.5,2.1,2.6,1.6c0.7-0.3,1.2-1,1.4-1.8l24.4,4.4c0,0.3,0,0.6,0.1,0.9c0.2,0.8,0.8,1.4,1.4,1.7
			l-3.9,24.6c-0.2,0-0.4,0-0.6,0.1c-0.8,0.3-1.2,1.3-1,2.2l-34.6,14.3c-0.3-0.8-1-1.2-1.7-0.9c-0.3,0.1-0.5,0.3-0.7,0.6l-30.2-22.5
			c0.3-0.7,0.3-1.5,0.1-2.3c-0.1-0.3-0.2-0.6-0.3-0.8l15.2-16.1c0.4,0.5,1.1,0.7,1.7,0.5c0.9-0.4,1.4-1.5,1.1-2.6l0.2,0.1
			L360.3,417.1z M394.9,484l-12.8,53.7l-0.3-0.4l0.1,0.9c-0.2,0-0.4,0-0.7,0.1c-0.4,0.2-0.7,0.5-0.9,1l-12.8-4.7
			c0.1-0.5,0.1-1-0.1-1.5c-0.4-1.6-1.8-2.4-3-1.9c-1.3,0.5-1.9,2.2-1.5,3.8c0.4,1.4,1.5,2.2,2.7,2l11,55.6c-0.8,0.4-1.2,1.4-0.9,2.4
			c0,0.1,0.1,0.1,0.1,0.2L350,615.4l-5.1-21.6c0.7-0.4,1.1-1.4,0.9-2.4c-0.2-0.8-0.8-1.3-1.5-1.3l-5.9-49.8l0-0.3l-0.2,0.1
			c-0.1-0.3-0.3-0.5-0.5-0.7l20-40.1c0.3,0.2,0.7,0.2,1,0.1c0.7-0.3,1.1-1.1,1-2l34.6-14.3C394.3,483.5,394.6,483.8,394.9,484z
			 M378.6,593.2c-0.3-0.7-0.9-1-1.5-0.9l-11-55.6c0.7-0.3,1.2-1,1.5-1.7l12.8,4.7c0,0.3,0,0.5,0.1,0.8c0.2,0.9,1.1,1.4,1.8,1.1
			c0.1,0,0.1-0.1,0.2-0.1l12.4,89.2c0,0,0,0,0,0l-16.2-37.9L378.6,593.2z M397.9,632.6c-0.2-0.8-0.7-1.4-1.3-1.8l23.6-27.5l1,1.8
			c-0.5,0.6-0.7,1.5-0.5,2.4c0.1,0.3,0.2,0.6,0.4,0.8l-19.6,26.8l-3.5-1.7C398,633.1,398,632.9,397.9,632.6z M422,604.6
			c-0.1,0-0.2,0.1-0.3,0.2l-1.1-1.8l22-25.6l-19,27.5C423.1,604.6,422.5,604.4,422,604.6z M396.3,630.7c-0.3-0.1-0.7-0.2-1.1-0.1
			l-12.4-89.4c0.2-0.2,0.3-0.5,0.4-0.9L420,603L396.3,630.7z M298.7,458.8c0.3,0.3,0.6,0.4,1,0.2c0.2-0.1,0.4-0.3,0.5-0.5l22.1,13.1
			c0,0.1,0,0.2-0.1,0.2l-28.8-7.6L298.7,458.8z M284,473.4c0.6-3.5,1.3-7,1.9-10.6l6.6,1.8L284,473.4z M341.4,454
			c0,0.2,0.1,0.3,0.2,0.5l-15.2,16.1c-0.4-0.5-0.9-0.8-1.4-0.9l1.4-30.4l15.1,13C341.3,452.9,341.2,453.5,341.4,454z M264.9,493.2
			c-0.1-0.2-0.3-0.3-0.5-0.4l11.3-30.7c0.3,0.1,0.7,0.1,1,0c0.5-0.2,0.9-0.7,1.1-1.3l7.7,2c-0.7,3.7-1.4,7.5-2,11.2L264.9,493.2z
			 M283.9,474.2l9.2-9.5l29.1,7.7c0,0.4,0,0.9,0.1,1.4c0.1,0.3,0.2,0.6,0.4,0.9l-46.8,51.8c-0.3-0.3-0.6-0.5-0.9-0.6
			C275.9,519,279.6,497.8,283.9,474.2z M276.5,528.4c0-0.3,0-0.6-0.1-0.9c-0.1-0.2-0.2-0.5-0.3-0.7l46.8-51.8
			c0.6,0.8,1.6,1.1,2.5,0.7c0.5-0.2,0.9-0.6,1.2-1.1l30.2,22.5c-0.1,0.4-0.2,0.8,0,1.2c0.1,0.3,0.2,0.6,0.4,0.8l-20,40.1
			c-0.3-0.1-0.6-0.1-0.8,0c-0.4,0.2-0.7,0.5-0.8,0.9L276.5,528.4z M304.6,557.5c0.4,0.2,0.9,0.3,1.3,0.1c0.8-0.3,1.3-1.4,1.1-2.5
			l28.3-13.2l-59.4,68.7c0,0,0,0-0.1-0.1L304.6,557.5z M276.5,612c0-0.1,0-0.2-0.1-0.3c-0.1-0.3-0.2-0.5-0.3-0.8l59.6-68.9
			c0.1,0.1,0.2,0.2,0.3,0.3l-17.1,61.8c-0.5-0.1-0.9-0.1-1.4,0.1c-1.1,0.4-1.8,1.7-1.7,3L276.5,612z M319.3,604.3l17.1-61.8
			c0.3,0.1,0.6,0.1,0.9,0c0.4-0.2,0.7-0.5,0.9-1l5.8,48.6c0,0,0,0-0.1,0c-0.8,0.3-1.3,1.4-1,2.4l-22.3,13
			C320.2,605.1,319.8,604.6,319.3,604.3z M324.8,635.4c-0.1-0.1-0.2-0.3-0.3-0.4l19.2-41.2c0.3,0.1,0.5,0.2,0.8,0.1l5.1,21.8
			L324.8,635.4z M350.1,615.9l25.9-20.5c0.4,0.6,1.1,0.9,1.7,0.6c0.2-0.1,0.3-0.2,0.5-0.3l-12.7,86.1L350.1,615.9z M366.6,682.9
			c-0.2-0.2-0.5-0.4-0.8-0.5l13-88.2l15.6,36.6c-1,0.7-1.6,2.2-1.2,3.7c0.4,1.6,1.8,2.5,3.1,1.9c1-0.4,1.6-1.4,1.7-2.6l3.2,1.6
			L366.6,682.9z M432,648c-0.1,0-0.2,0.1-0.4,0.1c-0.6,0.3-1.1,0.8-1.4,1.4l-28.4-14.3l19.5-26.7c0.5,0.4,1.1,0.6,1.6,0.3
			c1-0.4,1.5-1.7,1.2-2.8c-0.1-0.3-0.2-0.6-0.4-0.8l20.5-29.7c0.1,0.1,0.1,0.1,0.2,0.1L432,648z M444.1,573.1
			c-0.3,0.4-0.4,1-0.3,1.6c0,0.1,0.1,0.3,0.2,0.4l-23.6,27.6l-37.2-63.2c0,0,0-0.1,0-0.1c-0.1-0.4-0.3-0.7-0.6-0.9l-0.2-0.3l12.9-54
			c0.2,0,0.5,0,0.7-0.1c0,0,0,0,0.1,0l19,44.2c-0.8,0.7-1.2,1.9-0.9,3.2c0.4,1.4,1.6,2.2,2.8,1.7c0.2-0.1,0.4-0.2,0.5-0.3
			L444.1,573.1z M415.5,527.9c-0.1,0-0.1,0.1-0.2,0.1l-19-44.2c0.5-0.5,0.8-1.3,0.6-2.1l9.5-4.8l10.7,51.2
			C416.7,527.8,416.1,527.7,415.5,527.9z M417.5,527.5l-10.7-50.7l29-14.7c0.2,0.6,0.6,1,1.1,1.3L417.5,527.5z M436.2,458.9
			c-0.5,0.7-0.7,1.8-0.4,2.7l-29,14.7l-4.7-22.3c0.1-0.5,0.1-1,0-1.6c-0.1-0.4-0.3-0.7-0.5-1L436.2,458.9z M406.4,476.4l-9.5,4.8
			c-0.2-0.4-0.5-0.7-0.9-0.9l3.9-24.6c0.3,0,0.6,0,0.9-0.1c0.5-0.2,0.8-0.6,1.1-1L406.4,476.4z M399.2,450.9c-0.6,0.3-1,1-1.2,1.7
			l-24.4-4.4c0-0.3,0-0.6-0.1-0.9c0-0.2-0.1-0.3-0.2-0.5l15.5-14L399.2,450.9z M373.1,446.3c-0.4-0.5-0.9-0.8-1.5-0.9l-2.3-44.2
			c0.2,0,0.5-0.1,0.7-0.2c0.2-0.1,0.3-0.2,0.5-0.3l18,31.5L373.1,446.3z M389,432l-18-31.5c0.2-0.2,0.3-0.4,0.5-0.7l29.2,20
			c-0.1,0.4-0.2,0.9,0,1.3c0,0.1,0.1,0.2,0.1,0.3L389,432z M367.6,400.4c0.4,0.4,0.9,0.7,1.4,0.8l2.3,44.3c-0.1,0-0.2,0-0.3,0.1
			c0,0,0,0,0,0l-10.3-29L367.6,400.4z M341.4,369.2c0.5,0.7,1.4,1,2.1,0.7c0,0,0,0,0,0l16.6,46.6l-15.6,35.9c-0.4-0.9-1.2-1.4-2-1.1
			c-0.3,0.1-0.5,0.3-0.7,0.6l-15.3-13.2l1.3-28.2c0.1,0,0.3,0,0.4-0.1c0.8-0.3,1.3-1.4,1-2.4c-0.3-1-1.2-1.6-2-1.2
			c-0.4,0.2-0.7,0.5-0.9,1l-16.6-7L341.4,369.2z M308.8,400.9l-12.3,12.2c-0.4-1.1-1.4-1.7-2.4-1.3c-0.3,0.1-0.5,0.3-0.7,0.6
			L266,383.7c0.1-0.2,0.3-0.5,0.3-0.7L308.8,400.9z"/>
		
			<linearGradient id="SVGID_5_" gradientUnits="userSpaceOnUse" x1="3551.6021" y1="651.6608" x2="3680.946" y2="438.7875" gradientTransform="matrix(-0.8496 -0.5274 0.5274 -0.8496 3020.5693 2784.9038)">
			<stop  offset="2.424240e-02" style="stop-color:#D4D4D4"/>
			<stop  offset="1" style="stop-color:#D3D3D3"/>
		</linearGradient>
		<path fill="url(#SVGID_5_)" d="M350.5,286.6c-1.5,0.8-2.2,2.9-1.6,4.7c0.2,0.6,0.5,1,0.8,1.4l-21.2,35.8c-0.5-0.4-1.1-0.5-1.7-0.2
			c-0.6,0.3-1,0.9-1.1,1.6c-6.1-1.2-21.2-4.1-37.5-7.1l1.1-9.6c0.2,0,0.5,0,0.7-0.2c0.9-0.4,1.3-1.7,0.9-2.7
			c-0.4-1.1-1.3-1.6-2.2-1.1c-0.4,0.2-0.7,0.6-0.9,1l-25.6-11.7c0.1-0.5,0.1-1.1-0.1-1.7c-0.5-1.4-1.7-2-2.8-1.4
			c-1.1,0.6-1.6,2.1-1.2,3.5c0.5,1.4,1.7,2,2.8,1.4c0.2-0.1,0.4-0.2,0.5-0.4l16.5,21.1c-18.3-3.4-36-6.5-41.8-7.2
			c0-0.3-0.1-0.5-0.1-0.8c-0.4-1.2-1.6-1.8-2.5-1.3c-1,0.5-1.5,1.9-1.1,3.2c0.3,0.8,0.8,1.3,1.4,1.4l-5.2,73.7c-0.2,0-0.4,0-0.6,0.1
			l-12.8-34.3c0.7-0.5,1-1.6,0.7-2.6c-0.4-1.1-1.3-1.6-2.2-1.1c-0.3,0.2-0.5,0.4-0.7,0.7l-44.9-31.8c0.2-0.6,0.3-1.4,0-2
			c-0.4-1.3-1.7-1.9-2.7-1.4c-1.1,0.5-1.6,2-1.1,3.4c0.4,1.1,1.2,1.7,2.1,1.6l6.7,48.2c-0.1,0-0.2,0.1-0.3,0.1
			c-1.3,0.7-1.9,2.5-1.4,4.1c0.5,1.6,2,2.4,3.3,1.7c0,0,0.1,0,0.1-0.1l12.1,26.6c-0.2,0.1-0.3,0.3-0.4,0.5L151.9,383
			c0.1-0.5,0.1-1,0-1.5c-0.4-1.1-1.3-1.6-2.2-1.1c-0.9,0.4-1.3,1.7-0.9,2.7c0.4,1.1,1.3,1.6,2.2,1.1c0.1,0,0.1-0.1,0.2-0.1
			l17.6,29.1l-52.2,23.9c0-0.3-0.1-0.7-0.2-1c-0.5-1.5-1.9-2.2-3.1-1.6c-1.2,0.6-1.8,2.3-1.3,3.8c0.5,1.5,1.9,2.2,3.1,1.6
			c0.3-0.2,0.6-0.4,0.8-0.7l40.8,39.5l-9.5,36.3c-0.5-0.1-1-0.1-1.4,0.1c-1.2,0.6-1.8,2.3-1.3,3.8c0.5,1.5,1.9,2.2,3.1,1.6
			c0.9-0.5,1.5-1.7,1.4-2.9l59.1,10.2c0,0.2,0,0.4,0.1,0.6c0.3,0.8,1,1.2,1.7,0.9c0.7-0.3,1-1.3,0.7-2.1c0-0.1-0.1-0.2-0.1-0.3
			l30.5-35.8c0.6,0.7,1.5,0.9,2.3,0.5c0.4-0.2,0.7-0.5,1-0.9l53.7,19.6c-0.1,0.5-0.1,1.1,0.1,1.7c0.5,1.5,1.9,2.2,3.1,1.6
			c1.2-0.6,1.8-2.3,1.3-3.8c-0.1-0.3-0.3-0.6-0.4-0.8l3.6-44.4l-0.1,0c0.2-0.6,0.2-1.3,0-2l0.1,0.2l13.9-14.2l9.4,13.7
			c-0.4,0.5-0.5,1.3-0.3,2c0.3,1,1.2,1.5,2,1c0.8-0.4,1.2-1.5,0.8-2.5c-0.1-0.4-0.4-0.7-0.6-0.9l14-37.5c0.6,0.3,1.2,0.3,1.8,0
			c1.3-0.6,1.9-2.4,1.3-4c-0.5-1.6-2-2.3-3.2-1.7c-0.3,0.1-0.5,0.3-0.7,0.5l-13.4-7.4l36.1-23.7c0.5,1,1.6,1.4,2.5,1
			c1.1-0.5,1.6-2.1,1.1-3.4c-0.4-1.3-1.7-1.9-2.7-1.4c-0.2,0.1-0.3,0.2-0.5,0.3l-27.9-37.2l11.5-54c0.5,0.1,1.1,0.1,1.7-0.2
			c1.5-0.8,2.2-2.9,1.6-4.7C353.6,286.7,351.9,285.9,350.5,286.6z M333.8,369c-0.5,0.3-0.9,0.9-0.9,1.6l-22.6,0.4l18.1-37.8
			l10.8,14.4l-4.5,21.3C334.3,368.9,334,368.9,333.8,369z M325.6,330.5c0,0.3,0,0.7,0.1,1.1c0.4,1.1,1.4,1.7,2.3,1.4L309.8,371
			l-24.8,0.5c0-0.3-0.1-0.6-0.2-0.9c-0.2-0.7-0.7-1.3-1.2-1.6l8.9-28.2c0.2,0,0.4,0,0.6-0.1c0.5-0.3,0.8-1,0.6-1.7
			c-0.2-0.7-0.8-1-1.4-0.7c-0.1,0-0.1,0.1-0.2,0.1l-5-6.4l1-8.7C301.4,325.9,314.9,328.4,325.6,330.5z M329.9,411.9l-22.4,14.7
			c-0.5-1-1.6-1.4-2.5-1c-1.1,0.5-1.6,2.1-1.1,3.4c0.3,0.9,0.9,1.4,1.6,1.5l-1.8,30.5c-0.3,0-0.5,0.1-0.8,0.2
			c-0.7,0.3-1.1,1-1.2,1.8l-20.1-3c0-0.2,0-0.5-0.1-0.7c-0.3-0.9-1.1-1.4-1.9-1.1l-14-41.6c0.6-0.4,0.9-1.4,0.6-2.2
			c-0.1-0.3-0.3-0.6-0.5-0.8l15.9-38.9c0.6,0.3,1.3,0.3,1.9,0c0.2-0.1,0.5-0.3,0.6-0.5l14.1,17.6c-0.4,0.6-0.5,1.4-0.2,2.1
			c0.4,1.1,1.3,1.6,2.2,1.1l-0.1,0.2L329.9,411.9z M278.5,459.3l-44.2-11.9l0.3-0.4l-0.7,0.2c0-0.3,0-0.5-0.1-0.8
			c-0.2-0.5-0.5-0.8-0.8-1l2.9-16.2c0.4,0.1,0.8,0,1.2-0.2c1.2-0.6,1.8-2.4,1.3-3.9c-0.5-1.5-1.9-2.2-3.1-1.6
			c-1.1,0.6-1.7,2-1.4,3.4l-44,17.6c-0.4-0.9-1.2-1.4-2-1c-0.1,0-0.1,0.1-0.2,0.1l-18.4-30.4l17.1-7.8c0.4,0.9,1.2,1.3,2,0.9
			c0.6-0.3,1-1.1,0.9-2l39.7-10.9l0.2-0.1l-0.1-0.3c0.2-0.2,0.4-0.4,0.5-0.7l33.7,21.8c-0.1,0.4-0.1,0.8,0,1.3c0.3,0.8,1,1.3,1.7,1
			l14,41.6C278.9,458.6,278.7,458.9,278.5,459.3z M189.4,447.1c0.5-0.4,0.8-1.2,0.6-1.9l44-17.6c0.3,0.9,0.9,1.5,1.5,1.7l-2.9,16.2
			c-0.2,0-0.4,0-0.7,0.1c-0.7,0.4-1.1,1.4-0.8,2.3c0,0.1,0.1,0.2,0.1,0.3l-71,21.8c0,0,0,0,0,0l29.4-22.7L189.4,447.1z M159,473.9
			c0.6-0.3,1.1-0.9,1.3-1.7l23.9,27.1l-1.3,1.4c-0.5-0.6-1.3-0.8-2-0.5c-0.2,0.1-0.4,0.3-0.6,0.5l-23.1-22.3l1.2-4.4
			C158.6,474.1,158.8,474,159,473.9z M183.3,501.5c0-0.1-0.1-0.3-0.2-0.4l1.4-1.4l22.3,25.3l-23.6-21.5
			C183.4,502.9,183.5,502.2,183.3,501.5z M160.4,471.7c0.1-0.4,0.1-0.9,0-1.3l71.2-21.8c0.2,0.2,0.5,0.4,0.7,0.4L184.5,499
			L160.4,471.7z M291.8,338.8c-0.2,0.3-0.3,0.8-0.1,1.2c0.1,0.3,0.2,0.5,0.4,0.6l-8.9,28.2c-0.1,0-0.1,0-0.2-0.1l4-36.1L291.8,338.8
			z M279,321.7c2.9,0.5,5.8,1.1,8.7,1.6l-0.9,8.3L279,321.7z M298.8,391.1c-0.1,0.1-0.3,0.2-0.4,0.3l-14.1-17.6
			c0.4-0.5,0.6-1.1,0.6-1.8l24.6-0.5l-9.4,19.6C299.7,390.9,299.2,390.9,298.8,391.1z M261.7,299.6c0.1-0.2,0.2-0.4,0.3-0.6
			l25.6,11.7c-0.1,0.4-0.1,0.9,0.1,1.3c0.2,0.6,0.6,1.1,1.1,1.2l-1.1,9.6c-3-0.6-6.1-1.1-9.2-1.7L261.7,299.6z M278.4,321.6
			l8.3,10.7l-4.1,36.5c-0.4,0-0.7,0-1.1,0.2c-0.3,0.1-0.5,0.3-0.7,0.5l-45.2-54c0.2-0.3,0.4-0.7,0.4-1.2
			C241.7,315,259,318,278.4,321.6z M234.2,316.4c0.2,0,0.5-0.1,0.7-0.2c0.2-0.1,0.4-0.2,0.5-0.4l45.2,54c-0.6,0.8-0.7,2-0.4,3.1
			c0.2,0.6,0.6,1.1,1,1.4l-15.9,38.9c-0.3-0.1-0.7-0.1-1,0c-0.3,0.1-0.5,0.4-0.6,0.6l-33.8-21.8c0.1-0.3,0-0.7-0.1-1
			c-0.2-0.5-0.4-0.8-0.8-1L234.2,316.4z M212.8,353.3c-0.2,0.5-0.2,1.1,0,1.6c0.3,1,1.2,1.5,2.1,1.2l12.7,33.9l-59.7-68.4
			c0,0,0-0.1,0.1-0.1L212.8,353.3z M166.8,322.5c0.1,0,0.2-0.1,0.3-0.1c0.2-0.1,0.4-0.3,0.6-0.5l59.9,68.6c-0.1,0.1-0.2,0.2-0.2,0.4
			l-51.1-16.6c0.1-0.6,0-1.2-0.1-1.8c-0.4-1.3-1.5-2-2.6-1.9L166.8,322.5z M176.1,374.8l51,16.6c-0.1,0.3,0,0.7,0.1,1.1
			c0.2,0.5,0.5,0.8,0.9,1l-38.8,10.7c0,0,0-0.1,0-0.1c-0.3-1-1.2-1.4-2-1l-12.1-26.6C175.6,376,175.9,375.4,176.1,374.8z
			 M151.5,383.9c0.1-0.1,0.2-0.3,0.3-0.4l34.6,20.7c-0.1,0.3-0.1,0.7,0,1l-17.2,7.9L151.5,383.9z M169,413.6l18.4,30.5
			c-0.4,0.5-0.6,1.4-0.4,2.1c0.1,0.2,0.2,0.4,0.3,0.6l-70.3-9.5L169,413.6z M116.2,438.8c0.2-0.3,0.3-0.7,0.3-1l72,9.7l-28.4,22
			c-0.6-1.2-1.9-1.8-3-1.2c-1.3,0.6-1.9,2.4-1.3,4c0.4,1.2,1.3,1.9,2.2,1.9l-1.1,4.1L116.2,438.8z M149,517.1c0-0.1-0.1-0.3-0.1-0.4
			c-0.2-0.7-0.7-1.3-1.3-1.6l9.4-36.1l22.9,22.2c-0.3,0.6-0.4,1.4-0.1,2c0.4,1.2,1.4,1.7,2.4,1.2c0.3-0.1,0.5-0.3,0.6-0.6l25.4,23.2
			c0,0.1-0.1,0.2-0.1,0.3L149,517.1z M210.3,526.5c-0.4-0.3-0.8-0.5-1.3-0.2c-0.1,0.1-0.2,0.1-0.3,0.2l-23.9-27.2l48.2-50.5
			c0,0,0.1,0,0.1,0c0.3-0.2,0.6-0.4,0.7-0.8l0.2-0.2l44.5,12c0,0.3,0,0.6,0.1,0.9c0,0,0,0,0,0.1l-34.3,26.6c-0.6-1-1.7-1.4-2.6-0.9
			c-1.1,0.6-1.7,2.2-1.2,3.6c0.1,0.2,0.2,0.5,0.3,0.7L210.3,526.5z M244.6,488c0-0.1,0-0.1-0.1-0.2l34.3-26.6
			c0.4,0.6,1.1,0.9,1.7,0.6l4.6,11.4l-40.4,17C244.8,489.5,244.9,488.7,244.6,488z M245.1,490.4l40.1-16.8l13.9,34.8
			c-0.5,0.3-0.8,0.8-1,1.4L245.1,490.4z M301.8,508.5c-0.6-0.6-1.5-0.7-2.2-0.4l-13.9-34.7l17.6-7.4c0.4,0.1,0.8,0.1,1.2-0.1
			c0.3-0.2,0.6-0.4,0.8-0.7L301.8,508.5z M285.4,473l-4.6-11.4c0.3-0.3,0.6-0.7,0.6-1.1l20.1,3c0,0.3,0,0.7,0.2,1.1
			c0.2,0.6,0.5,1,0.9,1.3L285.4,473z M305.5,462.3c-0.3-0.7-0.9-1.2-1.5-1.3l1.8-30.5c0.3,0,0.5-0.1,0.8-0.2
			c0.1-0.1,0.3-0.2,0.4-0.3l12.4,18.1L305.5,462.3z M307.3,429.8c0.4-0.5,0.6-1.2,0.6-1.9l35.5-6c0,0.3,0.1,0.6,0.2,0.9
			c0.1,0.2,0.2,0.4,0.3,0.6l-24.1,24.6L307.3,429.8z M320,448.3l24.1-24.6c0.2,0.2,0.4,0.4,0.6,0.5l-14,37.5c-0.3-0.1-0.7-0.1-1.1,0
			c-0.1,0-0.2,0.1-0.3,0.2L320,448.3z M343.9,419.6c-0.3,0.5-0.5,1.1-0.6,1.7l-35.5,6c0-0.1-0.1-0.3-0.1-0.4c0,0,0,0,0,0l22.7-14.9
			L343.9,419.6z M367.1,385c-0.5,0.7-0.7,1.8-0.4,2.7c0,0,0,0,0,0l-36.4,23.9l-30.1-16.7c0.7-0.5,1-1.6,0.7-2.6
			c-0.1-0.4-0.3-0.6-0.5-0.9l9.5-19.9l22.8-0.4c0,0.2,0,0.3,0.1,0.5c0.3,1,1.2,1.5,2,1c0.8-0.4,1.2-1.5,0.8-2.5
			c-0.2-0.5-0.5-0.9-0.9-1.1l4.5-21L367.1,385z M339.2,347.1l-10.8-14.4c0.9-0.6,1.3-1.9,0.9-3c-0.1-0.3-0.3-0.6-0.5-0.9L350,293
			c0.2,0.2,0.4,0.3,0.6,0.4L339.2,347.1z"/>
		
			<linearGradient id="SVGID_6_" gradientUnits="userSpaceOnUse" x1="1050.1754" y1="-80.0769" x2="1190.2876" y2="-310.6724" gradientTransform="matrix(0.4229 -0.9062 0.9062 0.4229 41.081 1329.0665)">
			<stop  offset="1.212120e-02" style="stop-color:#E6E6E6"/>
			<stop  offset="1" style="stop-color:#EAEAEA"/>
		</linearGradient>
		<path fill="url(#SVGID_6_)" d="M455.5,360.4c-0.8-1.7-2.6-2.3-4-1.4c-0.4,0.3-0.8,0.7-1,1.2l-31.3-21.8c0.2-0.7,0.2-1.5-0.1-2.1
			c-0.3-0.7-0.9-1.1-1.4-1.2c0.2-7.6,0.7-26.6,1.2-47l7.9,0.2c0,0.3,0.1,0.6,0.2,0.8c0.5,1,1.5,1.4,2.3,0.8c0.8-0.6,1.1-1.8,0.6-2.8
			c-0.2-0.5-0.5-0.8-0.9-0.9l6.4-32.9c0.5,0.1,0.9,0,1.4-0.3c1-0.7,1.4-2.3,0.8-3.6c-0.6-1.3-1.9-1.7-2.9-1c-1,0.7-1.4,2.3-0.8,3.6
			c0.1,0.2,0.2,0.4,0.4,0.6l-15,22.8c0.5-22.9,0.9-45,0.8-52.3c0.2,0,0.4-0.1,0.6-0.3c0.9-0.7,1.3-2.1,0.7-3.3
			c-0.5-1.2-1.7-1.6-2.7-0.9c-0.6,0.4-0.9,1.2-1,1.9l-59.7,2.4c0-0.3,0-0.5-0.1-0.8l26-19.8c0.5,0.8,1.4,1,2.1,0.5
			c0.8-0.6,1.1-1.8,0.6-2.8c-0.2-0.3-0.4-0.6-0.6-0.8l20.2-58.9c0.5,0.2,1.1,0.2,1.6-0.2c1-0.7,1.4-2.3,0.8-3.5
			c-0.6-1.2-1.8-1.7-2.8-1c-0.8,0.6-1.2,1.7-1,2.7L367,152.4c0-0.1-0.1-0.3-0.2-0.4c-0.7-1.5-2.2-2-3.4-1.2c-1.2,0.8-1.7,2.8-1,4.3
			c0,0,0,0.1,0.1,0.1l-19.9,18.1c-0.1-0.2-0.3-0.3-0.4-0.4l12.5-45c0.4,0.1,0.8,0,1.2-0.2c0.8-0.6,1.1-1.8,0.6-2.8
			c-0.5-1-1.5-1.4-2.3-0.8c-0.8,0.6-1.1,1.8-0.6,2.8c0,0.1,0.1,0.2,0.1,0.2l-21.3,25L307,90.8c0.3-0.1,0.5-0.2,0.8-0.3
			c1.1-0.8,1.5-2.6,0.9-3.9c-0.6-1.4-2.1-1.9-3.2-1.1c-1.1,0.8-1.5,2.5-0.9,3.9c0.2,0.4,0.4,0.7,0.7,0.9l-26.8,54.9l-30.2-7.3
			c0.1-0.6,0-1.2-0.3-1.7c-0.6-1.4-2.1-1.9-3.2-1.1c-1.1,0.8-1.5,2.5-0.9,3.9c0.5,1.1,1.5,1.6,2.5,1.4l-1.2,73.9
			c-0.2,0-0.3,0.1-0.5,0.2c-0.6,0.4-0.8,1.4-0.5,2.2c0.4,0.8,1.1,1.1,1.8,0.6c0.1-0.1,0.2-0.1,0.2-0.2l32.3,33.3
			c-0.5,0.8-0.5,2-0.1,2.9c0.2,0.5,0.5,0.8,0.9,1.1l-9.4,68.3c-0.5,0-0.9,0.1-1.3,0.4c-1.1,0.8-1.5,2.5-0.9,3.9
			c0.6,1.4,2.1,1.9,3.2,1.1c0.2-0.2,0.4-0.4,0.6-0.6l36.1-0.9l0-0.1c0.5,0.2,1.1,0.1,1.6-0.2l-0.1,0.2l13,15.4L312,355
			c-0.5-0.4-1.1-0.5-1.7-0.1c-0.8,0.5-1,1.7-0.6,2.6c0.4,0.9,1.4,1.3,2.1,0.7c0.3-0.2,0.5-0.5,0.6-0.9l31.7,12.7
			c-0.1,0.7-0.1,1.5,0.2,2.2c0.7,1.5,2.2,2,3.4,1.2c1.2-0.8,1.6-2.7,0.9-4.2c-0.1-0.3-0.3-0.5-0.5-0.8l4.4-17.3l23.3,41.6
			c-0.7,0.8-1,2.1-0.5,3.2c0.6,1.2,1.8,1.7,2.8,1c1-0.7,1.4-2.3,0.8-3.5c-0.1-0.2-0.2-0.4-0.3-0.5l26.5-38.7l44.7,7.7
			c0,0.7,0.1,1.4,0.4,2c0.8,1.7,2.6,2.3,4,1.4C455.8,364.4,456.3,362.2,455.5,360.4z M387.4,349.7c-0.3-0.6-0.8-1-1.4-1l-3-27.7
			l32.5,17.8l-10.3,15l-17.6-3C387.6,350.4,387.5,350,387.4,349.7z M417.4,335.1c-0.3,0-0.6,0.1-0.8,0.3c-0.9,0.6-1.2,1.9-0.9,3
			l-32.7-17.9l-3.3-30.5c0.2-0.1,0.5-0.2,0.7-0.3c0.5-0.4,0.9-1,1.1-1.7l23.7,7.6c0,0.2,0,0.5,0.1,0.7c0.3,0.6,0.9,0.8,1.4,0.5
			c0.5-0.3,0.7-1.1,0.4-1.8c0-0.1-0.1-0.1-0.1-0.2l4.5-6.9l7.1,0.2C418.2,304.8,417.7,321.8,417.4,335.1z M352.6,350.1l-14.4-25.8
			c0.7-0.8,1-2.1,0.5-3.2c-0.6-1.2-1.8-1.7-2.8-1c-0.6,0.4-1,1.3-1.1,2.1l-24.7,1.4c0-0.3-0.1-0.6-0.2-0.9c-0.3-0.8-1-1.2-1.6-1.3
			l0-25.1c0.2,0,0.4-0.1,0.6-0.2c0.7-0.5,1-1.5,0.7-2.4l31.7-22.2c0.4,0.7,1.2,0.9,1.8,0.5c0.2-0.2,0.4-0.4,0.6-0.7l33.1,14.9
			c-0.2,0.8-0.1,1.6,0.2,2.3c0.1,0.3,0.3,0.5,0.5,0.7l-12.5,19.4c-0.5-0.4-1.2-0.4-1.7-0.1c-0.8,0.6-1.1,1.8-0.6,2.8l-0.2-0.1
			L352.6,350.1z M308.4,292.6l4.3-55.7l0.3,0.4l-0.3-0.9c0.2,0,0.4-0.1,0.6-0.2c0.4-0.3,0.6-0.7,0.7-1.1l13.3,1.6
			c0,0.5,0.1,1,0.3,1.5c0.7,1.4,2.1,1.9,3.3,1.1c1.2-0.8,1.6-2.6,0.9-4.1c-0.6-1.3-1.8-1.8-2.9-1.3l-19.4-52
			c0.7-0.5,0.9-1.7,0.5-2.6c0-0.1-0.1-0.1-0.1-0.2l22.2-26.2l8.3,20c-0.7,0.6-0.9,1.7-0.5,2.5c0.3,0.8,1,1.1,1.7,0.9l13.5,47.5
			l0.1,0.3l0.2-0.2c0.2,0.3,0.4,0.5,0.6,0.6l-13.5,44c-0.3-0.1-0.7,0-1,0.2c-0.6,0.4-0.9,1.4-0.6,2.2l-31.7,22.2
			C309.1,292.9,308.7,292.7,308.4,292.6z M307.6,181.5c0.4,0.6,1,0.8,1.6,0.6l19.4,51.9c-0.6,0.5-1.1,1.2-1.2,2.1l-13.3-1.6
			c0-0.3-0.1-0.5-0.2-0.8c-0.4-0.9-1.3-1.2-1.9-0.7c-0.1,0-0.1,0.1-0.2,0.2l-25.9-84.7c0,0,0,0,0,0l21.7,33.4L307.6,181.5z
			 M282.5,147.3c0.3,0.7,0.9,1.2,1.5,1.5l-18.9,32.5l-1.3-1.5c0.4-0.7,0.5-1.6,0.1-2.5c-0.1-0.3-0.3-0.5-0.5-0.7l15.1-31l3.7,0.9
			C282.3,146.9,282.4,147.1,282.5,147.3z M263.2,180.5c0.1-0.1,0.2-0.2,0.3-0.3l1.3,1.5l-17.7,30.4l14.4-31.5
			C262.1,180.8,262.7,180.8,263.2,180.5z M284.4,148.9c0.4,0,0.7,0,1.1-0.2l26,84.9c-0.1,0.3-0.2,0.6-0.2,0.9l-45.9-52.8
			L284.4,148.9z M406.6,294.6c-0.3-0.2-0.7-0.2-1,0c-0.2,0.1-0.3,0.3-0.4,0.6l-23.7-7.6c0-0.1,0-0.2,0-0.2L411,288L406.6,294.6z
			 M418.8,276.8c-0.1,3.6-0.2,7.2-0.3,10.9l-6.8-0.2L418.8,276.8z M365.5,309.4c-0.1-0.2-0.2-0.3-0.3-0.4l12.5-19.4
			c0.4,0.4,1,0.6,1.5,0.5l3.3,30.2l-16.9-9.2C365.8,310.5,365.7,309.9,365.5,309.4z M434.6,252.9c0.2,0.1,0.3,0.2,0.5,0.3l-6.4,32.9
			c-0.3-0.1-0.7,0-1,0.2c-0.5,0.3-0.8,0.9-0.8,1.5l-7.9-0.2c0.1-3.8,0.2-7.7,0.3-11.5L434.6,252.9z M418.9,276l-7.6,11.5l-29.8-0.7
			c0-0.4-0.1-0.9-0.3-1.3c-0.1-0.3-0.3-0.6-0.5-0.8l38-61.9c0.3,0.2,0.6,0.3,1,0.4C419.8,230.1,419.4,251.8,418.9,276z M417.8,221.1
			c0,0.3,0.1,0.6,0.2,0.9c0.1,0.2,0.2,0.4,0.4,0.6l-38,61.9c-0.7-0.6-1.7-0.7-2.5-0.1c-0.5,0.3-0.8,0.8-1,1.4l-33.1-14.9
			c0.1-0.4,0-0.8-0.1-1.2c-0.1-0.3-0.3-0.5-0.6-0.7l13.5-44.1c0.3,0,0.6,0,0.8-0.2c0.3-0.2,0.6-0.6,0.7-1.1L417.8,221.1z
			 M385.7,199.2c-0.4-0.2-0.9-0.1-1.3,0.2c-0.8,0.5-1.1,1.7-0.7,2.7L358,221.6l47.8-81.4c0,0,0,0,0.1,0.1L385.7,199.2z M404.9,139
			c0,0.1,0.1,0.2,0.1,0.3c0.1,0.3,0.3,0.5,0.4,0.7l-47.9,81.7c-0.1-0.1-0.2-0.2-0.3-0.2l7.3-64.7c0.5,0,1-0.1,1.4-0.4
			c1-0.7,1.5-2.1,1.2-3.4L404.9,139z M364.1,156.6l-7.3,64.7c-0.3,0-0.6,0-0.9,0.2c-0.4,0.3-0.6,0.7-0.7,1.2l-13.2-46.4
			c0,0,0,0,0.1,0c0.7-0.5,1-1.7,0.6-2.6l19.9-18.1C363,156.1,363.5,156.5,364.1,156.6z M353.9,127.5c0.1,0.1,0.2,0.2,0.3,0.3
			l-12.5,45c-0.3-0.1-0.6-0.1-0.8,0.1l-8.3-20.2L353.9,127.5z M332,152.5l-22.3,26.3c-0.5-0.5-1.2-0.6-1.7-0.2
			c-0.2,0.1-0.3,0.3-0.4,0.4l-0.7-87.5L332,152.5z M305.6,90.6c0.3,0.2,0.6,0.3,0.9,0.3l0.8,89.6l-21-32.3c0.9-0.9,1.2-2.6,0.6-3.9
			c-0.7-1.5-2.2-2-3.4-1.2c-0.9,0.6-1.3,1.8-1.3,2.9l-3.4-0.8L305.6,90.6z M246.7,140.3c0.1-0.1,0.2-0.1,0.3-0.2
			c0.6-0.4,0.9-1,1.1-1.7l30.1,7.3l-15.1,30.8c-0.5-0.3-1.1-0.3-1.7,0.1c-0.9,0.6-1.2,2-0.7,3.1c0.1,0.3,0.3,0.5,0.5,0.7l-15.6,34
			c-0.1,0-0.2-0.1-0.2-0.1L246.7,140.3z M246.4,216.7c0.2-0.5,0.3-1.1,0-1.6c-0.1-0.1-0.1-0.3-0.2-0.4l19-32.6l46.2,53.3
			c0,0,0,0.1,0,0.1c0.2,0.4,0.4,0.6,0.7,0.8l0.2,0.2l-4.3,56.1c-0.2,0-0.5,0.1-0.7,0.2c0,0,0,0-0.1,0l-25.4-38.9
			c0.7-0.8,0.9-2.2,0.4-3.3c-0.6-1.3-1.9-1.8-3-1c-0.2,0.1-0.3,0.3-0.5,0.5L246.4,216.7z M281.3,254.3c0.1,0,0.1-0.1,0.1-0.1
			l25.4,38.9c-0.4,0.6-0.6,1.4-0.3,2.2l-8.6,6.9l-18.4-47.7C280.2,254.7,280.8,254.7,281.3,254.3z M279.5,255.2l18.3,47.3
			l-26.3,21.3c-0.3-0.5-0.8-0.9-1.3-1L279.5,255.2z M271.7,327c0.4-0.8,0.4-1.9,0-2.8l26.2-21.2l8,20.8c0,0.5,0,1,0.3,1.5
			c0.2,0.4,0.4,0.6,0.6,0.9L271.7,327z M298.2,302.7l8.6-7c0.3,0.4,0.6,0.6,1,0.7l0,25.1c-0.3,0-0.6,0.1-0.8,0.3
			c-0.4,0.3-0.7,0.7-0.9,1.3L298.2,302.7z M309.2,326.1c0.5-0.5,0.9-1.2,0.9-2l24.7-1.4c0,0.3,0.1,0.6,0.2,0.9
			c0.1,0.2,0.2,0.3,0.3,0.5l-13.1,17.4L309.2,326.1z M335.5,324.4c0.5,0.4,1,0.6,1.6,0.5l9,42.9c-0.2,0.1-0.5,0.2-0.7,0.3
			c-0.2,0.1-0.3,0.2-0.4,0.4l-22.6-26.7L335.5,324.4z M322.2,342.2l22.6,26.7c-0.2,0.2-0.3,0.5-0.4,0.8l-31.7-12.7
			c0.1-0.4,0-0.9-0.2-1.3c0-0.1-0.1-0.2-0.2-0.3L322.2,342.2z M348,368.2c-0.4-0.3-1-0.5-1.5-0.5l-9-43c0.1,0,0.2-0.1,0.3-0.2l0,0
			l14.6,26.1L348,368.2z M378.5,392.6c-0.6-0.5-1.5-0.6-2.2-0.1c0,0,0,0,0,0l-23.5-41.9l9.8-38.9c0.5,0.8,1.4,1.1,2.2,0.6
			c0.3-0.2,0.5-0.5,0.6-0.8l17.1,9.3l3.1,28c-0.1,0-0.2,0.1-0.4,0.2c-0.8,0.5-1,1.7-0.6,2.6c0.4,0.9,1.4,1.3,2.1,0.7
			c0.4-0.3,0.6-0.7,0.7-1.2l17.4,3L378.5,392.6z M405.7,353.8l10.2-14.9c0.6,1,1.7,1.3,2.5,0.7c0.3-0.2,0.5-0.4,0.6-0.7l31.3,21.8
			c-0.1,0.3-0.2,0.5-0.2,0.8L405.7,353.8z"/>
		
			<linearGradient id="SVGID_7_" gradientUnits="userSpaceOnUse" x1="823.5379" y1="-52.2385" x2="973.0711" y2="-298.3389" gradientTransform="matrix(0.9227 -0.3854 0.3854 0.9227 -582.9404 1028.1652)">
			<stop  offset="1.212120e-02" style="stop-color:#E6E6E6"/>
			<stop  offset="1" style="stop-color:#EAEAEA"/>
		</linearGradient>
		<path fill="url(#SVGID_7_)" d="M195.8,709.8c0.4-1.9-0.6-3.9-2.2-4.3c-0.5-0.1-0.9-0.1-1.4,0l-11.3-42.2c0.5-0.3,1-0.9,1.1-1.7
			c0.1-0.8,0-1.5-0.4-2.1c4.3-5.4,15-19,26.5-33.7l5.7,6.7c-0.1,0.2-0.2,0.5-0.3,0.8c-0.2,1.1,0.4,2.3,1.3,2.5
			c0.9,0.3,1.8-0.4,2-1.6c0.1-0.5,0-1-0.2-1.4l22.6-19c0.3,0.4,0.7,0.8,1.2,0.9c1.2,0.3,2.3-0.6,2.6-2c0.3-1.4-0.5-2.9-1.6-3.2
			c-1.2-0.3-2.3,0.6-2.6,2c0,0.3-0.1,0.5-0.1,0.8l-23.5,4.4c12.9-16.5,25.2-32.5,29-38c0.2,0.1,0.4,0.3,0.6,0.3
			c1,0.3,2.1-0.5,2.3-1.8c0.2-1.3-0.4-2.6-1.5-2.9c-0.7-0.2-1.3,0.1-1.8,0.6l-45.5-48c0.1-0.2,0.2-0.4,0.3-0.7l30,7
			c-0.1,1,0.5,1.9,1.3,2.2c0.9,0.3,1.8-0.4,2-1.6c0.1-0.4,0-0.8,0-1.1l47-26.8c0.3,0.6,0.7,1.1,1.3,1.2c1.1,0.3,2.2-0.5,2.5-1.9
			c0.3-1.4-0.4-2.8-1.6-3.1c-0.9-0.3-1.8,0.3-2.2,1.2l-35.6-21.2c0-0.1,0.1-0.3,0.1-0.4c0.3-1.7-0.5-3.4-1.9-3.8
			c-1.4-0.4-2.7,0.7-3,2.3c0,0,0,0.1,0,0.1l-24.6-3.3c0-0.2,0-0.5-0.1-0.7l33.7-22.8c0.2,0.4,0.6,0.7,1,0.8c0.9,0.3,1.8-0.4,2-1.6
			c0.2-1.1-0.4-2.2-1.3-2.5c-0.9-0.3-1.8,0.4-2,1.6c0,0.1,0,0.2,0,0.3l-29.3,0.8l14.6-66.5c0.2,0.2,0.5,0.3,0.7,0.4
			c1.3,0.4,2.5-0.6,2.8-2.2c0.3-1.6-0.5-3.1-1.8-3.5c-1.3-0.4-2.5,0.6-2.8,2.2c-0.1,0.4-0.1,0.8,0,1.2l-49.7,18.2l-18.4-30.6
			c0.4-0.4,0.6-0.9,0.7-1.5c0.3-1.6-0.5-3.1-1.8-3.5c-1.3-0.4-2.5,0.6-2.8,2.2c-0.2,1.2,0.2,2.5,1,3.1l-41,53.6
			c-0.1-0.1-0.3-0.2-0.4-0.2c-0.7-0.2-1.4,0.3-1.6,1.2c-0.2,0.9,0.3,1.7,1,1.9c0.1,0,0.2,0,0.3,0l5.8,51.5c-0.8,0.2-1.5,1-1.7,2
			c-0.1,0.5-0.1,1,0.1,1.5L79,527.2c-0.3-0.4-0.7-0.7-1.2-0.9c-1.3-0.4-2.5,0.6-2.8,2.2c-0.3,1.6,0.5,3.1,1.8,3.5
			c0.3,0.1,0.5,0.1,0.8,0.1l27.1,29.4l0-0.1c0.3,0.6,0.7,1,1.3,1.2l-0.2,0l1.2,22.2l-14.5,1.5c-0.1-0.7-0.6-1.3-1.2-1.5
			c-0.8-0.2-1.7,0.4-1.9,1.4c-0.2,1,0.3,2.1,1.2,2.3c0.3,0.1,0.7,0,0.9-0.1l16.5,35.9c-0.5,0.4-0.9,1.1-1,1.8
			c-0.3,1.6,0.5,3.3,1.9,3.7c1.3,0.4,2.7-0.6,3-2.3c0.1-0.3,0.1-0.7,0.1-1l12.7-9.2l-5.4,50.1c-1,0-1.9,0.8-2.1,2
			c-0.3,1.4,0.4,2.8,1.6,3.1c1.1,0.3,2.2-0.5,2.5-1.9c0-0.2,0.1-0.4,0-0.7l40.6-6.5l28.9,42.9c-0.4,0.5-0.7,1.1-0.8,1.8
			c-0.4,1.9,0.6,3.9,2.2,4.3C193.8,712.9,195.4,711.7,195.8,709.8z M151.2,645.1c0.1-0.7-0.1-1.4-0.5-1.9l12.8-23l14.4,40.2
			l-15.7,2.5L150.8,646C151,645.8,151.2,645.5,151.2,645.1z M181.3,659.3c-0.2-0.2-0.5-0.4-0.8-0.5c-1-0.3-1.9,0.4-2.2,1.5
			l-14.5-40.5l14.1-25.3c0.2,0.1,0.4,0.3,0.7,0.3c0.6,0.2,1.2,0,1.7-0.3l13.4,25.4c-0.1,0.2-0.2,0.4-0.3,0.6
			c-0.1,0.7,0.2,1.4,0.8,1.5c0.6,0.2,1.1-0.3,1.2-1c0-0.1,0-0.2,0-0.2l7.1-1.3l5.2,6C198.4,637.6,188.9,649.7,181.3,659.3z
			 M125.3,616.4l3.3-31.1c1,0,1.9-0.8,2.1-2c0.3-1.4-0.4-2.8-1.6-3.1c-0.7-0.2-1.4,0.1-1.9,0.7l-19-19.5c0.1-0.3,0.3-0.5,0.3-0.9
			c0.2-0.9,0-1.7-0.5-2.3l13.7-18.5c0.2,0.1,0.3,0.2,0.5,0.3c0.8,0.2,1.5-0.3,1.8-1.2l35.5,10c-0.1,0.9,0.4,1.7,1.1,1.9
			c0.3,0.1,0.6,0,0.8-0.1l16.4,38.6c-0.5,0.4-0.9,1.1-1.1,1.9c-0.1,0.3-0.1,0.6-0.1,0.9L157,596c-0.2-0.7-0.6-1.3-1.2-1.5
			c-0.9-0.3-1.8,0.4-2,1.6l-0.1-0.2L125.3,616.4z M123.9,537l33.5-37.6l0,0.5l0.3-0.9c0.2,0.2,0.4,0.3,0.6,0.4
			c0.4,0.1,0.8,0,1.1-0.3l9,12.3c-0.3,0.4-0.5,0.8-0.6,1.4c-0.3,1.6,0.5,3.2,1.8,3.6c1.3,0.4,2.6-0.6,2.9-2.2
			c0.3-1.4-0.4-2.9-1.4-3.4l13.9-54.5c0.8,0.2,1.6-0.4,1.8-1.5c0-0.1,0-0.2,0-0.2l30.7-0.8l-4.8,21.7c-0.8-0.1-1.6,0.5-1.7,1.5
			c-0.2,0.8,0.2,1.7,0.7,2.1l-15.9,46.4l-0.1,0.3l0.2,0.1c0,0.3,0,0.7,0.1,1L162.2,548c-0.2-0.3-0.5-0.6-0.8-0.7
			c-0.7-0.2-1.4,0.3-1.7,1.1l-35.5-10C124.2,537.9,124.1,537.4,123.9,537z M183.7,454.3c0,0.8,0.3,1.5,0.9,1.8l-13.9,54.5
			c-0.7-0.2-1.5,0-2,0.5l-9-12.3c0.1-0.2,0.3-0.5,0.3-0.7c0.2-1-0.3-1.9-1.1-2.1c-0.1,0-0.2,0-0.2,0l26.9-84.2c0,0,0,0,0,0
			l-2.1,42.8L183.7,454.3z M183.8,408.1c-0.2,0.8,0,1.7,0.3,2.3l-31.7,8.3l-0.1-2.2c0.7-0.2,1.3-0.8,1.4-1.7c0.1-0.3,0.1-0.6,0-0.9
			l28.1-10.3l2.2,3.7C183.9,407.6,183.8,407.8,183.8,408.1z M151.5,416.5c0.1,0,0.2,0.1,0.4,0.1l0.1,2.2l-29.6,7.7l27.8-11.3
			C150.5,415.9,150.9,416.4,151.5,416.5z M184.3,410.9c0.2,0.3,0.5,0.6,0.9,0.8l-27,84.4c-0.3,0.1-0.5,0.2-0.7,0.5l-5.2-77.3
			L184.3,410.9z M195.4,620.4c-0.1-0.4-0.4-0.7-0.7-0.8c-0.2-0.1-0.4,0-0.6,0.1l-13.4-25.4c0.1,0,0.1-0.1,0.1-0.2l21.4,25
			L195.4,620.4z M214.2,617.4c-2,2.6-4.1,5.2-6.1,7.8l-4.9-5.8L214.2,617.4z M157,597c0-0.2,0-0.4,0-0.6l19.8-3.9
			c0.1,0.6,0.4,1.2,0.8,1.6l-14,25l-7.5-20.9C156.6,598.1,156.9,597.6,157,597z M238.8,612.8c0,0.2,0.1,0.5,0.2,0.7l-22.6,19
			c-0.2-0.3-0.5-0.6-0.9-0.7c-0.5-0.2-1.1,0-1.5,0.4l-5.7-6.7c2.1-2.7,4.3-5.5,6.5-8.3L238.8,612.8z M214.6,616.8l-11.8,2.2
			l-21.6-25.3c0.2-0.3,0.4-0.8,0.5-1.2c0.1-0.3,0.1-0.7,0-1l61.8-14.1c0.1,0.4,0.3,0.8,0.5,1.1C240.3,583.7,228.2,599.4,214.6,616.8
			z M243.7,575.3c-0.1,0.2-0.2,0.5-0.3,0.8c0,0.2-0.1,0.5,0,0.7L181.6,591c-0.2-1.1-0.9-1.9-1.8-2.2c-0.5-0.2-1.1-0.1-1.5,0.2
			l-16.4-38.6c0.3-0.2,0.5-0.6,0.6-1c0.1-0.3,0-0.7,0-1l34-21.4c0.2,0.3,0.4,0.4,0.7,0.5c0.4,0.1,0.8,0,1.1-0.2L243.7,575.3z
			 M231.9,532.4c-0.2-0.5-0.6-0.8-1.1-0.9c-0.9-0.2-1.7,0.4-2,1.4l-29.7-6.9l79.6-20.4c0,0,0,0.1,0,0.1L231.9,532.4z M278.8,503.9
			c0,0.1-0.1,0.2-0.1,0.3c-0.1,0.3-0.1,0.6,0,0.9l-79.9,20.5c0-0.2-0.1-0.3-0.1-0.4l40.6-41.8c0.3,0.4,0.7,0.7,1.2,0.9
			c1.1,0.3,2.2-0.3,2.8-1.5L278.8,503.9z M239,482.9l-40.5,41.8c-0.2-0.3-0.4-0.5-0.7-0.6c-0.4-0.1-0.8,0-1.1,0.3l15.5-45.3
			c0,0,0,0,0.1,0c0.8,0.2,1.7-0.4,1.9-1.4l24.6,3.3C238.5,481.7,238.7,482.3,239,482.9z M247.3,452.8c0,0.2,0.1,0.3,0.1,0.5
			l-33.7,22.8c-0.2-0.3-0.4-0.5-0.7-0.7l4.8-21.9L247.3,452.8z M217.6,453.2l-30.8,0.8c-0.1-0.8-0.5-1.4-1.2-1.6
			c-0.2-0.1-0.4-0.1-0.5,0l47-65.3L217.6,453.2z M231.7,385.3c0.1,0.4,0.3,0.7,0.5,0.9L184,453.2l2-41.3c1.2,0.1,2.3-0.9,2.6-2.4
			c0.3-1.6-0.5-3.3-1.9-3.7c-1-0.3-2,0.2-2.5,1.1l-2.1-3.4L231.7,385.3z M161.1,373c0.1,0.1,0.2,0.1,0.3,0.1c0.6,0.2,1.3,0,1.8-0.4
			l18.3,30.5l-27.9,10.2c-0.2-0.6-0.7-1.2-1.3-1.3c-1-0.3-2,0.5-2.2,1.7c-0.1,0.3-0.1,0.7,0,1l-30,12.2c0-0.1-0.1-0.2-0.1-0.3
			L161.1,373z M119.3,429.3c0.4-0.2,0.8-0.6,0.9-1.2c0-0.2,0-0.3,0-0.5l31.8-8.3l5.2,77.9c0,0,0,0.1,0,0.1c-0.1,0.4,0,0.8,0.1,1.2
			l0,0.3l-33.7,37.9c-0.2-0.2-0.4-0.3-0.7-0.4c0,0,0,0-0.1,0l2.4-50c1,0,1.9-0.9,2.1-2.1c0.3-1.5-0.5-2.9-1.7-3.3
			c-0.2-0.1-0.4-0.1-0.6-0.1L119.3,429.3z M124.7,486.2c0.1,0,0.1,0,0.2,0l-2.4,50c-0.6,0.1-1.2,0.6-1.4,1.4l-10.1-2l12.3-50.6
			C123.6,485.6,124.1,486,124.7,486.2z M122.8,485.3l-12.2,50.2l-31-6.2c0-0.7-0.1-1.3-0.4-1.8L122.8,485.3z M78,531.9
			c0.7-0.3,1.3-1.1,1.5-2l30.9,6.1l-5.4,22.1c-0.3,0.3-0.5,0.8-0.6,1.3c-0.1,0.4-0.1,0.8,0,1.2L78,531.9z M110.9,536.1l10.2,2
			c0,0.5,0.1,1,0.4,1.3l-13.7,18.5c-0.2-0.2-0.5-0.4-0.8-0.5c-0.5-0.1-0.9-0.1-1.3,0.2L110.9,536.1z M106.3,562.5
			c0.7,0.1,1.3-0.2,1.7-0.7l19,19.5c-0.1,0.3-0.3,0.5-0.3,0.9c0,0.2,0,0.4-0.1,0.6l-19.1,2L106.3,562.5z M126.6,583.2
			c0.1,0.7,0.4,1.3,0.9,1.7l-16.7,39.2c-0.2-0.1-0.4-0.3-0.7-0.3c-0.2-0.1-0.4-0.1-0.5-0.1l-2.2-38.6L126.6,583.2z M107.1,585.2
			l2.2,38.5c-0.2,0-0.5,0.1-0.7,0.3l-16.5-35.9c0.3-0.3,0.5-0.6,0.6-1.1c0-0.1,0-0.2,0-0.4L107.1,585.2z M112,626
			c-0.1-0.6-0.4-1.2-0.8-1.6l16.7-39.3c0.1,0.1,0.2,0.1,0.3,0.1c0,0,0,0,0,0l-3.4,31.5L112,626z M121.4,669.5
			c-0.2-0.9-0.7-1.7-1.6-1.9c0,0,0,0,0,0l5.4-50.5l28.5-20.6c-0.1,1,0.5,2,1.3,2.2c0.3,0.1,0.6,0.1,0.9,0l7.6,21.1l-13,23.3
			c-0.1-0.1-0.2-0.1-0.4-0.2c-0.8-0.2-1.7,0.4-1.9,1.4c-0.2,1,0.3,2.1,1.2,2.3c0.4,0.1,0.8,0,1.2-0.3l11.2,16.7L121.4,669.5z
			 M162.5,663.4l15.7-2.5c-0.1,1.2,0.5,2.4,1.5,2.6c0.3,0.1,0.6,0.1,0.9,0l11.3,42.2c-0.2,0.1-0.4,0.2-0.6,0.4L162.5,663.4z"/>
		
			<linearGradient id="SVGID_8_" gradientUnits="userSpaceOnUse" x1="123.6628" y1="416.3503" x2="228.8716" y2="321.3519" gradientTransform="matrix(-0.3143 -0.9493 0.9493 -0.3143 -116.6777 634.7769)">
			<stop  offset="1.212120e-02" style="stop-color:#E6E6E6"/>
			<stop  offset="1" style="stop-color:#D5D5D5"/>
		</linearGradient>
		<path fill="url(#SVGID_8_)" d="M315,561.4c-0.1-2-1.5-3.5-3.1-3.3c-0.5,0-0.9,0.2-1.3,0.5l-20.9-36.1c0.4-0.5,0.7-1.2,0.7-2
			c0-0.8-0.4-1.4-0.9-1.8c2.8-6.8,9.7-23.7,17.1-41.9l7.1,4.3c-0.1,0.3-0.1,0.6-0.1,0.9c0.1,1.2,0.9,2,1.8,1.9
			c0.9-0.1,1.6-1.1,1.6-2.2c0-0.5-0.2-1-0.5-1.3l17-26.5c0.4,0.3,0.8,0.5,1.3,0.4c1.2-0.1,2.1-1.4,2-2.8c-0.1-1.5-1.1-2.6-2.3-2.4
			c-1.2,0.1-2.1,1.4-2,2.8c0,0.3,0.1,0.5,0.1,0.7l-21.4,12.8c8.3-20.5,16.2-40.3,18.5-47c0.2,0.1,0.4,0.1,0.7,0.1
			c1.1-0.1,1.9-1.3,1.8-2.6c-0.1-1.3-1-2.3-2.1-2.2c-0.7,0.1-1.3,0.6-1.6,1.2l-55-29c0.1-0.2,0.1-0.5,0.1-0.8l30.3-4.4
			c0.2,1,0.9,1.7,1.8,1.6c0.9-0.1,1.6-1.1,1.6-2.2c0-0.4-0.1-0.7-0.3-1l38.4-42.9c0.4,0.5,1,0.7,1.6,0.7c1.1-0.1,2-1.3,1.9-2.8
			c-0.1-1.4-1.1-2.5-2.2-2.4c-0.9,0.1-1.6,0.9-1.9,2l-39.1-7.1c0-0.1,0-0.3,0-0.5c-0.1-1.7-1.3-3-2.7-2.9c-1.4,0.1-2.4,1.6-2.3,3.4
			c0,0,0,0.1,0,0.1l-24.2,6c-0.1-0.2-0.1-0.4-0.3-0.6l26.7-34.2c0.3,0.3,0.7,0.5,1.1,0.4c0.9-0.1,1.6-1.1,1.6-2.2
			c-0.1-1.2-0.9-2-1.8-1.9c-0.9,0.1-1.6,1.1-1.6,2.2c0,0.1,0,0.2,0,0.3l-27.8,11.6l-2.1-68.8c0.3,0.1,0.5,0.1,0.8,0.1
			c1.3-0.1,2.3-1.5,2.2-3.1c-0.1-1.6-1.2-2.8-2.5-2.7c-1.3,0.1-2.3,1.5-2.2,3.1c0,0.4,0.1,0.8,0.3,1.2l-43,35.7L203,251.3
			c0.2-0.5,0.4-1.1,0.3-1.7c-0.1-1.6-1.2-2.8-2.5-2.7c-1.3,0.1-2.3,1.5-2.2,3.1c0.1,1.3,0.8,2.3,1.7,2.6l-26.3,66.3
			c-0.2-0.1-0.3-0.1-0.5-0.1c-0.7,0.1-1.3,0.8-1.2,1.7c0.1,0.9,0.7,1.6,1.4,1.5c0.1,0,0.2,0,0.3-0.1l17.9,47.1
			c-0.7,0.5-1.2,1.5-1.1,2.6c0,0.5,0.2,1,0.4,1.4l-31.8,57.1c-0.4-0.3-0.9-0.4-1.3-0.4c-1.3,0.1-2.3,1.5-2.2,3.1
			c0.1,1.6,1.2,2.8,2.5,2.7c0.3,0,0.5-0.1,0.8-0.2l33,18.1l0-0.1c0.4,0.4,0.9,0.7,1.5,0.6l-0.2,0.1l6.5,20.8l-13.4,6.8
			c-0.3-0.6-0.9-1-1.5-1c-0.9,0.1-1.5,1-1.4,2.1c0.1,1.1,0.8,1.9,1.7,1.8c0.3,0,0.6-0.2,0.9-0.4l24.4,28.1c-0.4,0.6-0.6,1.3-0.5,2.1
			c0.1,1.7,1.3,2.9,2.7,2.8c1.4-0.1,2.4-1.6,2.3-3.3c0-0.3-0.1-0.7-0.2-0.9l9.9-13.4l6.9,49.8c-0.9,0.3-1.6,1.4-1.5,2.7
			c0.1,1.4,1.1,2.5,2.2,2.4c1.1-0.1,2-1.3,1.9-2.8c0-0.2-0.1-0.4-0.1-0.7l37.2-21.2l37.9,30.3c-0.3,0.6-0.4,1.3-0.4,2
			c0.1,2,1.5,3.5,3.1,3.3C313.9,565.1,315.1,563.4,315,561.4z M256.9,516.1c0-0.7-0.4-1.3-0.9-1.6l6.7-26.7l23.4,33.1l-14.4,8.2
			l-14.9-12C256.9,516.8,256.9,516.4,256.9,516.1z M289.1,518.5c-0.3-0.1-0.5-0.2-0.9-0.2c-1,0.1-1.7,1.1-1.8,2.2l-23.6-33.3
			l7.4-29.3c0.2,0.1,0.5,0.1,0.7,0.1c0.6-0.1,1.2-0.4,1.6-0.9l18.9,19.3c-0.1,0.2-0.1,0.5-0.1,0.7c0,0.7,0.5,1.2,1.1,1.2
			c0.6-0.1,1-0.7,1-1.4c0-0.1,0-0.2,0-0.2l6.5-3.9l6.4,3.9C300.1,491.5,294,506.6,289.1,518.5z M225.3,498.2l-4.3-30.9
			c0.9-0.3,1.6-1.4,1.5-2.7c-0.1-1.4-1.1-2.5-2.2-2.4c-0.7,0.1-1.4,0.6-1.7,1.4L195.7,452c0.1-0.3,0.1-0.6,0.1-0.9
			c-0.1-0.9-0.5-1.6-1-2l8.6-22.7c0.2,0.1,0.4,0.1,0.6,0.1c0.8-0.1,1.4-0.9,1.4-1.8l36.3-3.5c0.1,0.8,0.8,1.5,1.5,1.4
			c0.3,0,0.5-0.2,0.8-0.4l24.9,30.8c-0.4,0.6-0.6,1.4-0.6,2.2c0,0.3,0.1,0.6,0.2,0.9l-17.9,11c-0.3-0.6-0.9-1-1.5-0.9
			c-0.9,0.1-1.6,1.1-1.6,2.2l-0.1-0.2L225.3,498.2z M204.8,423l22.9-48.3l0.2,0.5l0.1-0.9c0.2,0.1,0.4,0.2,0.6,0.1
			c0.4,0,0.8-0.3,1-0.7l11.5,8.4c-0.2,0.5-0.3,1-0.2,1.5c0.1,1.6,1.3,2.9,2.6,2.7c1.3-0.1,2.3-1.6,2.2-3.2c-0.1-1.5-1-2.6-2.2-2.7
			l0.2-57.2c0.8-0.1,1.4-1,1.4-2.1c0-0.1,0-0.2,0-0.2l29.1-12.1l0.7,22.5c-0.8,0.2-1.4,1-1.3,2c0.1,0.9,0.6,1.5,1.2,1.7l-4,50.1
			l0,0.3l0.3,0c0.1,0.3,0.2,0.6,0.4,0.9L244,419.3c-0.3-0.3-0.6-0.4-1-0.4c-0.7,0.1-1.3,0.8-1.3,1.7l-36.3,3.5
			C205.3,423.6,205.1,423.3,204.8,423z M242,321.9c0.2,0.7,0.7,1.3,1.3,1.4l-0.2,57.2c-0.7,0.1-1.4,0.6-1.8,1.3l-11.5-8.4
			c0.1-0.2,0.1-0.5,0.1-0.8c-0.1-1-0.7-1.7-1.5-1.6c-0.1,0-0.2,0-0.2,0l5.4-90.3c0,0,0,0,0,0l8.3,41.6L242,321.9z M230.9,277.8
			c0.1,0.9,0.4,1.6,0.9,2.1l-28.3,19.6l-0.7-2c0.6-0.4,1-1.2,1-2.2c0-0.3-0.1-0.6-0.2-0.9l24.3-20.2l3,2.7
			C230.9,277.3,230.9,277.6,230.9,277.8z M202.1,297.8c0.1,0,0.2,0,0.4-0.1l0.7,2.1l-26.4,18.3l23.8-21
			C201,297.5,201.5,297.8,202.1,297.8z M232.1,280.2c0.3,0.2,0.7,0.4,1,0.4l-5.4,90.5c-0.2,0.2-0.4,0.4-0.5,0.7L203.7,300
			L232.1,280.2z M293.2,476.2c-0.2-0.3-0.5-0.6-0.9-0.5c-0.2,0-0.4,0.1-0.6,0.3l-18.9-19.3c0-0.1,0.1-0.1,0.1-0.2l26.5,16
			L293.2,476.2z M310.3,466.4c-1.3,3.2-2.6,6.5-3.9,9.7l-6.1-3.7L310.3,466.4z M250.9,468.1c0-0.2,0-0.4-0.1-0.5l17.9-11
			c0.3,0.6,0.7,1,1.2,1.3l-7.3,29.1l-12.1-17.2C250.7,469.2,250.9,468.6,250.9,468.1z M332.7,453c0.1,0.2,0.2,0.4,0.4,0.5l-17,26.4
			c-0.3-0.2-0.6-0.3-1-0.3c-0.6,0.1-1,0.4-1.3,1l-7.1-4.3c1.4-3.4,2.8-6.8,4.2-10.3L332.7,453z M310.6,465.7l-10.8,6.5L273.1,456
			c0.1-0.4,0.2-0.9,0.2-1.3c0-0.3-0.1-0.7-0.2-1l55.6-36.3c0.2,0.4,0.5,0.6,0.8,0.8C327.1,424.6,319.4,444,310.6,465.7z
			 M328.4,415.4c-0.1,0.3-0.1,0.6-0.1,0.9c0,0.3,0.1,0.5,0.1,0.7l-55.6,36.3c-0.5-0.9-1.3-1.5-2.3-1.4c-0.5,0.1-1,0.3-1.4,0.7
			l-24.9-30.8c0.2-0.3,0.3-0.7,0.3-1.2c0-0.3-0.1-0.7-0.3-0.9l27.3-32.9c0.2,0.2,0.5,0.3,0.8,0.2c0.4,0,0.7-0.3,1-0.6L328.4,415.4z
			 M306.7,378.7c-0.3-0.4-0.8-0.6-1.2-0.5c-0.9,0.1-1.5,1-1.5,2.1l-30,4.3l71.1-48.9c0,0,0,0.1,0,0.1L306.7,378.7z M344.7,334.2
			c0,0.1,0,0.2,0,0.3c0,0.3,0.1,0.6,0.2,0.8l-71.3,49c-0.1-0.1-0.1-0.3-0.2-0.4l28.7-54.9c0.4,0.3,0.9,0.4,1.4,0.4
			c1.1-0.1,2-1.1,2.3-2.4L344.7,334.2z M301.7,328.8L273,383.6c-0.2-0.2-0.5-0.3-0.8-0.3c-0.4,0-0.8,0.3-1,0.7l3.9-48.9
			c0,0,0,0,0.1,0c0.9-0.1,1.5-1,1.4-2.1l24.2-5.9C300.9,327.8,301.2,328.4,301.7,328.8z M302.4,297.1c0.1,0.2,0.1,0.3,0.2,0.4
			l-26.7,34.2c-0.2-0.2-0.5-0.3-0.8-0.4l-0.7-22.6L302.4,297.1z M274,308.4l-29.2,12.2c-0.3-0.7-0.9-1.1-1.5-1.1
			c-0.2,0-0.4,0.1-0.5,0.2l29.2-79.7L274,308.4z M271.2,238.4c0.2,0.3,0.4,0.5,0.7,0.7L242,320.8l-8-40.2c1.1-0.4,2-1.7,1.9-3.2
			c-0.1-1.7-1.3-2.9-2.7-2.8c-1,0.1-1.8,0.9-2.1,2l-2.8-2.5L271.2,238.4z M200.8,252.7c0.1,0,0.2,0,0.4,0c0.6-0.1,1.2-0.4,1.6-1
			l24.8,22.3l-24.2,20.1c-0.4-0.5-0.9-0.9-1.5-0.8c-1,0.1-1.8,1.2-1.7,2.4c0,0.3,0.1,0.7,0.2,0.9l-25.7,22.7
			c-0.1-0.1-0.1-0.1-0.2-0.2L200.8,252.7z M174.5,321.8c0.4-0.3,0.6-0.9,0.6-1.5c0-0.2,0-0.3-0.1-0.4l28.3-19.7l23.7,72.4
			c0,0,0,0.1,0,0.1c0,0.4,0.2,0.8,0.4,1.1l0.1,0.3l-23.1,48.6c-0.2-0.1-0.5-0.2-0.7-0.2c0,0,0,0-0.1,0l-9.8-48.6
			c0.9-0.4,1.6-1.5,1.5-2.8c-0.1-1.5-1.2-2.6-2.4-2.5c-0.2,0-0.4,0.1-0.6,0.2L174.5,321.8z M193.4,374.2c0.1,0,0.1,0,0.2,0l9.8,48.6
			c-0.6,0.3-1,1-1,1.8l-10.1,1.8l-0.4-52.9C192.2,374,192.7,374.2,193.4,374.2z M191.3,374l0.4,52.4l-31.1,5.6
			c-0.1-0.6-0.4-1.2-0.8-1.6L191.3,374z M159.8,435c0.6-0.6,1-1.5,1-2.5l31-5.5L192,450c-0.2,0.4-0.3,1-0.3,1.5
			c0,0.4,0.1,0.8,0.3,1.1L159.8,435z M192.2,426.8l10.2-1.8c0.1,0.5,0.4,0.9,0.7,1.1l-8.6,22.7c-0.3-0.1-0.6-0.2-0.9-0.1
			c-0.5,0-0.9,0.3-1.2,0.7L192.2,426.8z M194.1,453.8c0.7-0.1,1.2-0.6,1.5-1.3l22.8,11.6c-0.1,0.3-0.1,0.6-0.1,0.9
			c0,0.2,0,0.4,0.1,0.5l-17.8,8.9L194.1,453.8z M218.6,466c0.3,0.6,0.7,1.1,1.3,1.3l-6.5,43.6c-0.2-0.1-0.5-0.1-0.7-0.1
			c-0.2,0-0.4,0.1-0.5,0.1l-11.3-36L218.6,466z M200.4,475.2l11.3,36c-0.2,0.1-0.4,0.3-0.6,0.5l-24.4-28.1c0.2-0.4,0.3-0.8,0.3-1.3
			c0-0.1,0-0.2-0.1-0.4L200.4,475.2z M214.9,512.3c-0.3-0.5-0.7-1-1.2-1.2l6.5-43.7c0.1,0,0.2,0,0.3,0c0,0,0,0,0,0l4.4,31.3
			L214.9,512.3z M234.3,550.3c-0.4-0.8-1.1-1.4-2-1.3c0,0,0,0,0,0l-7-50.2l22.2-30.2c0.2,1,0.9,1.7,1.8,1.6c0.3,0,0.6-0.2,0.8-0.4
			l12.3,17.4l-6.8,27c-0.1,0-0.3,0-0.4,0c-0.9,0.1-1.5,1-1.4,2.1c0.1,1.1,0.8,1.9,1.7,1.8c0.4,0,0.8-0.3,1.1-0.7l14.7,11.8
			L234.3,550.3z M272.1,529.3l14.4-8.2c0.2,1.2,1.1,2.1,2.1,2c0.3,0,0.6-0.1,0.8-0.3l20.9,36.1c-0.2,0.2-0.3,0.4-0.5,0.6
			L272.1,529.3z"/>
		
			<linearGradient id="SVGID_9_" gradientUnits="userSpaceOnUse" x1="1115.6807" y1="-201.9586" x2="1240.1237" y2="-406.7657" gradientTransform="matrix(0.7293 0.6842 -0.6842 0.7293 -766.6345 1.2721)">
			<stop  offset="1.212120e-02" style="stop-color:#E6E6E6"/>
			<stop  offset="1" style="stop-color:#EAEAEA"/>
		</linearGradient>
		<path fill="url(#SVGID_9_)" d="M167.9,682.5c1.6-0.4,2.6-2.3,2.3-4.2c-0.1-0.6-0.3-1.1-0.6-1.5l26.5-30c0.4,0.5,1,0.7,1.7,0.6
			c0.6-0.2,1.1-0.7,1.4-1.3c5.8,2.6,20.2,9.1,35.7,16.1l-2.6,9.2c-0.2-0.1-0.5-0.1-0.7,0c-0.9,0.2-1.5,1.3-1.3,2.5
			c0.2,1.1,1.1,1.9,2,1.7c0.4-0.1,0.8-0.4,1-0.8l23.2,17.7c-0.2,0.5-0.3,1.1-0.2,1.7c0.2,1.4,1.4,2.4,2.5,2.1
			c1.2-0.3,1.9-1.7,1.7-3.1c-0.2-1.4-1.4-2.4-2.5-2.1c-0.2,0.1-0.4,0.1-0.6,0.3l-12.8-24.7c17.4,7.8,34.2,15.1,39.9,17.2
			c0,0.3,0,0.5,0,0.8c0.2,1.3,1.2,2.2,2.3,1.9c1.1-0.3,1.7-1.5,1.5-2.8c-0.1-0.8-0.6-1.5-1.2-1.8l16.8-71c0.2,0.1,0.4,0.1,0.6,0.1
			l7.1,36.7c-0.8,0.3-1.2,1.3-1.1,2.3c0.2,1.1,1.1,1.9,2,1.6c0.3-0.1,0.6-0.3,0.8-0.5l38.9,42.1c-0.3,0.6-0.5,1.3-0.4,2
			c0.2,1.4,1.3,2.3,2.4,2c1.1-0.3,1.9-1.6,1.6-3c-0.2-1.1-0.9-1.9-1.8-2l1.1-48.8c0.1,0,0.2,0,0.4-0.1c1.4-0.3,2.3-2,2-3.7
			c-0.3-1.7-1.6-2.8-3-2.5c0,0-0.1,0-0.1,0l-7.6-29.1c0.2-0.1,0.3-0.2,0.5-0.4l30.6,28.7c-0.2,0.4-0.3,0.9-0.2,1.5
			c0.2,1.1,1.1,1.9,2,1.6c0.9-0.2,1.5-1.3,1.3-2.5c-0.2-1.1-1.1-1.9-2-1.6c-0.1,0-0.1,0-0.2,0.1l-12.6-32.8l55-10.7c0,0.3,0,0.7,0,1
			c0.2,1.6,1.5,2.6,2.8,2.3c1.3-0.3,2.1-1.8,1.8-3.4c-0.2-1.6-1.5-2.6-2.7-2.3c-0.3,0.1-0.7,0.3-0.9,0.5l-33.8-48.7l15.1-33.2
			c0.4,0.2,0.9,0.3,1.4,0.2c1.3-0.3,2.1-1.8,1.8-3.4c-0.2-1.6-1.5-2.6-2.7-2.3c-1,0.2-1.7,1.3-1.9,2.4l-56.3-24.4c0-0.2,0-0.4,0-0.6
			c-0.1-0.9-0.8-1.4-1.5-1.3c-0.7,0.2-1.2,1-1,1.9c0,0.1,0,0.2,0.1,0.3l-35.6,27.6c-0.5-0.8-1.3-1.2-2.2-1c-0.4,0.1-0.8,0.4-1.1,0.7
			L254.7,476c0.2-0.5,0.2-1.1,0.1-1.7c-0.3-1.6-1.5-2.6-2.7-2.3c-1.3,0.3-2.1,1.8-1.8,3.4c0.1,0.3,0.2,0.6,0.3,0.9L240,519l0.1,0
			c-0.3,0.5-0.4,1.2-0.3,1.9l-0.1-0.2l-15.9,10.5l-7-15.7c0.5-0.4,0.7-1.2,0.6-1.9c-0.2-1-1-1.7-1.8-1.5c-0.8,0.2-1.4,1.2-1.2,2.3
			c0.1,0.4,0.2,0.8,0.5,1l-19.7,33.4c-0.5-0.4-1.1-0.6-1.8-0.4c-1.3,0.3-2.2,1.9-1.9,3.6c0.3,1.7,1.6,2.7,2.9,2.4
			c0.3-0.1,0.5-0.2,0.7-0.3l12,10.6L167.8,579c-0.4-1.1-1.3-1.8-2.3-1.6c-1.1,0.3-1.9,1.6-1.6,3c0.2,1.4,1.3,2.3,2.4,2
			c0.2,0,0.4-0.1,0.5-0.2l21.4,43.2l-19.8,50.2c-0.5-0.3-1.1-0.3-1.7-0.2c-1.6,0.4-2.6,2.3-2.3,4.2
			C164.8,681.6,166.3,682.9,167.9,682.5z M197.3,605.8c0.6-0.1,1-0.7,1.2-1.3l22.2,5.1L197,642.2l-8.3-16.7l7.8-19.8
			C196.8,605.8,197,605.8,197.3,605.8z M199.2,645.6c0.1-0.3,0.1-0.7,0-1.1c-0.2-1.2-1.1-2-2-1.9l23.9-32.9l24.4,5.6
			c0,0.3,0,0.6,0,0.9c0.1,0.8,0.5,1.4,0.9,1.8l-13.2,25.5c-0.2-0.1-0.4-0.1-0.6-0.1c-0.6,0.1-0.9,0.8-0.8,1.5c0.1,0.7,0.7,1.2,1.2,1
			c0.1,0,0.1,0,0.2-0.1l3.9,7.5l-2.3,8.3C222.2,655.9,209.3,650.2,199.2,645.6z M207.9,564.7l24.3-9c0.4,1.1,1.3,1.8,2.3,1.6
			c1.1-0.3,1.9-1.6,1.6-3c-0.1-0.9-0.7-1.6-1.3-1.9l6.6-29.4c0.2,0.1,0.5,0.1,0.8,0c0.7-0.2,1.2-0.8,1.5-1.5l19.2,7.8
			c0,0.2,0,0.5,0,0.7c0.2,1,0.9,1.6,1.6,1.5l7.2,44.2c-0.7,0.3-1.1,1.1-0.9,2c0.1,0.3,0.2,0.6,0.4,0.9L249.4,613
			c-0.5-0.4-1.2-0.6-1.8-0.5c-0.3,0.1-0.5,0.2-0.7,0.3l-11-20.7c0.5-0.5,0.7-1.2,0.6-2c-0.2-1.1-1.1-1.9-2-1.6l0.1-0.2L207.9,564.7z
			 M265.8,530.7l41.4,22.4l-0.4,0.3l0.8,0c-0.1,0.3-0.1,0.5,0,0.8c0.1,0.5,0.3,0.9,0.7,1.2l-5.4,15.2c-0.4-0.2-0.8-0.2-1.2-0.1
			c-1.3,0.3-2.2,1.9-1.9,3.5c0.3,1.6,1.5,2.7,2.8,2.3c1.2-0.3,2-1.6,1.9-3l45.9-6.6c0.2,1,1,1.6,1.8,1.4c0.1,0,0.1,0,0.2-0.1
			l13.2,34.3l-18,3.5c-0.2-1-1-1.6-1.8-1.4c-0.7,0.2-1.2,0.9-1.2,1.7l-40.7,1.1l-0.2,0l0.1,0.3c-0.3,0.1-0.5,0.3-0.6,0.6l-29.6-29.6
			c0.2-0.4,0.3-0.8,0.2-1.3c-0.1-0.9-0.8-1.5-1.5-1.4l-7.2-44.2C265.4,531.3,265.6,531,265.8,530.7z M351.3,564.3
			c-0.6,0.3-0.9,1-0.9,1.7l-45.9,6.6c-0.1-0.9-0.6-1.6-1.2-2l5.4-15.2c0.2,0.1,0.4,0.1,0.7,0c0.8-0.2,1.3-1.1,1.1-2.1
			c0-0.1,0-0.2-0.1-0.3l73.1-4.1c0,0,0,0,0,0L351,564.2L351.3,564.3z M385.4,545.5c-0.7,0.2-1.2,0.7-1.6,1.3l-19.1-32.4l1.5-1.1
			c0.4,0.7,1.1,1.1,1.8,0.9c0.3-0.1,0.5-0.2,0.7-0.4l19.1,27.5l-1.8,4.1C385.8,545.4,385.6,545.5,385.4,545.5z M366,512.5
			c0,0.2,0.1,0.3,0.1,0.4l-1.6,1.1l-17.8-30.2l19.7,26.8C366,511.1,365.8,511.8,366,512.5z M383.6,547.3c-0.1,0.4-0.2,0.9-0.2,1.3
			l-73.2,4.1c-0.2-0.3-0.4-0.5-0.6-0.6l54.9-37.5L383.6,547.3z M233.7,645.6c0.2-0.3,0.4-0.7,0.3-1.2c0-0.3-0.2-0.5-0.3-0.7
			l13.2-25.5c0.1,0,0.1,0.1,0.2,0.1l-9.7,34.4L233.7,645.6z M243.5,665.5c-2.7-1.2-5.5-2.5-8.3-3.7l2.2-7.9L243.5,665.5z
			 M235.1,592.6c0.2,0,0.3-0.1,0.4-0.2l11,20.7c-0.4,0.4-0.7,1-0.9,1.6l-24.2-5.5l12.3-17C234.2,592.6,234.7,592.7,235.1,592.6z
			 M257,691.4c-0.2,0.1-0.3,0.3-0.4,0.5l-23.2-17.7c0.1-0.4,0.2-0.8,0.1-1.3c-0.1-0.7-0.5-1.2-0.9-1.5l2.6-9.2
			c2.9,1.3,5.8,2.6,8.7,3.9L257,691.4z M244.1,665.8l-6.5-12.5l9.8-34.8c0.3,0.1,0.7,0.1,1.1,0c0.3-0.1,0.5-0.2,0.8-0.4l35.7,64
			c-0.3,0.3-0.5,0.6-0.6,1C279,681.2,262.5,674,244.1,665.8z M286.6,681.6c-0.2-0.1-0.5-0.1-0.7,0c-0.2,0-0.4,0.1-0.6,0.3l-35.7-64
			c0.7-0.7,1-1.8,0.9-3c-0.1-0.7-0.4-1.2-0.8-1.7l21.8-34.3c0.3,0.2,0.6,0.3,1,0.2c0.3-0.1,0.5-0.2,0.7-0.4l29.6,29.6
			c-0.1,0.3-0.1,0.7-0.1,1c0.1,0.5,0.3,0.9,0.6,1.1L286.6,681.6z M313.4,650.7c0.2-0.4,0.4-1,0.3-1.6c-0.2-1.1-1-1.8-1.8-1.7
			l-7-36.4l47.6,81.6c0,0,0,0-0.1,0.1L313.4,650.7z M353.7,692.1c-0.1,0-0.2,0-0.3,0c-0.2,0.1-0.5,0.2-0.6,0.3L305,610.5
			c0.1-0.1,0.2-0.2,0.3-0.3l47.4,28.7c-0.2,0.5-0.2,1.1-0.1,1.8c0.2,1.4,1.1,2.4,2.2,2.5L353.7,692.1z M352.9,638.5l-47.4-28.7
			c0.1-0.3,0.2-0.7,0.1-1.1c-0.1-0.5-0.3-0.9-0.7-1.2l39.7-1c0,0,0,0.1,0,0.1c0.2,1,1,1.7,1.8,1.5l7.6,29.1
			C353.6,637.5,353.1,637.9,352.9,638.5z M378.4,635.6c-0.1,0.1-0.2,0.2-0.3,0.3l-30.6-28.7c0.1-0.3,0.2-0.7,0.2-1l18.1-3.5
			L378.4,635.6z M366,602.1l-13.2-34.4c0.5-0.4,0.8-1.2,0.7-2c0-0.2-0.1-0.4-0.2-0.6l67.4,26.4L366,602.1z M421.8,590.3
			c-0.2,0.3-0.4,0.6-0.5,0.9l-69-27l31.3-14.6c0.4,1.4,1.6,2.2,2.8,1.9c1.3-0.3,2.2-1.9,1.9-3.6c-0.2-1.2-1-2.1-1.9-2.4l1.7-3.7
			L421.8,590.3z M402,505.6c0,0.1,0,0.3,0,0.5c0.1,0.8,0.5,1.4,1,1.8l-15,33.1l-19-27.3c0.4-0.5,0.6-1.2,0.5-2
			c-0.2-1.2-1.2-2-2.1-1.8c-0.3,0.1-0.5,0.2-0.7,0.4l-21.3-28.9c0.1-0.1,0.1-0.2,0.1-0.3L402,505.6z M343.4,481.4
			c0.3,0.4,0.8,0.6,1.2,0.5c0.1,0,0.2-0.1,0.3-0.2l19.1,32.5L308.8,552c0,0-0.1,0-0.1,0c-0.3,0.1-0.6,0.3-0.8,0.6l-0.2,0.2
			L266,530.2c0.1-0.3,0.1-0.6,0-0.9c0,0,0-0.1,0-0.1l37.8-17.8c0.4,1.1,1.4,1.7,2.4,1.5c1.2-0.3,2-1.7,1.7-3.2
			c0-0.3-0.1-0.5-0.2-0.7L343.4,481.4z M303.6,510.8c0,0.1,0,0.1,0,0.2l-37.8,17.8c-0.3-0.7-0.9-1.1-1.6-1l-2.7-12.2l42.4-6.8
			C303.7,509.3,303.5,510,303.6,510.8z M303.5,508.3l-42,6.7l-8.1-37.5c0.5-0.2,0.9-0.6,1.2-1.2L303.5,508.3z M250.9,476.8
			c0.5,0.7,1.3,1.1,2.1,0.9l8.1,37.4l-18.5,3c-0.4-0.2-0.8-0.3-1.2-0.2c-0.3,0.1-0.6,0.3-0.9,0.5L250.9,476.8z M261.2,515.6
			l2.7,12.3c-0.4,0.2-0.7,0.5-0.8,1l-19.2-7.8c0.1-0.3,0.1-0.7,0-1.1c-0.1-0.6-0.3-1.1-0.7-1.4L261.2,515.6z M239.8,521.2
			c0.2,0.8,0.7,1.4,1.2,1.7l-6.6,29.4c-0.2-0.1-0.5-0.1-0.8,0c-0.1,0-0.3,0.1-0.4,0.2l-9.3-20.8L239.8,521.2z M232.9,552.7
			c-0.5,0.4-0.8,1-0.9,1.7l-35.7-2.8c0-0.3,0-0.6,0-0.9c0-0.2-0.1-0.4-0.2-0.6l27.5-18.2L232.9,552.7z M223.5,531.5l-27.5,18.2
			c-0.1-0.3-0.3-0.5-0.5-0.7l19.7-33.4c0.3,0.2,0.7,0.3,1.1,0.2c0.1,0,0.2-0.1,0.3-0.1L223.5,531.5z M195.4,553.7
			c0.4-0.4,0.7-1,0.8-1.6l35.8,2.8c0,0.1,0,0.3,0,0.4c0,0,0,0,0,0l-24.6,9.1L195.4,553.7z M167.2,582c0.6-0.6,1-1.5,0.8-2.5
			c0,0,0,0,0,0l39.5-14.5l26.8,23.7c-0.8,0.3-1.3,1.3-1.1,2.4c0.1,0.4,0.2,0.7,0.4,1L221,609.1l-22.5-5.1c0-0.2,0-0.3,0-0.5
			c-0.2-1-1-1.7-1.8-1.5c-0.8,0.2-1.4,1.2-1.2,2.3c0.1,0.5,0.3,1,0.7,1.2l-7.7,19.5L167.2,582z M188.5,626l8.3,16.7
			c-0.9,0.4-1.5,1.5-1.3,2.8c0.1,0.4,0.2,0.7,0.4,1l-26.5,30c-0.2-0.2-0.4-0.4-0.6-0.5L188.5,626z"/>
		<g>
			
				<linearGradient id="SVGID_10_" gradientUnits="userSpaceOnUse" x1="84.1709" y1="395.8004" x2="-67.9574" y2="580.8384" gradientTransform="matrix(-0.3143 -0.9493 0.9493 -0.3143 -116.6777 634.7769)">
				<stop  offset="1.212120e-02" style="stop-color:#C8C8C8"/>
				<stop  offset="1" style="stop-color:#ABABAB"/>
			</linearGradient>
			<path fill="url(#SVGID_10_)" d="M286.6,257c-0.3,1,0,2.1,0.8,2.5c0.2,0.1,0.5,0.2,0.7,0.1l10.5,71.2c-0.3,0.1-0.5,0.4-0.7,0.8
				c-0.1,0.2-0.1,0.5-0.1,0.7l-27.5,9.1l-8.1-42.7c0.3-0.1,0.5-0.4,0.6-0.8c0.3-0.7,0-1.6-0.6-1.9c-0.2-0.1-0.4-0.1-0.5-0.1
				l-0.1-0.7l0,0.7c-0.4,0.1-0.7,0.4-0.9,0.9c-0.3,0.7,0,1.6,0.6,1.9c0.1,0,0.2,0.1,0.3,0.1l0.4,45.4l-6.3,2.1
				c-0.1-0.4-0.4-0.7-0.7-0.8c-0.6-0.3-1.4,0-1.7,0.8c-0.3,0.8,0,1.7,0.7,2.1c0.6,0.3,1.4,0,1.7-0.8c0,0,0,0,0,0l6.4,1.8l0.1,9.4
				l-34.9,24.4c-0.1-0.2-0.3-0.4-0.6-0.6c-0.7-0.4-1.6,0-1.9,1c-0.3,0.9,0,2,0.8,2.4c0.7,0.4,1.6,0,1.9-1c0.1-0.2,0.1-0.3,0.1-0.5
				l34.8-0.8l0.2,25.4c-0.8,0.1-1.4,0.7-1.8,1.6c-0.4,1.2-0.1,2.5,0.7,3.2l-12.8,27.2l-25-8.4c0-0.2,0-0.4,0-0.6
				c-0.2-0.8-0.9-1.3-1.6-1.1c-0.7,0.2-1.1,1.1-0.9,1.9c0.2,0.8,0.9,1.3,1.6,1.1c0.1,0,0.1-0.1,0.2-0.1l16.1,27.7l-6.3,13.3
				c-0.7-0.4-1.6,0-1.9,1c-0.3,0.9,0,2,0.8,2.4c0.7,0.4,1.6,0,1.9-1c0.2-0.4,0.1-0.9,0-1.3l10-6.6l1.9,3.3l-7.7,10.4
				c-0.5-0.5-1.2-0.7-1.8-0.4c-0.7,0.3-1.2,0.9-1.4,1.7l-29.9-7.4c0-0.3,0-0.5-0.1-0.8c-0.3-1.2-1.2-1.8-2.2-1.5
				c-0.9,0.3-1.5,1.5-1.2,2.7c0.3,1.2,1.2,1.8,2.2,1.5c0.3-0.1,0.5-0.3,0.7-0.5l30,33l-1.2,14.3l-18.7,6.3c-0.3-1-1.2-1.5-2-1.2
				c-0.9,0.3-1.4,1.5-1.1,2.5c0.3,1.1,1.2,1.7,2.1,1.4c0.1,0,0.2-0.1,0.3-0.2l15.1,25.8c-0.6,0.7-0.9,1.7-0.7,2.7
				c0.3,1.4,1.5,2.2,2.7,1.8c1.1-0.4,1.8-1.9,1.5-3.3c-0.2-1-0.9-1.7-1.6-1.9l2.9-33.7l10.1-3.4c0.1,0.3,0.4,0.6,0.6,0.7l-4.1,63.1
				c-0.1,0-0.2,0-0.4,0.1c-0.5,0.2-0.9,0.7-1,1.2l-27.2-7.1c0-0.1,0-0.2,0-0.2c-0.1-0.5-0.6-0.8-1-0.7c-0.2,0.1-0.4,0.3-0.5,0.5
				l-0.1,0l0.1,0.1c-0.1,0.2-0.1,0.4,0,0.7c0.1,0.5,0.6,0.8,1,0.7c0.1,0,0.2-0.1,0.3-0.2l57.2,54.9c-0.1,0.3-0.2,0.5-0.2,0.8
				l-24.7-0.7c0-0.1,0-0.1,0-0.2c-0.2-0.8-0.8-1.2-1.5-1c-0.6,0.2-1,1-0.8,1.8c0.2,0.8,0.8,1.2,1.5,1c0.4-0.2,0.7-0.6,0.8-1.1
				l24.7,0.7c0,0.1,0,0.3,0.1,0.4c0.3,1.2,1.2,1.8,2.2,1.5c0.9-0.3,1.5-1.5,1.2-2.7c-0.2-0.7-0.6-1.3-1.2-1.5l2.7-18.3l40.3,34.9
				c-0.2,0.4-0.2,0.9-0.1,1.3c0.2,1,1,1.5,1.8,1.2c0.8-0.3,1.2-1.3,1-2.2c-0.2-1-1-1.5-1.8-1.2L291,586.3c0.9-0.6,1.3-1.9,1-3.1
				c-0.2-1-0.9-1.6-1.6-1.8l2.6-25.2l24.3,4l-3.7,13.1c-0.2-0.1-0.5-0.1-0.8,0c-0.8,0.3-1.2,1.3-0.9,2.3c0.3,0.9,1.1,1.5,1.8,1.1
				c0.8-0.3,1.2-1.3,0.9-2.3c0-0.2-0.1-0.3-0.2-0.5l11.1-12.5l1.9,0.3c0,0.2,0,0.3,0.1,0.5c0.2,1,1,1.5,1.8,1.2
				c0.8-0.3,1.2-1.3,1-2.2c-0.2-1-1-1.5-1.8-1.2c-0.3,0.1-0.5,0.3-0.6,0.5l-0.8-0.8l13.2-14.8l13.7,18.9c-0.5,0.7-0.7,1.7-0.5,2.6
				c0.3,1.2,1.3,1.9,2.3,1.8l10.9,69.4c-0.8,0.3-1.2,1.3-0.9,2.3c0.3,0.9,1.1,1.5,1.8,1.1c0.8-0.3,1.2-1.3,0.9-2.3
				c-0.1-0.5-0.4-0.8-0.7-1l17.2-57.1l10.6,13.2c-0.4,0.6-0.5,1.3-0.3,2c0.3,1.1,1.3,1.8,2.2,1.4c0.9-0.4,1.4-1.6,1.1-2.7
				c0-0.1-0.1-0.3-0.1-0.4l20-18c0.3,0.4,0.8,0.5,1.2,0.3c0.6-0.3,0.9-1.1,0.7-1.8c-0.2-0.8-0.9-1.2-1.5-0.9
				c-0.6,0.3-0.9,1.1-0.7,1.8c0,0.1,0,0.1,0.1,0.2l-20,18c-0.2-0.2-0.4-0.4-0.6-0.5l21.8-85.4c0.1,0,0.2,0,0.3,0
				c0.4-0.2,0.6-0.7,0.5-1.2c-0.1-0.2-0.2-0.4-0.3-0.5l0-0.1l-0.1,0.1c-0.2-0.1-0.4-0.2-0.6-0.1c-0.4,0.2-0.6,0.7-0.5,1.2
				c0,0.1,0,0.1,0.1,0.2l-19.1,25c-0.4-0.4-0.9-0.5-1.4-0.3c-0.1,0-0.2,0.1-0.3,0.2l-32.4-49.1c0.2-0.3,0.3-0.6,0.2-1l9.8-4.3
				l17.9,25.7c-0.5,0.7-0.8,1.7-0.5,2.7c0.4,1.4,1.6,2.1,2.7,1.7c1.1-0.5,1.7-2,1.4-3.4c-0.3-1-1-1.7-1.8-1.8l0.5-31.8
				c0.1,0,0.2,0,0.4-0.1c0.9-0.4,1.3-1.5,1.1-2.6c-0.3-1.1-1.2-1.7-2.1-1.3c-0.8,0.3-1.3,1.4-1.1,2.4l-18.3,8l-7.6-10.9l9.5-48.2
				c0.3,0,0.5,0,0.8-0.1c0.9-0.4,1.4-1.6,1.1-2.7c-0.3-1.1-1.3-1.8-2.2-1.4c-0.9,0.4-1.4,1.6-1.1,2.7c0.1,0.3,0.2,0.5,0.3,0.7
				l-21.2,27.1c-0.5-0.5-1.2-0.7-1.9-0.4c-0.6,0.3-1.1,0.9-1.3,1.6l-11.1-3.1l0.3-22.1l0.1-0.1c0.1,0.1,0.1,0.2,0.2,0.2
				c0.4,0.2,0.9,0,1-0.5c0.1-0.2,0.1-0.4,0-0.7l0.1-0.1l-0.1,0c-0.1-0.2-0.2-0.5-0.4-0.6c-0.4-0.2-0.8,0-1,0.4l0.3-24.3
				c0.1,0,0.2,0,0.2-0.1c0.7-0.3,1-1.2,0.8-2c-0.2-0.8-0.9-1.3-1.6-1c-0.7,0.3-1,1.2-0.8,2c0.1,0.2,0.1,0.4,0.2,0.5L322,421.9
				l-8.4,1c-0.1-0.6-0.4-1.1-0.9-1.4c-0.1-0.1-0.2-0.1-0.4-0.1l1.9-63.3c0.3-0.1,0.5-0.3,0.7-0.6l9.7,4.8l-0.3,33.9
				c-0.8,0.1-1.5,0.7-1.8,1.6c-0.5,1.4,0,2.9,1.1,3.5c1.1,0.6,2.4-0.1,2.8-1.4c0.3-1,0.2-2.1-0.4-2.8l17.4-23.5
				c0.1,0.1,0.2,0.2,0.3,0.2c0.8,0.4,1.8,0,2.2-1.1c0.4-1,0-2.2-0.9-2.7c-0.8-0.4-1.7,0-2.1,0.9l-18-8.9l0.1-14.4l32.9-28.4
				c0.2,0.2,0.4,0.4,0.6,0.6c0.9,0.5,1.9,0,2.3-1.2c0.4-1.1,0-2.4-0.9-2.8c-0.9-0.5-1.9,0-2.3,1.2c-0.1,0.3-0.1,0.5-0.1,0.8
				l-30.4,3.1c-0.1-0.8-0.6-1.5-1.2-1.9c-0.6-0.3-1.3-0.2-1.8,0.2l-6.7-11.4l25.9-35.2c0.1,0.1,0.1,0.1,0.2,0.1
				c0.6,0.3,1.4,0,1.7-0.8c0.3-0.8,0-1.7-0.7-2.1c-0.6-0.3-1.4,0-1.7,0.8c-0.1,0.2-0.1,0.4-0.1,0.6l-29.9,5.5
				c-0.1-0.3-0.3-0.6-0.5-0.7c-0.4-0.2-0.8-0.1-1.1,0.3l-21.7-17.5c0,0,0-0.1,0-0.1c0.3-1,0-2.1-0.8-2.5
				C287.9,255.6,287,256,286.6,257z M342.8,371.4c-0.1,0.7,0,1.4,0.3,1.9l-17.4,23.5c-0.1-0.1-0.3-0.2-0.5-0.3
				c-0.2-0.1-0.4-0.2-0.6-0.2l0.3-33.7L342.8,371.4z M297.7,332.9l-24,17.6c-0.2-0.3-0.5-0.6-0.8-0.8c-0.3-0.2-0.7-0.2-1-0.2
				l-1.4-7.6L297.7,332.9z M302.3,355.9l-11.7,17.4c-0.1-0.1-0.2-0.2-0.3-0.3c-0.4-0.2-0.9-0.1-1.2,0.2l-15.4-19.7
				c0.1-0.2,0.2-0.4,0.3-0.6c0.2-0.7,0.2-1.4,0-2l24.2-17.8c0.1,0.2,0.3,0.3,0.4,0.4c0.2,0.1,0.3,0.1,0.5,0.1L302.3,355.9z
				 M299.5,333.5l8.5,13.8l-5.4,8l-3.2-21.8C299.4,333.6,299.5,333.5,299.5,333.5z M273.3,353.8l15.4,19.7c-0.1,0.1-0.1,0.2-0.2,0.3
				c-0.3,0.8,0,1.7,0.7,2.1c0.3,0.2,0.6,0.2,0.9,0l3,6.6l-19.3,0.4l-1.5-28.6C272.8,354.3,273.1,354.1,273.3,353.8z M293.4,383
				l2.8,6l-21.3,14.2l-1-19.8L293.4,383z M293.9,383l10.7-0.2c0,0.2,0,0.4,0.1,0.5l-8.2,5.5L293.9,383z M293.7,382.5l-3.1-6.9
				c0.2-0.2,0.3-0.4,0.4-0.6c0.2-0.5,0.1-1-0.1-1.4l11.5-17.2l3.5,23.9c-0.5,0.2-0.9,0.6-1.1,1.2c-0.1,0.2-0.1,0.4-0.1,0.6
				L293.7,382.5z M262,299.6l8,42l-7.6,2.5L262,299.6z M255.7,347.1c0-0.1,0-0.2,0-0.3l6.2-2.1l0,4.1L255.7,347.1z M262.3,349l0-4.3
				l7.7-2.6l1.4,7.6c-0.5,0.2-0.9,0.7-1.2,1.3c0,0.1,0,0.1,0,0.2L262.3,349z M262.4,349.5l7.8,2.2c0,0.4,0,0.9,0.1,1.3l-7.9,5.5
				L262.4,349.5z M227.4,384c0-0.1,0-0.3-0.1-0.4l34.7-24.3l0.2,23.9L227.4,384z M262.6,383.2l-0.2-24.2l8.1-5.7
				c0.2,0.4,0.5,0.7,0.8,0.8c0.2,0.1,0.5,0.2,0.7,0.2l1.4,28.6L262.6,383.2z M263.5,409.3c-0.2-0.1-0.4-0.2-0.7-0.2l-0.2-25.4
				l10.9-0.2l1,20.1l-10.1,6.8C264.2,409.9,263.9,409.5,263.5,409.3z M264.6,410.7l9.9-6.7l0.5,10.4l-10.3-2.4
				C264.8,411.6,264.8,411.1,264.6,410.7z M261.7,414.2C261.8,414.2,261.8,414.2,261.7,414.2c1.2,0.6,2.4,0,2.9-1.4
				c0-0.1,0.1-0.2,0.1-0.3l10.4,2.4l0.7,14.2l-21.4,13.2c-0.2-0.4-0.7-0.6-1.1-0.4c-0.3,0.1-0.5,0.3-0.6,0.6l-3.8-1.3L261.7,414.2z
				 M277.8,428.4c0,0.1,0.1,0.1,0.1,0.2l-1.6,2.2l-0.1-1.4L277.8,428.4z M321.6,423.9c0-0.1-0.1-0.3-0.2-0.4l0.8-1.2l18.8-2.1l0,0.2
				l-21.7,16.2l-14.1-4l4.8-6.2l9.8-1.8c0.2,0.6,0.7,1,1.2,0.7C321.5,425.2,321.7,424.5,321.6,423.9z M276.4,466.9
				c-0.4,1.1,0,2.4,0.9,2.8c0.9,0.5,1.9,0,2.3-1.2c0-0.1,0.1-0.3,0.1-0.4l20.7,2.4c0,0.1,0,0.2,0,0.4c0.1,0.4,0.3,0.7,0.5,0.9
				l-3.4,11.7l-2.6-2.3c0.1-0.3,0.2-0.7,0.1-1.1c-0.2-0.8-0.9-1.2-1.5-0.9c-0.2,0.1-0.3,0.2-0.5,0.4l-0.5-0.4l0.4,0.6
				c-0.2,0.4-0.3,0.9-0.2,1.4c0.2,0.8,0.9,1.2,1.5,0.9c0.1,0,0.2-0.1,0.3-0.2l2.5,3.4l-8.1,27.7l-26.5-13c0-0.2,0-0.5,0-0.7
				c-0.1-0.4-0.3-0.7-0.6-0.9l12.2-49.5l2.7-1.8l0.9,18.5C277.1,465.8,276.6,466.2,276.4,466.9z M357.1,516.4l5.8,2.5L348.6,535
				l-16.4-20.3c0.2-0.3,0.3-0.7,0.4-1.1l22.1,2.2c0,0.1,0,0.3,0.1,0.4c0.2,0.8,0.9,1.3,1.6,1C356.7,517,356.9,516.7,357.1,516.4z
				 M329.9,515.3l-3,10.6l-4.9-6.7l7.1-4.8C329.3,514.8,329.6,515.1,329.9,515.3z M315.8,522.9c0-0.1-0.1-0.1-0.1-0.2l3.6-6.7
				l2.2,3.1L315.8,522.9z M321.8,518.8l-2.3-3.2l4.4-8.2l5.1,4.5c-0.3,0.6-0.3,1.3-0.2,2c0,0.1,0,0.1,0.1,0.2L321.8,518.8z
				 M329.3,511.5l-5.2-4.5l15.7-29.1l-8.6,32.8c-0.3-0.1-0.7-0.1-1,0.1C329.8,511,329.5,511.2,329.3,511.5z M319.2,515.2l-19.3-26.7
				l0.2-2.2l23.5,20.7L319.2,515.2z M299.5,488.1l-2.1-2.9l0.3-0.9l2,1.8L299.5,488.1z M267.7,542.6c0-0.1-0.1-0.2-0.1-0.3
				l17.1-17.3c0.2,0.3,0.5,0.5,0.8,0.6l-4.1,28.2l-19.2-3.2l3.6-6.2c0.3,0.2,0.6,0.2,0.9,0.1C267.6,544.3,267.9,543.4,267.7,542.6z
				 M287.8,524.4c0.2-0.4,0.3-0.8,0.3-1.2l8-1.1l-0.9,8.9L287.8,524.4z M296.5,521.6l0.4-4.1l6,3c0,0.1,0,0.2,0,0.3L296.5,521.6z
				 M296.1,521.6l-8.1,1.1c0-0.1,0-0.1,0-0.2c-0.2-0.7-0.5-1.2-1-1.5l2.1-7.3l7.4,3.6L296.1,521.6z M284.7,521.6l-22.2-20.9
				l26.2,12.9l-2.2,7.4c-0.3-0.1-0.7-0.1-1,0C285.2,521,284.9,521.2,284.7,521.6z M289.3,513.2l8-27.5l2.2,3l-2.9,28.1L289.3,513.2z
				 M297.2,484.8l-2-2.7l2.2,1.9L297.2,484.8z M297.9,483.8l3.3-11.2l-1.3,12.9L297.9,483.8z M260.8,501l-5.2,21.2l-4.6-8.8
				l9.7-12.5C260.7,501,260.7,501,260.8,501z M261.1,501.2c0.2,0,0.3,0,0.5,0c0.2-0.1,0.3-0.2,0.5-0.3l22.4,21.1
				c-0.3,0.6-0.4,1.3-0.2,1.9c0.1,0.2,0.1,0.4,0.3,0.6l-17.1,17.3c-0.3-0.3-0.8-0.5-1.2-0.3c-0.1,0-0.3,0.1-0.4,0.2l-10-19
				L261.1,501.2z M265.5,542.1c-0.2,0.4-0.3,0.9-0.2,1.4c0.1,0.3,0.2,0.5,0.3,0.7l-3.8,6.4l-10.9-1.8c0-0.2,0-0.4-0.1-0.7
				c-0.2-0.6-0.5-1.1-1-1.4l5.7-23.3L265.5,542.1z M261.6,550.9l-3.2,5.4l-7.6-6.6c0.1-0.2,0.1-0.3,0.2-0.5L261.6,550.9z M262,551
				l19.4,3.2l-2.9,19.5l-19.8-17.2L262,551z M281.9,553.8l4.1-28.2c0.2,0,0.5,0,0.7-0.1c0.4-0.1,0.7-0.4,0.9-0.7l7.5,6.8l-2.5,24
				L281.9,553.8z M295.5,531.4l1-9.3l6.5-0.9c0,0,0,0,0,0c0.2,0.8,0.9,1.3,1.6,1.1c0.7-0.2,1.1-1.1,0.9-1.9
				c-0.2-0.8-0.9-1.3-1.6-1.1c-0.3,0.1-0.6,0.4-0.7,0.7l-6.1-3l2.8-27.8l19.1,26.5l-3.6,6.8c-0.3-0.2-0.6-0.2-0.9-0.1
				c-0.7,0.3-1,1.2-0.8,2c0.2,0.8,0.9,1.3,1.6,1c0.7-0.3,1-1.2,0.8-2c0,0,0,0,0,0l5.7-3.9l5.1,7l-7.4,26.5L295.5,531.4z
				 M330.3,515.5c0.3,0.1,0.7,0.1,1.1-0.1c0.2-0.1,0.4-0.2,0.6-0.4l16.4,20.3l-8,9.1l-13-18L330.3,515.5z M363.3,519l5.3,2.3
				l-8.4,28.1l-11.3-14.1L363.3,519z M363.6,518.7l7.9-8.9c0.1,0.1,0.2,0.2,0.4,0.3l-3.2,10.8L363.6,518.7z M363.2,518.5l-6-2.6
				c0-0.3,0-0.5,0-0.8c-0.1-0.5-0.4-0.8-0.8-1l-0.5-22.3l15.4,15.1c-0.3,0.5-0.4,1.2-0.2,1.8c0.1,0.2,0.1,0.4,0.3,0.6L363.2,518.5z
				 M356,514.1c-0.1,0-0.3,0-0.4,0.1c-0.4,0.2-0.7,0.6-0.8,1.1l-22.1-2.2c0-0.2,0-0.5-0.1-0.7c-0.2-0.7-0.6-1.2-1.1-1.4l8.7-33.1
				c0.2,0,0.4,0,0.5-0.1c0.2-0.1,0.3-0.2,0.4-0.3l14.3,14L356,514.1z M341.4,477c0-0.1,0-0.1,0.1-0.2l13.7,3.5l0.2,10.5L341.4,477z
				 M323.8,506.7l-23.6-20.8l1.4-13.9c0.1,0,0.2,0,0.3-0.1c0.4-0.2,0.7-0.6,0.8-1.1l1.7,0.2c0,0.5,0.3,1,0.7,1.2
				c0.6,0.3,1.3,0,1.5-0.8c0.3-0.7,0-1.6-0.6-1.9c-0.6-0.3-1.3,0-1.5,0.8c0,0.1,0,0.1,0,0.2l-1.7-0.2c0-0.1,0-0.2,0-0.2
				c-0.1-0.5-0.4-0.8-0.8-1l0.1-0.7l-0.2,0.7c-0.2,0-0.4,0-0.5,0c-0.4,0.1-0.7,0.5-0.8,1l-20.7-2.4c0-0.3-0.1-0.6-0.2-0.9l28.9-21.6
				l30.9,30.3c-0.2,0.3-0.2,0.8-0.1,1.2c0.1,0.2,0.2,0.4,0.3,0.6L323.8,506.7z M279.4,466.5C279.4,466.4,279.3,466.4,279.4,466.5
				L301,438l7.1,6.9L279.4,466.5z M301.3,437.7l3.5-4.6l13.9,3.9l-10.3,7.7L301.3,437.7z M304.7,432.5l-4.3-1.2l6.5-4.3l2.4-0.4
				L304.7,432.5z M299.9,431.2l-5.8-1.6c0-0.1,0-0.1,0-0.2l11.8-2.1L299.9,431.2z M299.3,431.5l-2.6,1.7l-2.9-2.9
				c0.1-0.1,0.1-0.2,0.1-0.3L299.3,431.5z M299.9,431.7l4.5,1.3l-3.4,4.4l-3.9-3.8L299.9,431.7z M300.7,437.7L279,466.1
				c-0.1-0.1-0.2-0.2-0.4-0.3c-0.2-0.1-0.4-0.2-0.6-0.2l-1-18.8l19.6-13.1L300.7,437.7z M274.2,448.3l2.2-8.9l0.4,7.2L274.2,448.3z
				 M273.7,448.6l-19.9,13.2L276,432l0.3,6.1L273.7,448.6z M276.3,431.5l1.9-2.5c0.1,0.1,0.2,0.1,0.3,0.2l-1.9,7.6L276.3,431.5z
				 M275.9,431.3l-23.2,31.2l-9.3,6.2l-4.1-7.1l9.4-19.9l3.9,1.3c0,0.1,0,0.3,0,0.4c0.2,0.6,0.7,1,1.2,0.8c0.5-0.2,0.8-0.8,0.7-1.5
				l21.3-13.1L275.9,431.3z M223.2,433.6c0.1-0.1,0.2-0.3,0.3-0.5l24.9,8.4l-9.3,19.6L223.2,433.6z M233.2,475.5
				c-0.1-0.1-0.2-0.3-0.3-0.4l6.2-13.2l4,6.9L233.2,475.5z M243.7,469.1l8.2-5.5l-6.4,8.6L243.7,469.1z M253,462.9l20.5-13.7
				l-12.1,49.1c-0.2,0-0.3,0-0.5,0c-0.1,0-0.1,0.1-0.2,0.1l-15-25.8L253,462.9z M245.5,473l14.9,25.7c-0.3,0.4-0.4,0.9-0.3,1.4
				c0,0.2,0.1,0.3,0.2,0.5l-9.6,12.4l-13.6-25.7c0.9-0.5,1.4-1.8,1.2-3c-0.1-0.4-0.2-0.7-0.4-1L245.5,473z M204.2,477.9
				c0.1-0.2,0.2-0.4,0.2-0.6l29.9,7.4c0,0.3,0,0.6,0.1,1c0.2,1,0.9,1.6,1.6,1.8l-2,23.2L204.2,477.9z M234.3,511.1l2-23.5
				c0.1,0,0.3,0,0.4-0.1l13.7,25.9l-5.8,7.6c-0.2-0.2-0.5-0.3-0.8-0.2c-0.1,0-0.2,0.1-0.3,0.2L234.3,511.1z M229.8,559.6
				c-0.2,0-0.4,0-0.6,0.1c-0.2,0.1-0.3,0.2-0.5,0.3l-15.1-25.8c0.4-0.5,0.6-1.1,0.5-1.8l18.6-6.3L229.8,559.6z M233.1,525.5
				l1.2-13.8l8.9,9.7c-0.1,0.2-0.2,0.5-0.1,0.7L233.1,525.5z M240.1,586.4l4.1-63.1c0.1,0,0.1,0,0.2,0c0.5-0.2,0.9-0.9,0.7-1.6
				c0-0.1-0.1-0.3-0.1-0.4l5.8-7.5l4.7,9l-5.8,23.7c-0.3-0.1-0.5-0.1-0.8,0c-0.9,0.3-1.5,1.5-1.2,2.7c0.3,1.2,1.2,1.8,2.2,1.5
				c0.3-0.1,0.6-0.4,0.8-0.6l7.6,6.6l-17.7,29.9C240.4,586.5,240.2,586.5,240.1,586.4z M258.5,557l20,17.3l-1.5,10.5l-35.7,3.1
				c0-0.1,0-0.1,0-0.2c-0.1-0.3-0.2-0.6-0.4-0.9L258.5,557z M276.9,585.3l-4.5,30.9l-31.2-27c0.1-0.2,0.2-0.5,0.2-0.8L276.9,585.3z
				 M268.2,635.9l-57.1-54.8l27.1,7.1c0,0.2,0,0.5,0.1,0.7c0.2,1,1.1,1.6,1.9,1.3c0.1,0,0.2-0.1,0.3-0.2L268.2,635.9
				C268.3,635.9,268.2,635.9,268.2,635.9z M269.6,635.3c-0.2,0-0.4,0-0.6,0.1c-0.1,0.1-0.3,0.1-0.4,0.2l-27.7-45.9
				c0,0,0-0.1,0.1-0.1l31.4,27.1L269.6,635.3z M287.9,584.7c0.3,1.4,1.5,2.2,2.7,1.8c0,0,0,0,0.1,0l22.9,64.7
				c-0.1,0.1-0.2,0.2-0.3,0.3l-40.5-35l4.6-31.2l10.6-0.9C287.8,584.5,287.9,584.6,287.9,584.7z M287.8,583.9l-10.5,0.9l1.5-10.2
				l9.3,8C287.9,583,287.8,583.5,287.8,583.9z M290,581.3c-0.2,0-0.5,0-0.7,0.1c-0.4,0.2-0.8,0.4-1,0.8l-9.4-8.2l2.9-19.8l10.8,1.8
				L290,581.3z M293,555.7l2.4-23.8l23.7,21.5l-1.8,6.4L293,555.7z M319.5,553.7l6.9,6.3l-1,1.1l-7.6-1.3L319.5,553.7z M314.2,573.7
				c-0.1-0.1-0.2-0.2-0.3-0.2l3.7-13.2l7.4,1.2L314.2,573.7z M327.7,561c-0.1,0.1-0.1,0.3-0.1,0.4l-1.6-0.3l0.8-0.9L327.7,561z
				 M326.7,559.6l-7.1-6.4l7.4-26.3l12.9,17.8L326.7,559.6z M354.8,563.3c-0.2,0.1-0.4,0.2-0.6,0.4l-13.7-18.9l8.1-9.1l11.5,14.2
				l-4,13.3C355.7,563.1,355.2,563.1,354.8,563.3z M356.4,563.4l3.9-13.1l5.9,7.3l-9,6.6C357,563.9,356.7,563.6,356.4,563.4z
				 M397.6,535.2c0.1,0.2,0.3,0.4,0.5,0.5L384.8,580l-17.9-22.2L397.6,535.2z M367.4,637.7c-0.1,0-0.3-0.1-0.4,0l-10.9-69.4
				c0,0,0.1,0,0.1,0c1.1-0.5,1.7-2,1.4-3.4c0-0.1-0.1-0.2-0.1-0.3l9.1-6.7l18.1,22.5L367.4,637.7z M385.1,580.3l13.3-44.4
				c0,0,0.1,0,0.1,0l-1.8,57.2c-0.1,0-0.3,0-0.4,0.1c-0.2,0.1-0.4,0.2-0.5,0.4L385.1,580.3z M419.1,507.9l-21.8,85.3
				c0,0-0.1,0-0.1,0l1.8-57.2c0.1,0,0.2,0,0.4-0.1c0.8-0.3,1.3-1.4,1-2.4c-0.1-0.2-0.2-0.4-0.3-0.6L419.1,507.9z M397.3,533.7
				c-0.1,0.3-0.1,0.7,0,1c0,0.1,0,0.1,0.1,0.2l-30.8,22.5l-6.1-7.6l8.5-28.3L397.3,533.7z M363.9,482.9c0.2,0.7,0.8,1,1.3,0.8
				c0.1,0,0.1-0.1,0.2-0.1l32.4,49.1c-0.1,0.1-0.2,0.3-0.3,0.5L369.1,521l3.2-10.8c0.3,0.1,0.6,0.1,1,0c0.9-0.4,1.4-1.6,1.1-2.7
				c-0.3-1.1-1.3-1.8-2.2-1.4c-0.3,0.1-0.5,0.3-0.7,0.5l-15.7-15.4l-0.2-10.7l8.2,2.1C363.8,482.7,363.8,482.8,363.9,482.9z
				 M395.5,471.1l-0.5,31.8c-0.2,0-0.3,0.1-0.5,0.1c-0.2,0.1-0.4,0.2-0.6,0.4l-17.8-25.5l18.1-7.9
				C394.5,470.6,394.9,471,395.5,471.1z M375.4,477.7l-9.7,4.2c-0.1-0.2-0.3-0.4-0.5-0.5l2.8-14.2L375.4,477.7z M364.9,481.3
				c-0.1,0-0.2,0-0.4,0.1c-0.3,0.1-0.5,0.4-0.6,0.7l-8.3-2.1l-0.7-31c0.1-0.1,0.2-0.1,0.3-0.2l12.5,17.9L364.9,481.3z M376.9,417.9
				c0.1,0.1,0.3,0.2,0.5,0.3l-9.5,47.9l-12.3-17.7c0.5-0.7,0.8-1.7,0.5-2.6c-0.1-0.3-0.2-0.6-0.4-0.8L376.9,417.9z M352.1,446.3
				c0,0.4,0,0.7,0.1,1.1c0.3,1.2,1.3,1.9,2.3,1.7l0.7,30.7l-13.6-3.5c0-0.2,0-0.3-0.1-0.5c-0.1-0.5-0.5-0.9-0.9-1l0.5-31.7
				L352.1,446.3z M340.7,443.1l-0.5,31.8c-0.1,0-0.1,0-0.2,0.1c-0.2,0.1-0.3,0.2-0.4,0.3L308.8,445l10.6-7.9L340.7,443.1z
				 M340.7,442.6l-20.9-5.9L341,421L340.7,442.6z M340.9,394.9c0.1,0.1,0.3,0.2,0.4,0.2l-0.4,24.6l-18.5,2.1L340.9,394.9z
				 M321.6,422.4l-0.5,0.8c-0.2-0.2-0.5-0.2-0.8-0.1c-0.4,0.2-0.6,0.6-0.7,1.1l-9.3,1.7l0.8-1.1c0.1,0.1,0.2,0.2,0.3,0.2
				c0.8,0.4,1.7,0,2-1c0.1-0.2,0.1-0.5,0.1-0.7L321.6,422.4z M310.9,424.5l-1.2,1.5l-1.8,0.3l2.9-1.9
				C310.8,424.4,310.9,424.5,310.9,424.5z M310.6,424l-3.8,2.6l-12.8,2.3c0,0,0-0.1,0-0.1c-0.3-1-1.2-1.6-2-1.2
				c-0.8,0.3-1.3,1.4-1,2.4c0.3,1,1.2,1.6,2,1.2c0.2-0.1,0.4-0.3,0.6-0.5l2.8,2.8l-19.3,12.9l-0.4-8.2l2.2-8.8c0.2,0,0.5,0,0.7,0
				c0.8-0.3,1.3-1.4,1.1-2.4c-0.2-1-1.1-1.6-1.9-1.3c-0.8,0.3-1.3,1.4-1.1,2.4c0,0,0,0.1,0,0.1l-1.4,0.9l-0.7-13.9l35,8.2
				C310.5,423.4,310.6,423.7,310.6,424z M310.7,422.5c0,0.1,0,0.1,0,0.2l-35.1-8.2l-0.5-10.7l21.4-14.3l14.8,32.3
				C310.9,421.9,310.8,422.2,310.7,422.5z M313.8,358.1l-1.9,63.3c-0.2,0-0.3,0.1-0.5,0.1l-14.8-32.3l8.2-5.5
				c0.2,0.3,0.4,0.6,0.8,0.8c0.9,0.5,1.9,0,2.3-1.2c0.4-1.1,0-2.4-0.9-2.8c-0.3-0.1-0.5-0.2-0.8-0.2l-3.6-24.3l5.6-8.3l5,8.3
				c-0.1,0.1-0.1,0.2-0.2,0.3c-0.2,0.6,0,1.4,0.5,1.7C313.7,358,313.7,358,313.8,358.1z M324.6,361.8l-9.5-4.7c0-0.3,0-0.5-0.1-0.8
				l9.7-8.4L324.6,361.8z M314.7,355.9c-0.1-0.1-0.2-0.2-0.3-0.3c-0.3-0.1-0.6-0.1-0.8,0l-5.1-8.3l16-23.8c0.1,0.1,0.3,0.1,0.4,0.1
				l-0.2,23.7L314.7,355.9z M357.6,318.1c0,0.2,0.1,0.4,0.2,0.6L325.1,347l0.2-23.3c0.8-0.1,1.5-0.6,1.8-1.5c0.1-0.3,0.2-0.6,0.2-1
				L357.6,318.1z M323.8,319.3c-0.2,0.2-0.4,0.5-0.5,0.9c-0.4,1.2,0,2.5,0.9,3.2L308.2,347l-8.4-13.7c0.1-0.1,0.2-0.3,0.2-0.4
				c0.2-0.5,0.1-1.1-0.2-1.5l17.2-23.4L323.8,319.3z M299.6,331c-0.1,0-0.1-0.1-0.2-0.1c-0.2-0.1-0.3-0.1-0.5-0.1l-10.5-71.2
				c0.1,0,0.2-0.1,0.3-0.1l28.1,48.1L299.6,331z M311,276.5c-0.2,0.6,0,1.3,0.5,1.6c0.5,0.3,1.1,0,1.3-0.6c0-0.1,0.1-0.3,0.1-0.4
				l29.9-5.6c0,0.2,0.1,0.4,0.2,0.5l-25.9,35.2l-28.1-48c0-0.1,0.1-0.1,0.1-0.2L311,276.5z"/>
		</g>
	</g>
</g>
</svg>
